<?xml version="1.0" encoding="utf-8"?>
<!-- Generator: Adobe Illustrator 21.1.0, SVG Export Plug-In . SVG Version: 6.00 Build 0)  -->
<svg version="1.1" id="Layer_1" xmlns="http://www.w3.org/2000/svg" xmlns:xlink="http://www.w3.org/1999/xlink" x="0px" y="0px"
	 viewBox="0 0 23.1 26.9" style="enable-background:new 0 0 23.1 26.9;" xml:space="preserve">
<style type="text/css">
	.st0{fill:#009bd6;}
</style>
<path class="st0" d="M5.1,23.1c-0.6,0-1.1,0.5-1.1,1.1c0,0.6,0.5,1.1,1.1,1.1s1.1-0.5,1.1-1.1C6.2,23.6,5.7,23.1,5.1,23.1L5.1,23.1z
	 M18,23.1c-0.6,0-1.1,0.5-1.1,1.1c0,0.6,0.5,1.1,1.1,1.1c0.6,0,1.1-0.5,1.1-1.1C19.2,23.6,18.7,23.1,18,23.1L18,23.1z M20.7,22v-8.5
	c0-5-4.1-9.1-9.1-9.1c-5,0-9.1,4.1-9.1,9.1V22H20.7L20.7,22z M11.1,3.6V1.1c0-0.2,0.2-0.4,0.4-0.4c0.2,0,0.4,0.2,0.4,0.4v2.5
	c5.3,0.2,9.6,4.6,9.6,10v8.9c0,0.2-0.2,0.4-0.4,0.4h-1.7c0.3,0.4,0.6,0.8,0.6,1.4c0,1.1-0.9,2-2,2c-1.1,0-2-0.9-2-2
	c0-0.5,0.2-1,0.6-1.4h-10c0.3,0.4,0.6,0.8,0.6,1.4c0,1.1-0.9,2-2,2c-1.1,0-2-0.9-2-2c0-0.5,0.2-1,0.6-1.4H2c-0.2,0-0.4-0.2-0.4-0.4
	v-8.9C1.6,8.2,5.8,3.8,11.1,3.6L11.1,3.6z M7,19.6v-8.1H5.3c-0.3,0-0.6,0.3-0.6,0.6v7c0,0.3,0.3,0.6,0.6,0.6H7L7,19.6z M16.2,11.5
	l0,8.1h1.6c0.3,0,0.6-0.3,0.6-0.6v-7c0-0.3-0.3-0.6-0.6-0.6H16.2L16.2,11.5z M15.3,19.6l0-8.1H7.9v8.1H15.3L15.3,19.6z M9.2,10.6v-1
	c0-0.6,0.5-1,1-1h2.6c0.6,0,1,0.5,1,1v1h3.9c0.8,0,1.4,0.6,1.4,1.4v7c0,0.8-0.6,1.4-1.4,1.4H5.3c-0.8,0-1.4-0.6-1.4-1.4v-7
	c0-0.8,0.6-1.4,1.4-1.4H9.2L9.2,10.6z M13,10.6v-1c0-0.1-0.1-0.2-0.2-0.2h-2.6c-0.1,0-0.2,0.1-0.2,0.2v1H13L13,10.6z"/>
</svg>
