<?xml version="1.0" encoding="utf-8"?>
<!-- Generator: Adobe Illustrator 21.1.0, SVG Export Plug-In . SVG Version: 6.00 Build 0)  -->
<svg version="1.1" id="Layer_1" xmlns="http://www.w3.org/2000/svg" xmlns:xlink="http://www.w3.org/1999/xlink" x="0px" y="0px"
	 viewBox="0 0 23.1 26.9" style="enable-background:new 0 0 23.1 26.9;" xml:space="preserve">
<style type="text/css">
	.st0{fill:none;stroke:#009bd6;stroke-width:0.9389;stroke-linecap:round;stroke-linejoin:round;stroke-miterlimit:10;}
	.st1{clip-path:url(#SVGID_2_);}
</style>
<g>
	<path class="st0" d="M21.3,5.4v16.1c0,2.5-2.1,4.6-4.6,4.6H6.7c-2.5,0-4.6-2.1-4.6-4.6V5.4c0-2.5,2.1-4.6,4.6-4.6h10.1
		C19.3,0.8,21.3,2.9,21.3,5.4z"/>
	<g>
		<defs>
			<path id="SVGID_1_" d="M21.3,5.4v16.1c0,2.5-2.1,4.6-4.6,4.6H6.7c-2.5,0-4.6-2.1-4.6-4.6V5.4c0-2.5,2.1-4.6,4.6-4.6h10.1
				C19.3,0.8,21.3,2.9,21.3,5.4z"/>
		</defs>
		<clipPath id="SVGID_2_">
			<use xlink:href="#SVGID_1_"  style="overflow:visible;"/>
		</clipPath>
		<g class="st1">
			<polyline class="st0" points="1.2,6.8 6.9,9.1 11.6,-2.5 			"/>
			<line class="st0" x1="9.4" y1="16.1" x2="5.1" y2="26.7"/>
			<line class="st0" x1="16.3" y1="-0.6" x2="11.2" y2="11.9"/>
			<line class="st0" x1="0" y1="9.7" x2="8.5" y2="13.2"/>
			<polyline class="st0" points="20.8,1.3 18.7,6.2 14.2,4.4 			"/>
			<polyline class="st0" points="12,9.7 20.2,13.1 24.4,2.8 			"/>
			<polyline class="st0" points="-2,14.5 8.3,18.8 12.8,20.6 9.6,28.5 			"/>
			<polyline class="st0" points="13.2,30 18.5,17.3 23.6,19.4 			"/>
		</g>

			<use xlink:href="#SVGID_1_"  style="overflow:visible;fill:none;stroke:#009bd6;stroke-width:0.9389;stroke-linecap:round;stroke-linejoin:round;stroke-miterlimit:10;"/>
	</g>
	<polygon class="st0" points="12,17 6.9,14.9 11.3,11.5 	"/>
</g>
</svg>
