<?xml version="1.0" encoding="utf-8"?>
<!-- Generator: Adobe Illustrator 21.1.0, SVG Export Plug-In . SVG Version: 6.00 Build 0)  -->
<svg version="1.1" id="Layer_1" xmlns="http://www.w3.org/2000/svg" xmlns:xlink="http://www.w3.org/1999/xlink" x="0px" y="0px"
	 viewBox="0 0 26.9 31" style="enable-background:new 0 0 26.9 31;" xml:space="preserve">
<style type="text/css">
	.st0{fill:#89857D;}
</style>
<path class="st0" d="M11.2,4.4L11.2,4.4c2.1,0,4.1,1,5.4,2.6c2.3,3,1.8,7.3-1.2,9.6c-1.2,0.9-2.7,1.4-4.2,1.4c-2.1,0-4.1-1-5.4-2.6
	C3.5,12.4,4,8.1,7,5.8C8.2,4.9,9.6,4.4,11.2,4.4 M11.2,0.5c-2.3,0-4.6,0.7-6.6,2.2c-4.7,3.6-5.5,10.4-1.9,15
	c2.1,2.7,5.3,4.1,8.5,4.1c2.3,0,4.6-0.7,6.6-2.2c4.7-3.6,5.5-10.4,1.9-15C17.5,1.9,14.4,0.5,11.2,0.5L11.2,0.5z"/>
<path class="st0" d="M25,31c-0.6,0-1.1-0.3-1.5-0.7l-7.3-9.4c-0.7-0.8-0.5-2.1,0.3-2.7c0.8-0.7,2.1-0.5,2.7,0.3l7.3,9.4
	c0.7,0.8,0.5,2.1-0.3,2.7C25.8,30.9,25.4,31,25,31z"/>
</svg>
