<?xml version="1.0" encoding="utf-8"?>
<!-- Generator: Adobe Illustrator 21.1.0, SVG Export Plug-In . SVG Version: 6.00 Build 0)  -->
<svg version="1.1" id="Layer_1" xmlns="http://www.w3.org/2000/svg" xmlns:xlink="http://www.w3.org/1999/xlink" x="0px" y="0px"
	 viewBox="0 0 161.2 32.7" style="enable-background:new 0 0 161.2 32.7;" xml:space="preserve">
<style type="text/css">
	.st0{fill:#B1B1B1;}
</style>
<g>
	<path class="st0" d="M32.7,5.5c0-2.9-2.6-5.5-5.5-5.5H5.5C2.6,0,0,2.6,0,5.5v21.8c0,2.9,2.6,5.5,5.5,5.5h10.9V20.4h-4v-5.5h4v-2.1
		c0-3.7,2.8-7,6.1-7h4.4v5.5h-4.4c-0.5,0-1,0.6-1,1.5V15H27v5.5h-5.5v12.4h5.8c2.9,0,5.5-2.6,5.5-5.5L32.7,5.5L32.7,5.5z"/>
</g>
<g>
	<g>
		<path class="st0" d="M95.3,14.8c2.1-0.2,3.5-1.1,4.1-2.4c-0.8,0.5-3.1,1-4.4,0.5c-0.1-0.3-0.1-0.6-0.2-0.9c-1-3.7-4.4-6.6-8-6.2
			c0.3-0.1,0.6-0.2,0.9-0.3C88,5.3,90.3,5,90,4.1c-0.3-0.7-3.1,0.5-3.7,0.7c0.7-0.3,1.9-0.7,2-1.5c-1.1,0.1-2.1,0.7-2.9,1.4
			C85.7,4.4,85.9,4,86,3.6c-2.9,1.8-4.5,5.5-5.9,9.1c-1.1-1-2-1.8-2.8-2.3c-2.4-1.3-5.2-2.6-9.6-4.2c-0.1,1.5,0.7,3.4,3.2,4.7
			c-0.5-0.1-1.5,0.1-2.3,0.3c0.3,1.7,1.4,3.1,4.2,3.7c-1.3,0.1-2,0.4-2.6,1c0.6,1.2,2,2.6,4.6,2.3c-2.9,1.2-1.2,3.5,1.2,3.2
			c-4,4.1-10.3,3.8-13.9,0.4C71.4,34.6,92,29.4,95,17c2.3,0,3.6-0.8,4.5-1.7C98.2,15.5,96.3,15.3,95.3,14.8L95.3,14.8z"/>
	</g>
</g>
<g>
	<path class="st0" d="M161.2,18.2v11.9h-6.9V19c0-2.8-1-4.7-3.5-4.7c-1.9,0-3,1.3-3.5,2.5c-0.2,0.4-0.2,1.1-0.2,1.7v11.6h-6.9
		c0,0,0.1-18.8,0-20.8h6.9v2.9c0,0,0,0,0,0.1l0,0v-0.1c0.9-1.4,2.6-3.4,6.2-3.4C157.8,8.8,161.2,11.8,161.2,18.2L161.2,18.2z
		 M132.9-0.7c-2.4,0-3.9,1.5-3.9,3.6c0,2,1.5,3.6,3.8,3.6l0,0c2.4,0,3.9-1.6,3.9-3.6C136.7,0.8,135.3-0.7,132.9-0.7L132.9-0.7z
		 M129.4,30.1h6.9V9.3h-6.9V30.1z"/>
</g>
</svg>
