<?xml version="1.0" encoding="utf-8"?>
<!-- Generator: Adobe Illustrator 21.1.0, SVG Export Plug-In . SVG Version: 6.00 Build 0)  -->
<svg version="1.1" id="Layer_1" xmlns="http://www.w3.org/2000/svg" xmlns:xlink="http://www.w3.org/1999/xlink" x="0px" y="0px"
	 viewBox="0 0 18.1 18.1" style="enable-background:new 0 0 18.1 18.1;" xml:space="preserve">
<style type="text/css">
	.st0{fill:#302F32;}
</style>
<g>
	<g>
		<circle class="st0" cx="15.5" cy="16.6" r="0.8"/>
	</g>
	<g>
		<circle class="st0" cx="2.1" cy="16.6" r="0.8"/>
	</g>
	<g>
		<path class="st0" d="M0.4,10.7c0,0.9,0.7,1.7,1.7,1.7h5.8v3.3H3.8v1.7h10v-1.7H9.6v-3.3h5.8c0.9,0,1.7-0.7,1.7-1.7V7.4H0.4V10.7z
			 M13.8,9.1c0.5,0,0.8,0.4,0.8,0.8c0,0.5-0.4,0.8-0.8,0.8c-0.5,0-0.8-0.4-0.8-0.8C12.9,9.4,13.3,9.1,13.8,9.1z M11.3,9.1
			c0.5,0,0.8,0.4,0.8,0.8c0,0.5-0.4,0.8-0.8,0.8c-0.5,0-0.8-0.4-0.8-0.8C10.4,9.4,10.8,9.1,11.3,9.1z M2.9,9.1h4.2v1.7H2.9V9.1z"/>
	</g>
	<g>
		<path class="st0" d="M15.5,0.7H2.1c-0.9,0-1.7,0.7-1.7,1.7v3.3h16.7V2.4C17.1,1.5,16.4,0.7,15.5,0.7z M7.1,4.1H2.9V2.4h4.2V4.1z
			 M11.3,4.1c-0.5,0-0.8-0.4-0.8-0.8c0-0.5,0.4-0.8,0.8-0.8c0.5,0,0.8,0.4,0.8,0.8C12.1,3.7,11.7,4.1,11.3,4.1z M13.8,4.1
			c-0.5,0-0.8-0.4-0.8-0.8c0-0.5,0.4-0.8,0.8-0.8c0.5,0,0.8,0.4,0.8,0.8C14.6,3.7,14.2,4.1,13.8,4.1z"/>
	</g>
</g>
</svg>
