<?xml version="1.0" encoding="utf-8"?>
<!-- Generator: Adobe Illustrator 21.1.0, SVG Export Plug-In . SVG Version: 6.00 Build 0)  -->
<svg version="1.1" id="Layer_1" xmlns="http://www.w3.org/2000/svg" xmlns:xlink="http://www.w3.org/1999/xlink" x="0px" y="0px"
	 viewBox="0 0 20 20" style="enable-background:new 0 0 20 20;" xml:space="preserve">
<style type="text/css">
	.st0{fill:#89857D;}
</style>
<g>
	<path class="st0" d="M13,10l6.3-6.3c0.8-0.8,0.8-2.2,0-3c-0.8-0.8-2.2-0.8-3,0L10,7L3.7,0.6c-0.8-0.8-2.2-0.8-3,0
		c-0.8,0.8-0.8,2.2,0,3L7,10l-6.3,6.3c-0.8,0.8-0.8,2.2,0,3C1,19.8,1.6,20,2.1,20c0.6,0,1.1-0.2,1.5-0.6L10,13l6.3,6.3
		c0.4,0.4,1,0.6,1.5,0.6c0.5,0,1.1-0.2,1.5-0.6c0.8-0.8,0.8-2.2,0-3L13,10z"/>
</g>
</svg>
