<?xml version="1.0" encoding="utf-8"?>
<!-- Generator: Adobe Illustrator 21.1.0, SVG Export Plug-In . SVG Version: 6.00 Build 0)  -->
<svg version="1.1" id="Layer_1" xmlns="http://www.w3.org/2000/svg" xmlns:xlink="http://www.w3.org/1999/xlink" x="0px" y="0px"
	 viewBox="0 0 18.1 18.1" style="enable-background:new 0 0 18.1 18.1;" xml:space="preserve">
<style type="text/css">
	.st0{fill:#302F32;}
</style>
<g>
	<g>
		<path class="st0" d="M6.2,2.4c0-0.3-0.2-0.5-0.5-0.5H0.5C0.2,1.9,0,2.1,0,2.4c0,0.3,0.2,0.5,0.5,0.5h5.3C6,2.9,6.2,2.7,6.2,2.4z"
			/>
		<path class="st0" d="M11.9,2.4c0,0.3,0.2,0.5,0.5,0.5h5.3c0.3,0,0.5-0.2,0.5-0.5c0-0.3-0.2-0.5-0.5-0.5h-5.3
			C12.2,1.9,11.9,2.1,11.9,2.4z"/>
		<path class="st0" d="M1.9,9.1c0-0.3-0.2-0.5-0.5-0.5h-1C0.2,8.6,0,8.8,0,9.1c0,0.3,0.2,0.5,0.5,0.5h1C1.7,9.6,1.9,9.3,1.9,9.1z"/>
		<path class="st0" d="M7.6,9.1c0,0.3,0.2,0.5,0.5,0.5h9.6c0.3,0,0.5-0.2,0.5-0.5c0-0.3-0.2-0.5-0.5-0.5H8.1
			C7.9,8.6,7.6,8.8,7.6,9.1z"/>
		<path class="st0" d="M9.6,15.8c0-0.3-0.2-0.5-0.5-0.5H0.5c-0.3,0-0.5,0.2-0.5,0.5c0,0.3,0.2,0.5,0.5,0.5h8.6
			C9.3,16.2,9.6,16,9.6,15.8z"/>
		<path class="st0" d="M15.3,15.8c0,0.3,0.2,0.5,0.5,0.5h1.9c0.3,0,0.5-0.2,0.5-0.5c0-0.3-0.2-0.5-0.5-0.5h-1.9
			C15.5,15.3,15.3,15.5,15.3,15.8z"/>
		<path class="st0" d="M11.5,2.4c0-1.3-1.1-2.4-2.4-2.4S6.7,1.1,6.7,2.4c0,1.3,1.1,2.4,2.4,2.4S11.5,3.7,11.5,2.4z M7.6,2.4
			C7.6,1.6,8.3,1,9.1,1c0.8,0,1.4,0.6,1.4,1.4c0,0.8-0.6,1.4-1.4,1.4C8.3,3.8,7.6,3.2,7.6,2.4z"/>
		<path class="st0" d="M7.2,9.1c0-1.3-1.1-2.4-2.4-2.4S2.4,7.8,2.4,9.1c0,1.3,1.1,2.4,2.4,2.4S7.2,10.4,7.2,9.1z M3.3,9.1
			c0-0.8,0.6-1.4,1.4-1.4s1.4,0.6,1.4,1.4c0,0.8-0.6,1.4-1.4,1.4S3.3,9.9,3.3,9.1z"/>
		<path class="st0" d="M14.8,15.8c0-1.3-1.1-2.4-2.4-2.4S10,14.4,10,15.8c0,1.3,1.1,2.4,2.4,2.4S14.8,17.1,14.8,15.8z M11,15.8
			c0-0.8,0.6-1.4,1.4-1.4c0.8,0,1.4,0.6,1.4,1.4c0,0.8-0.6,1.4-1.4,1.4C11.6,17.2,11,16.5,11,15.8z"/>
	</g>
</g>
</svg>
