<?xml version="1.0" encoding="utf-8"?>
<!-- Generator: Adobe Illustrator 21.1.0, SVG Export Plug-In . SVG Version: 6.00 Build 0)  -->
<svg version="1.1" id="Layer_1" xmlns="http://www.w3.org/2000/svg" xmlns:xlink="http://www.w3.org/1999/xlink" x="0px" y="0px"
	 viewBox="0 0 32.1 32.1" style="enable-background:new 0 0 32.1 32.1;" xml:space="preserve">
<style type="text/css">
	.st0{fill:#63D500;}
	.st1{fill:#FDFDFD;}
</style>
<g>
	<circle class="st0" cx="16" cy="16" r="16"/>
	<g>
		<path class="st1" d="M19.1,22.1c0.1,0.1,0.1,0.1,0,0.3c-0.1,0.2-1.9,3-5.6,3c-0.9,0-1.1-0.4-1.1-0.9c0-0.5,0.5-1.8,1.7-5.4
			l0.8-2.3c0.3-0.7,0.4-1.3,0.4-1.6c0-0.2-0.1-0.4-0.4-0.4c-0.5,0-1.8,1.5-2.1,1.9c-0.1,0.1-0.2,0.1-0.3,0l-0.3-0.3
			c-0.1-0.1-0.1-0.2-0.1-0.3c0.1-0.2,2.4-3.5,5.5-3.5c0.9,0,1.3,0.5,1.3,1c0,0.6-0.3,1.5-0.9,3.2l-1.6,4.4c-0.4,1.1-0.5,1.5-0.5,1.8
			c0,0.2,0.1,0.4,0.4,0.4c0.6,0,2-1.5,2.1-1.8c0.1-0.1,0.2-0.1,0.2,0L19.1,22.1z M20,8c0,0.9-0.9,1.9-2,1.9c-1.1,0-1.8-0.7-1.8-1.8
			c0-0.9,0.8-1.8,1.8-1.8C19.3,6.4,20,7.1,20,8z"/>
	</g>
</g>
</svg>
