<?xml version="1.0" encoding="utf-8"?>
<!-- Generator: Adobe Illustrator 21.1.0, SVG Export Plug-In . SVG Version: 6.00 Build 0)  -->
<svg version="1.1" id="Layer_1" xmlns="http://www.w3.org/2000/svg" xmlns:xlink="http://www.w3.org/1999/xlink" x="0px" y="0px"
	 viewBox="0 0 20 16" style="enable-background:new 0 0 20 16;" xml:space="preserve">
<style type="text/css">
	.st0{fill:#474747;}
</style>
<g>
	<g>
		<path class="st0" d="M16.4,2.5H3.6c-1.2,0-2.2,0.9-2.2,2.1v6.8c0,1.2,1,2.1,2.2,2.1h12.8c1.2,0,2.2-0.9,2.2-2.1V4.6
			C18.6,3.4,17.6,2.5,16.4,2.5z M17.6,11.4c0,0.6-0.5,1.1-1.2,1.1H3.6c-0.7,0-1.2-0.5-1.2-1.1V4.6c0-0.6,0.5-1.1,1.2-1.1h12.8
			c0.7,0,1.2,0.5,1.2,1.1V11.4z"/>
	</g>
	<g>
		<path class="st0" d="M8.5,8.8c0,0-0.4,0-0.8-0.1c0,1.5-0.3,2.4-0.8,2.7V9.8c0.1,0,0.2-0.1,0.2-0.2V9.4c0-0.1-0.1-0.2-0.2-0.2H6.3
			c-0.1,0-0.2,0.1-0.2,0.2v0.2c0,0.1,0.1,0.2,0.2,0.2v1.6c-0.5-0.3-0.7-1.2-0.8-2.7c-0.5,0-0.8,0.1-0.8,0.1c-0.5,0-1,0.4-1,1V11
			c0,0.5,1.5,0.8,2.9,0.8c1.4,0,2.8-0.2,2.8-0.8V9.8C9.5,9.2,9,8.8,8.5,8.8z"/>
	</g>
	<g>
		<path class="st0" d="M6.6,8.8c0.7,0,1.7-0.9,1.7-2.1c0-1.2-0.8-2.1-1.7-2.1S4.9,5.5,4.9,6.7C4.9,7.9,5.9,8.8,6.6,8.8z M5.3,6.2
			c0-0.1,0.1-0.2,0.1-0.2C5.6,5.8,5.7,5.6,6,6c0.3,0.4,1.3,0.6,2,0.6c0,0,0,0.1,0,0.1c0,0.9-0.8,1.7-1.4,1.7S5.2,7.6,5.2,6.7
			C5.2,6.5,5.3,6.4,5.3,6.2z"/>
	</g>
	<g>
		<rect x="11" y="8.4" class="st0" width="4.8" height="0.9"/>
	</g>
	<g>
		<rect x="13.7" y="6.8" class="st0" width="2.1" height="0.9"/>
	</g>
	<g>
		<rect x="11.9" y="5.3" class="st0" width="3.9" height="0.9"/>
	</g>
	<g>
		<rect x="13.7" y="9.8" class="st0" width="2.1" height="0.9"/>
	</g>
	<g>
		<rect x="11.7" y="9.8" class="st0" width="1.1" height="0.9"/>
	</g>
</g>
<g>
	<g>
		<circle class="st0" cx="-106.1" cy="25.8" r="0.8"/>
	</g>
	<g>
		<circle class="st0" cx="-119.5" cy="25.8" r="0.8"/>
	</g>
	<g>
		<path class="st0" d="M-121.1,19.9c0,0.9,0.7,1.7,1.7,1.7h5.8v3.3h-4.2v1.7h10v-1.7h-4.2v-3.3h5.8c0.9,0,1.7-0.7,1.7-1.7v-3.3
			h-16.7V19.9z M-107.8,18.3c0.5,0,0.8,0.4,0.8,0.8c0,0.5-0.4,0.8-0.8,0.8c-0.5,0-0.8-0.4-0.8-0.8
			C-108.6,18.6-108.2,18.3-107.8,18.3z M-110.3,18.3c0.5,0,0.8,0.4,0.8,0.8c0,0.5-0.4,0.8-0.8,0.8c-0.5,0-0.8-0.4-0.8-0.8
			C-111.1,18.6-110.7,18.3-110.3,18.3z M-118.6,18.3h4.2v1.7h-4.2V18.3z"/>
	</g>
	<g>
		<path class="st0" d="M-106.1,9.9h-13.4c-0.9,0-1.7,0.7-1.7,1.7v3.3h16.7v-3.3C-104.4,10.7-105.2,9.9-106.1,9.9z M-114.5,13.2h-4.2
			v-1.7h4.2V13.2z M-110.3,13.2c-0.5,0-0.8-0.4-0.8-0.8c0-0.5,0.4-0.8,0.8-0.8c0.5,0,0.8,0.4,0.8,0.8
			C-109.4,12.9-109.8,13.2-110.3,13.2z M-107.8,13.2c-0.5,0-0.8-0.4-0.8-0.8c0-0.5,0.4-0.8,0.8-0.8c0.5,0,0.8,0.4,0.8,0.8
			C-106.9,12.9-107.3,13.2-107.8,13.2z"/>
	</g>
</g>
<g>
	<g>
		<path class="st0" d="M113,22.7c0,1,0.8,1.8,1.8,1.8h14.8c1,0,1.8-0.8,1.8-1.8v-5.5H113V22.7z M129.6,12h-14.8
			c-1,0-1.8,0.8-1.8,1.8v0.5h18.4v-0.5C131.4,12.8,130.6,12,129.6,12z"/>
	</g>
</g>
</svg>
