<?xml version="1.0" encoding="utf-8"?>
<!-- Generator: Adobe Illustrator 21.1.0, SVG Export Plug-In . SVG Version: 6.00 Build 0)  -->
<svg version="1.1" id="Layer_1" xmlns="http://www.w3.org/2000/svg" xmlns:xlink="http://www.w3.org/1999/xlink" x="0px" y="0px"
	 viewBox="0 0 20 16" style="enable-background:new 0 0 20 16;" xml:space="preserve">
<style type="text/css">
	.st0{fill:#474747;}
</style>
<g>
	<g>
		<path class="st0" d="M113,22.7c0,1,0.8,1.8,1.8,1.8h14.8c1,0,1.8-0.8,1.8-1.8v-5.5H113V22.7z M129.6,12h-14.8
			c-1,0-1.8,0.8-1.8,1.8v0.5h18.4v-0.5C131.4,12.8,130.6,12,129.6,12z"/>
	</g>
</g>
<g>
	<g>
		<circle class="st0" cx="16" cy="14.8" r="0.8"/>
	</g>
	<g>
		<circle class="st0" cx="4" cy="14.8" r="0.8"/>
	</g>
	<g>
		<path class="st0" d="M2.5,9.5C2.5,10.3,3.2,11,4,11h5.3v3H5.5v1.5h9V14h-3.8v-3H16c0.8,0,1.5-0.7,1.5-1.5v-3h-15V9.5z M14.5,8
			c0.4,0,0.8,0.3,0.8,0.8c0,0.4-0.3,0.8-0.8,0.8c-0.4,0-0.8-0.3-0.8-0.8C13.8,8.3,14.1,8,14.5,8z M12.3,8C12.7,8,13,8.3,13,8.8
			c0,0.4-0.3,0.8-0.8,0.8c-0.4,0-0.8-0.3-0.8-0.8C11.5,8.3,11.8,8,12.3,8z M4.7,8h3.8v1.5H4.7V8z"/>
	</g>
	<g>
		<path class="st0" d="M16,0.5H4C3.2,0.5,2.5,1.2,2.5,2v3h15V2C17.5,1.2,16.8,0.5,16,0.5z M8.5,3.5H4.7V2h3.8V3.5z M12.3,3.5
			c-0.4,0-0.8-0.3-0.8-0.8c0-0.4,0.3-0.8,0.8-0.8C12.7,2,13,2.3,13,2.7C13,3.2,12.7,3.5,12.3,3.5z M14.5,3.5c-0.4,0-0.8-0.3-0.8-0.8
			c0-0.4,0.3-0.8,0.8-0.8c0.4,0,0.8,0.3,0.8,0.8C15.3,3.2,14.9,3.5,14.5,3.5z"/>
	</g>
</g>
</svg>
