<?xml version="1.0" encoding="utf-8"?>
<!-- Generator: Adobe Illustrator 21.1.0, SVG Export Plug-In . SVG Version: 6.00 Build 0)  -->
<svg version="1.1" id="Layer_1" xmlns="http://www.w3.org/2000/svg" xmlns:xlink="http://www.w3.org/1999/xlink" x="0px" y="0px"
	 viewBox="0 0 20 16" style="enable-background:new 0 0 20 16;" xml:space="preserve">
<style type="text/css">
	.st0{fill:#474747;}
</style>
<g>
	<g>
		<path class="st0" d="M10,0C5.6,0,2,3.6,2,8c0,4.4,3.6,8,8,8c4.4,0,8-3.6,8-8C18,3.6,14.4,0,10,0z M10,14.5c-3.6,0-6.5-2.9-6.5-6.5
			c0-3.6,2.9-6.5,6.5-6.5c3.6,0,6.5,2.9,6.5,6.5C16.5,11.6,13.6,14.5,10,14.5z"/>
	</g>
	<g>
		<path class="st0" d="M11.2,8.4c0-0.1,0.1-0.2,0.1-0.4c0-0.5-0.3-0.9-0.6-1.1V2.7c0-0.4-0.3-0.7-0.6-0.7c-0.3,0-0.6,0.3-0.6,0.7
			v4.2C9,7.1,8.8,7.5,8.8,8c0,0.7,0.5,1.2,1.2,1.2c0.1,0,0.3,0,0.4-0.1l1.8,1.8c0.2,0.2,0.5,0.2,0.7-0.1c0.2-0.2,0.2-0.5,0.1-0.7
			L11.2,8.4z"/>
	</g>
	<g>
		<path class="st0" d="M15.4,7.4c-0.3,0-0.6,0.3-0.6,0.6c0,0.3,0.3,0.6,0.6,0.6C15.8,8.6,16,8.3,16,8C16,7.7,15.8,7.4,15.4,7.4z"/>
	</g>
	<g>
		<path class="st0" d="M10,12.8c-0.3,0-0.6,0.3-0.6,0.6c0,0.3,0.3,0.6,0.6,0.6c0.3,0,0.6-0.3,0.6-0.6C10.6,13,10.3,12.8,10,12.8z"/>
	</g>
	<g>
		<path class="st0" d="M4.7,7.4C4.4,7.4,4.2,7.7,4.2,8c0,0.3,0.3,0.6,0.6,0.6c0.3,0,0.6-0.3,0.6-0.6C5.3,7.7,5.1,7.4,4.7,7.4z"/>
	</g>
</g>
</svg>
