<?xml version="1.0" encoding="utf-8"?>
<!-- Generator: Adobe Illustrator 21.1.0, SVG Export Plug-In . SVG Version: 6.00 Build 0)  -->
<svg version="1.1" id="Layer_1" xmlns="http://www.w3.org/2000/svg" xmlns:xlink="http://www.w3.org/1999/xlink" x="0px" y="0px"
	 viewBox="0 0 40 40" style="enable-background:new 0 0 40 40;" xml:space="preserve">
<style type="text/css">
	.st0{fill:#5CD4CD;}
</style>
<g>
	<path class="st0" d="M17.3,23c-0.2,0.1-0.3,0.4-0.2,0.6c0,0.1,0.1,0.1,0.2,0.2c0.1,0.1,0.3,0.1,0.4,0c1.4-0.8,3.2-0.9,4.7-0.1
		c0.2,0.1,0.5,0,0.6-0.2c0.1-0.2,0-0.5-0.2-0.6C21.1,22,19,22,17.3,23z"/>
	<circle class="st0" cx="17.3" cy="18.3" r="0.5"/>
	<circle class="st0" cx="22.5" cy="18.3" r="0.7"/>
	<circle class="st0" cx="17.3" cy="18.3" r="0.7"/>
	<path class="st0" d="M20,28.7c-4.5,0-8.2-3.7-8.2-8.2s3.7-8.2,8.2-8.2c4.5,0,8.2,3.7,8.2,8.2S24.5,28.7,20,28.7z M20,13.1
		c-4.1,0-7.4,3.3-7.4,7.4s3.3,7.4,7.4,7.4c4.1,0,7.4-3.3,7.4-7.4S24.1,13.1,20,13.1z"/>
</g>
</svg>
