<?xml version="1.0" encoding="utf-8"?>
<!-- Generator: Adobe Illustrator 21.1.0, SVG Export Plug-In . SVG Version: 6.00 Build 0)  -->
<svg version="1.1" id="Layer_1" xmlns="http://www.w3.org/2000/svg" xmlns:xlink="http://www.w3.org/1999/xlink" x="0px" y="0px"
	 viewBox="0 0 40 40" style="enable-background:new 0 0 40 40;" xml:space="preserve">
<style type="text/css">
	.st0{fill:#5CD4CD;}
</style>
<g>
	<g>
		<g>
			<path class="st0" d="M19.1,17.5c-1.1,0-1.9-0.9-1.9-1.9s0.9-1.9,1.9-1.9s1.9,0.9,1.9,1.9S20.1,17.5,19.1,17.5z M19.1,14.6
				c-0.6,0-1.1,0.5-1.1,1.1s0.5,1.1,1.1,1.1s1.1-0.5,1.1-1.1S19.7,14.6,19.1,14.6z"/>
			<path class="st0" d="M23.3,21.6c-1.1,0-1.9-0.9-1.9-1.9s0.9-1.9,1.9-1.9s1.9,0.9,1.9,1.9S24.4,21.6,23.3,21.6z M23.3,18.6
				c-0.6,0-1.1,0.5-1.1,1.1s0.5,1.1,1.1,1.1s1.1-0.5,1.1-1.1S23.9,18.6,23.3,18.6z"/>
			
				<rect x="16.8" y="17.3" transform="matrix(0.7097 -0.7045 0.7045 0.7097 -6.2956 20.1068)" class="st0" width="8.8" height="0.9"/>
		</g>
	</g>
	<g>
		<g>
			<g>
				<polygon class="st0" points="23.7,34 21.4,28.6 22.2,28.2 24,32.4 26,30.2 28.9,30.3 27.4,26.8 28.2,26.5 30.2,31.2 26.3,31.1 
									"/>
			</g>
			<g>
				<polygon class="st0" points="19.1,34 16.4,31.1 12.5,31.3 14.6,26.4 15.3,26.7 13.8,30.4 16.8,30.3 18.8,32.4 20.5,28.3 
					21.3,28.6 				"/>
			</g>
		</g>
		<path class="st0" d="M21.4,29c-0.5,0-0.8-0.4-1.1-0.7c-0.2-0.2-0.4-0.4-0.5-0.4c-0.1,0-0.4,0.1-0.6,0.2c-0.4,0.2-0.8,0.4-1.3,0.3
			c-0.4-0.1-0.7-0.6-0.9-1c-0.1-0.2-0.2-0.5-0.3-0.6c-0.1-0.1-0.4,0-0.7,0c-0.4,0.1-0.9,0.2-1.3-0.1c-0.4-0.3-0.5-0.8-0.5-1.2
			c0-0.2-0.1-0.6-0.2-0.6c-0.1-0.1-0.4-0.1-0.6-0.2c-0.4-0.1-0.9-0.1-1.2-0.5C11.8,24,11.9,23.5,12,23c0-0.2,0.1-0.6,0-0.7
			c-0.1-0.1-0.4-0.2-0.6-0.3c-0.4-0.2-0.9-0.4-1-0.9c-0.1-0.4,0.1-0.9,0.3-1.3c0.1-0.2,0.3-0.5,0.2-0.6c0-0.1-0.3-0.3-0.4-0.5
			c-0.3-0.3-0.7-0.7-0.7-1.1c0-0.5,0.4-0.8,0.7-1.1c0.2-0.2,0.4-0.4,0.4-0.5c0-0.1-0.1-0.4-0.2-0.6c-0.2-0.4-0.4-0.8-0.3-1.3
			c0.1-0.4,0.6-0.7,1-0.9c0.2-0.1,0.5-0.2,0.6-0.3c0.1-0.1,0-0.4,0-0.7c-0.1-0.4-0.2-0.9,0.1-1.3c0.3-0.4,0.8-0.4,1.2-0.5
			c0.2,0,0.6-0.1,0.6-0.2c0.1-0.1,0.1-0.4,0.2-0.6c0.1-0.4,0.1-0.9,0.5-1.2c0.4-0.3,0.9-0.2,1.3-0.1c0.2,0,0.6,0.1,0.7,0
			C16.7,8.3,16.9,8,17,7.8c0.2-0.4,0.4-0.9,0.9-1c0.4-0.1,0.9,0.1,1.3,0.3c0.2,0.1,0.5,0.3,0.6,0.2c0.1,0,0.3-0.3,0.5-0.4
			c0.3-0.3,0.7-0.7,1.1-0.7s0.8,0.4,1.1,0.7c0.2,0.2,0.4,0.4,0.5,0.4c0.1,0,0.4-0.1,0.6-0.2c0.4-0.2,0.8-0.4,1.3-0.3
			c0.5,0.1,0.7,0.6,0.9,1C25.9,8,26,8.3,26.1,8.4c0.1,0.1,0.4,0,0.7,0c0.4-0.1,0.9-0.2,1.3,0.1c0.4,0.3,0.5,0.8,0.5,1.2
			c0,0.2,0.1,0.6,0.2,0.6c0.1,0.1,0.4,0.1,0.6,0.2c0.4,0.1,0.9,0.1,1.2,0.5c0.3,0.4,0.2,0.9,0.1,1.3c0,0.2-0.1,0.5,0,0.7
			c0.1,0.1,0.4,0.3,0.6,0.3c0.4,0.2,0.9,0.4,1,0.9c0.1,0.4-0.1,0.9-0.3,1.3c-0.1,0.2-0.3,0.5-0.3,0.6c0,0.1,0.3,0.3,0.4,0.5
			c0.3,0.3,0.7,0.7,0.7,1.1c0,0.5-0.4,0.8-0.7,1.1c-0.2,0.2-0.4,0.4-0.4,0.5c0,0.1,0.1,0.4,0.2,0.6c0.2,0.4,0.4,0.8,0.3,1.3
			c-0.1,0.4-0.6,0.7-1,0.9c-0.2,0.1-0.5,0.2-0.6,0.3c-0.1,0.1,0,0.4,0,0.7c0.1,0.4,0.2,0.9-0.1,1.3c-0.3,0.4-0.8,0.4-1.2,0.5
			c-0.2,0-0.6,0.1-0.6,0.2c-0.1,0.1-0.1,0.4-0.2,0.6c-0.1,0.4-0.1,0.9-0.5,1.2c-0.4,0.3-0.9,0.2-1.3,0.1c-0.2,0-0.6-0.1-0.7,0
			c-0.1,0.1-0.2,0.3-0.4,0.6c-0.2,0.4-0.4,0.9-0.9,1c-0.4,0.1-0.9-0.1-1.3-0.3c-0.2-0.1-0.5-0.3-0.6-0.2c-0.1,0-0.3,0.3-0.5,0.4
			C22.2,28.7,21.9,29,21.4,29z M19.7,27.1c0,0,0.1,0,0.2,0c0.4,0.1,0.7,0.4,1,0.7c0.2,0.2,0.4,0.4,0.5,0.4s0.4-0.3,0.5-0.4
			c0.3-0.3,0.6-0.6,1-0.7c0.4-0.1,0.8,0.1,1.2,0.3c0.2,0.1,0.5,0.3,0.6,0.2c0.1,0,0.3-0.4,0.4-0.6c0.2-0.4,0.4-0.8,0.7-0.9
			c0.4-0.2,0.8-0.1,1.2,0c0.2,0,0.6,0.1,0.7,0c0.1-0.1,0.1-0.4,0.2-0.6c0.1-0.4,0.1-0.8,0.4-1.1s0.7-0.3,1.1-0.4
			c0.2,0,0.6-0.1,0.7-0.2c0.1-0.1,0-0.5,0-0.7c-0.1-0.4-0.1-0.8,0-1.2c0.2-0.4,0.6-0.5,0.9-0.7c0.2-0.1,0.5-0.3,0.6-0.4
			c0-0.1-0.1-0.4-0.2-0.6c-0.2-0.4-0.4-0.7-0.3-1.2c0.1-0.4,0.4-0.7,0.7-1c0.2-0.2,0.4-0.4,0.4-0.5c0-0.1-0.3-0.4-0.4-0.5
			c-0.3-0.3-0.6-0.6-0.7-1c-0.1-0.4,0.2-0.8,0.3-1.2c0.1-0.2,0.3-0.5,0.2-0.6c0-0.1-0.4-0.3-0.6-0.4c-0.4-0.2-0.8-0.4-0.9-0.7
			c-0.2-0.4-0.1-0.8,0-1.2c0-0.2,0.1-0.6,0-0.7c-0.1-0.1-0.4-0.1-0.7-0.2c-0.4-0.1-0.8-0.1-1.1-0.4c-0.3-0.3-0.3-0.7-0.4-1.1
			c0-0.2-0.1-0.6-0.2-0.6c-0.1-0.1-0.5,0-0.7,0c-0.4,0.1-0.8,0.1-1.2,0C25.4,9,25.2,8.6,25,8.2c-0.1-0.2-0.3-0.5-0.4-0.6
			c-0.1,0-0.4,0.1-0.6,0.2c-0.4,0.2-0.8,0.4-1.2,0.3c-0.4-0.1-0.7-0.4-1-0.7c-0.2-0.2-0.4-0.4-0.5-0.4S21,7.4,20.8,7.5
			c-0.3,0.3-0.6,0.6-1,0.7c-0.4,0.1-0.8-0.1-1.2-0.3c-0.2-0.1-0.5-0.3-0.6-0.2c-0.1,0-0.3,0.4-0.4,0.6C17.5,8.6,17.4,9,17,9.1
			c-0.4,0.2-0.8,0.1-1.2,0c-0.2,0-0.6-0.1-0.7,0C15,9.2,15,9.6,15,9.8c-0.1,0.4-0.1,0.8-0.4,1.1c-0.3,0.3-0.7,0.3-1.1,0.4
			c-0.2,0-0.6,0.1-0.7,0.2c-0.1,0.1,0,0.5,0,0.7c0.1,0.4,0.1,0.8,0,1.2c-0.2,0.4-0.6,0.5-0.9,0.7c-0.2,0.1-0.5,0.3-0.6,0.4
			c0,0.1,0.1,0.4,0.2,0.6c0.2,0.4,0.4,0.7,0.3,1.2c-0.1,0.4-0.4,0.7-0.7,1c-0.2,0.2-0.4,0.4-0.4,0.5c0,0.1,0.3,0.4,0.4,0.5
			c0.3,0.3,0.6,0.6,0.7,1c0.1,0.4-0.2,0.8-0.3,1.2c-0.1,0.2-0.3,0.5-0.2,0.6c0,0.1,0.4,0.3,0.6,0.4c0.4,0.2,0.8,0.4,0.9,0.7
			c0.2,0.4,0.1,0.8,0,1.2c0,0.2-0.1,0.6,0,0.7c0.1,0.1,0.4,0.1,0.7,0.2c0.4,0.1,0.8,0.1,1.1,0.4c0.3,0.3,0.3,0.7,0.4,1.1
			c0,0.2,0.1,0.6,0.2,0.6c0.1,0.1,0.5,0,0.7,0c0.4-0.1,0.8-0.1,1.2,0c0.4,0.2,0.5,0.6,0.7,0.9c0.1,0.2,0.3,0.5,0.4,0.6
			c0.1,0,0.4-0.1,0.6-0.2C19,27.3,19.4,27.1,19.7,27.1z"/>
		<path class="st0" d="M21.4,25.2c-4.2,0-7.6-3.4-7.6-7.5s3.4-7.5,7.6-7.5c4.2,0,7.6,3.4,7.6,7.5S25.6,25.2,21.4,25.2z M21.4,11
			c-3.7,0-6.7,3-6.7,6.7c0,3.7,3,6.7,6.7,6.7c3.7,0,6.7-3,6.7-6.7C28.1,14,25.1,11,21.4,11z"/>
	</g>
</g>
</svg>
