<?xml version="1.0" encoding="utf-8"?>
<!-- Generator: Adobe Illustrator 21.1.0, SVG Export Plug-In . SVG Version: 6.00 Build 0)  -->
<svg version="1.1" id="Layer_1" xmlns="http://www.w3.org/2000/svg" xmlns:xlink="http://www.w3.org/1999/xlink" x="0px" y="0px"
	 viewBox="0 0 40 40" style="enable-background:new 0 0 40 40;" xml:space="preserve">
<style type="text/css">
	.st0{fill:#5CD4CD;}
</style>
<g>
	<path class="st0" d="M24.8,23.8c-0.2,0-0.3,0.1-0.3,0.3v4.1c0,0.2-0.1,0.3-0.3,0.3H12.4c-0.2,0-0.3-0.1-0.3-0.3V15.9h3.4
		c0.6,0,1-0.5,1-1v-3.4h7.6c0.2,0,0.3,0.1,0.3,0.3v5.5c0,0.2,0.1,0.3,0.3,0.3c0.2,0,0.3-0.1,0.3-0.3v-5.5c0-0.6-0.5-1-1-1h-7.6
		c-0.5,0-1.1,0.3-1.4,0.6L12,14.4c-0.3,0.3-0.6,1-0.6,1.4v12.4c0,0.6,0.5,1,1,1h11.7c0.6,0,1-0.5,1-1v-4.1
		C25.2,23.9,25,23.8,24.8,23.8z M15.6,11.8c0.1-0.1,0.1-0.1,0.3-0.2v3.2c0,0.2-0.1,0.3-0.3,0.3h-3.2c0.1-0.1,0.1-0.2,0.2-0.3
		L15.6,11.8z"/>
	<path class="st0" d="M26.8,24.4l-1.9-1.9L23,24.4l-1.8-1.8l1.9-1.9l-1.9-1.9l1.8-1.8l1.9,1.9l1.9-1.9l1.8,1.8l-1.9,1.9l1.9,1.9
		L26.8,24.4z M24.9,21.8l1.9,1.9l1.1-1.1l-1.9-1.9l1.9-1.9l-1.1-1.1l-1.9,1.9L23,17.6l-1.1,1.1l1.9,1.9l-1.9,1.9l1.1,1.1L24.9,21.8z
		"/>
</g>
</svg>
