<?xml version="1.0" encoding="utf-8"?>
<!-- Generator: Adobe Illustrator 21.1.0, SVG Export Plug-In . SVG Version: 6.00 Build 0)  -->
<svg version="1.1" id="Layer_1" xmlns="http://www.w3.org/2000/svg" xmlns:xlink="http://www.w3.org/1999/xlink" x="0px" y="0px"
	 viewBox="0 0 40 40" style="enable-background:new 0 0 40 40;" xml:space="preserve">
<style type="text/css">
	.st0{fill:#5CD4CD;}
</style>
<g>
	<g>
		<path class="st0" d="M6.9,20H6c0-0.1,0-0.3,0-0.4h0.9C6.9,19.7,6.9,19.9,6.9,20z"/>
		<path class="st0" d="M19.6,6.7V5.8c0.1,0,0.3,0,0.4,0v0.9C19.9,6.7,19.7,6.7,19.6,6.7z"/>
	</g>
	<path class="st0" d="M23.4,26.8L20,23.3l-3.4,3.5l-3.3-3.3l3.4-3.5l-3.4-3.5l3.3-3.3l3.4,3.5l3.4-3.5l3.3,3.3L23.3,20l3.4,3.5
		L23.4,26.8z M20,22.1l3.4,3.5l2-2.1L22,20l3.4-3.5l-2-2.1L20,17.9l-3.4-3.5l-2,2.1L18,20l-3.4,3.5l2,2.1L20,22.1z"/>
</g>
</svg>
