<?xml version="1.0" encoding="utf-8"?>
<!-- Generator: Adobe Illustrator 21.1.0, SVG Export Plug-In . SVG Version: 6.00 Build 0)  -->
<svg version="1.1" id="Layer_1" xmlns="http://www.w3.org/2000/svg" xmlns:xlink="http://www.w3.org/1999/xlink" x="0px" y="0px"
	 viewBox="0 0 40 40" style="enable-background:new 0 0 40 40;" xml:space="preserve">
<style type="text/css">
	.st0{fill:#5CD4CD;}
</style>
<g>
	<g>
		<path class="st0" d="M34,20.4l-0.9,0c0-0.1,0-0.3,0-0.4H34C34,20.1,34,20.3,34,20.4z"/>
		<path class="st0" d="M20,34.1v-0.9c0.1,0,0.3,0,0.4,0l0,0.9C20.3,34.1,20.1,34.1,20,34.1z"/>
	</g>
	<path class="st0" d="M17.7,26.8l-5.3-5.4l3.3-3.3l2,2.1l6.8-6.9l3.3,3.3L17.7,26.8z M13.6,21.4l4.1,4.2l8.9-9l-2-2.1l-6.8,6.9
		l-2-2.1L13.6,21.4z"/>
</g>
</svg>
