<?xml version="1.0" encoding="utf-8"?>
<!-- Generator: Adobe Illustrator 21.1.0, SVG Export Plug-In . SVG Version: 6.00 Build 0)  -->
<svg version="1.1" id="Layer_1" xmlns="http://www.w3.org/2000/svg" xmlns:xlink="http://www.w3.org/1999/xlink" x="0px" y="0px"
	 viewBox="0 0 40 40" style="enable-background:new 0 0 40 40;" xml:space="preserve">
<style type="text/css">
	.st0{fill:none;stroke:#5CD4CD;stroke-width:0.9178;stroke-miterlimit:10;}
	.st1{fill:#5CD4CD;}
</style>
<g>
	<g>
		<path class="st0" d="M19.5,11.9c-4.5,0-8.1,3.6-8.1,8.1c0,2.6,1.3,5,3.2,6.5"/>
		<polygon class="st0" points="19.6,14.1 19.6,9.5 23.4,11.8 		"/>
	</g>
	<g>
		<path class="st0" d="M20.5,28.1c4.5,0,8.1-3.6,8.1-8.1c0-2.6-1.3-5-3.2-6.5"/>
		<polygon class="st0" points="20.4,25.9 20.4,30.5 16.6,28.2 		"/>
	</g>
	<ellipse transform="matrix(0.7071 -0.7071 0.7071 0.7071 -8.7003 19.6715)" class="st1" cx="19.4" cy="20.3" rx="1.1" ry="1.1"/>
	<line class="st0" x1="25.6" y1="20.3" x2="19.3" y2="20.3"/>
	<line class="st0" x1="16.8" y1="18" x2="19.3" y2="20.3"/>
</g>
</svg>
