<?xml version="1.0" encoding="utf-8"?>
<!-- Generator: Adobe Illustrator 21.1.0, SVG Export Plug-In . SVG Version: 6.00 Build 0)  -->
<svg version="1.1" id="Layer_1" xmlns="http://www.w3.org/2000/svg" xmlns:xlink="http://www.w3.org/1999/xlink" x="0px" y="0px"
	 viewBox="0 0 20 22.9" style="enable-background:new 0 0 20 22.9;" xml:space="preserve">
<style type="text/css">
	.st0{fill:#303030;}
</style>
<g>
	<g>
		<g>
			<path class="st0" d="M878.5,583.5h-8.4c-2.3,0-4.2,1.9-4.2,4.2v2.8c0,2.3,1.9,4.2,4.2,4.2h0.7v4.2l4.8-4.2h2.9
				c2.3,0,4.2-1.9,4.2-4.2v-2.8C882.7,585.4,880.8,583.5,878.5,583.5z M870.7,590.9c-0.7,0-1.3-0.6-1.3-1.3c0-0.7,0.6-1.3,1.3-1.3
				c0.7,0,1.3,0.6,1.3,1.3C871.9,590.3,871.4,590.9,870.7,590.9z M874.7,590.9c-0.7,0-1.3-0.6-1.3-1.3c0-0.7,0.6-1.3,1.3-1.3
				c0.7,0,1.3,0.6,1.3,1.3C875.9,590.3,875.4,590.9,874.7,590.9z M878.5,590.9c-0.7,0-1.3-0.6-1.3-1.3c0-0.7,0.6-1.3,1.3-1.3
				c0.7,0,1.3,0.6,1.3,1.3C879.8,590.3,879.2,590.9,878.5,590.9z"/>
		</g>
	</g>
</g>
<g>
	<g>
		<g>
			<path class="st0" d="M15,3.5H5c-2.8,0-5,2.3-5,5v3.3c0,2.7,2.2,5,5,5h0.8v5l5.7-5H15c2.7,0,5-2.3,5-5V8.5C20,5.7,17.7,3.5,15,3.5
				z M5.7,12.2c-0.8,0-1.5-0.7-1.5-1.5c0-0.8,0.7-1.5,1.5-1.5c0.8,0,1.5,0.7,1.5,1.5C7.2,11.6,6.5,12.2,5.7,12.2z M10.4,12.2
				c-0.8,0-1.5-0.7-1.5-1.5c0-0.8,0.7-1.5,1.5-1.5c0.8,0,1.5,0.7,1.5,1.5C11.9,11.6,11.3,12.2,10.4,12.2z M15,12.2
				c-0.8,0-1.5-0.7-1.5-1.5c0-0.8,0.7-1.5,1.5-1.5c0.8,0,1.5,0.7,1.5,1.5C16.6,11.6,15.9,12.2,15,12.2z"/>
		</g>
	</g>
</g>
</svg>
