<?xml version="1.0" encoding="utf-8"?>
<!-- Generator: Adobe Illustrator 21.1.0, SVG Export Plug-In . SVG Version: 6.00 Build 0)  -->
<svg version="1.1" id="Layer_1" xmlns="http://www.w3.org/2000/svg" xmlns:xlink="http://www.w3.org/1999/xlink" x="0px" y="0px"
	 viewBox="0 0 20 22.9" style="enable-background:new 0 0 20 22.9;" xml:space="preserve">
<style type="text/css">
	.st0{fill:#303030;}
</style>
<g>
	<g>
		<g>
			<path class="st0" d="M0.3,16.4l6.2,6.2c0.4,0.4,1,0.4,1.4,0l7.5-7.5c0.4-0.4,0.7-6,0.3-6.3L14,7.3c-0.1-0.1-0.7-0.2-1.5-0.1
				c0.2,0.7,0.4,1.4,0.6,2c0.5,0.2,0.9,0.7,0.9,1.3c0,0.8-0.7,1.5-1.5,1.5c-0.8,0-1.5-0.7-1.5-1.5c0-0.2,0-0.4,0.1-0.6
				c-0.2-0.7-0.5-1.6-0.7-2.6C9,7.4,7.7,7.6,7.5,7.7L0.3,15C-0.1,15.4-0.1,16,0.3,16.4z M3,15.7l5.5-5.3l4.1,4.1l-5.5,5.2L3,15.7z"
				/>
		</g>
		<g>
			<path class="st0" d="M13.8,1.5c-0.8,0.3-1.3,0.8-1.6,1.5c-1.1,2.6,0.9,7.1,0.9,7.1c0.1,0.3,0,0.7-0.3,0.8c-0.1,0-0.2,0.1-0.3,0.1
				c-0.2,0-0.5-0.1-0.6-0.4c-0.1-0.2-2.2-5-0.9-8.1c0.4-1.1,1.2-1.8,2.4-2.2c2.7-1,4.8,0.3,5.8,1.8C20.4,4,20.3,6.4,19,7.7
				c-0.2,0.2-0.6,0.3-0.9,0c-0.2-0.2-0.3-0.6,0-0.9c1-1.1,0.8-2.9,0-4C17.1,1.4,15.5,0.9,13.8,1.5z"/>
		</g>
	</g>
</g>
</svg>
