<?xml version="1.0" encoding="utf-8"?>
<!-- Generator: Adobe Illustrator 21.1.0, SVG Export Plug-In . SVG Version: 6.00 Build 0)  -->
<svg version="1.1" id="Layer_1" xmlns="http://www.w3.org/2000/svg" xmlns:xlink="http://www.w3.org/1999/xlink" x="0px" y="0px"
	 viewBox="0 0 40 40" style="enable-background:new 0 0 40 40;" xml:space="preserve">
<style type="text/css">
	.st0{fill:#5CD4CD;}
</style>
<g>
	<g>
		<path class="st0" d="M24.3,19.8h-15c-0.8,0-1.3-0.6-1.3-1.3V9.7c0-0.8,0.6-1.3,1.3-1.3h15c0.8,0,1.4,0.6,1.4,1.3v8.7
			C25.6,19.3,25,19.8,24.3,19.8z M9.3,9.4c-0.3,0-0.5,0.2-0.5,0.5v8.7c0,0.3,0.2,0.4,0.5,0.4h15c0.3,0,0.5-0.1,0.5-0.4V9.9
			c0-0.3-0.2-0.5-0.5-0.5H9.3z"/>
		<g>
			<path class="st0" d="M15.3,16.8c-1.5,0-2.7-1.2-2.7-2.7s1.2-2.7,2.7-2.7s2.7,1.2,2.7,2.7S16.6,16.8,15.3,16.8z M15.3,12.1
				c-1.1,0-1.9,0.9-1.9,1.9c0,1.1,0.9,1.9,1.9,1.9s1.9-0.9,1.9-1.9C17,13,16.1,12.1,15.3,12.1z"/>
			<path class="st0" d="M18.4,16.8c-1.5,0-2.7-1.2-2.7-2.7s1.2-2.7,2.7-2.7s2.7,1.2,2.7,2.7C21.1,15.6,19.8,16.8,18.4,16.8z
				 M18.4,12.1c-1,0-1.9,0.9-1.9,1.9c0,1.1,0.9,1.9,1.9,1.9c1.1,0,2-0.9,2-1.9C20.2,13,19.5,12.1,18.4,12.1z"/>
		</g>
		<g>
			<rect x="10.4" y="13.6" class="st0" width="1.2" height="0.8"/>
			<rect x="21.9" y="13.6" class="st0" width="1.2" height="0.8"/>
		</g>
	</g>
	<g>
		<g>
			<g>
				<path class="st0" d="M34.1,32.5H15.7v-11h18.6v11H34.1z M16.5,31.6h16.9v-9.3H16.5V31.6z"/>
				<path class="st0" d="M31.5,30.9H18.5l-0.2-0.3c-0.1-0.3-0.4-0.6-0.8-0.8l-0.3-0.2v-5.4l0.3-0.1c0.3-0.2,0.6-0.4,0.8-0.8l0.2-0.3
					h12.9l0.1,0.3c0.1,0.3,0.4,0.6,0.7,0.8l0.3,0.1v5.4l-0.3,0.1c-0.3,0.2-0.6,0.4-0.7,0.8L31.5,30.9z M19,30h11.9
					c0.1-0.4,0.4-0.8,0.9-0.9v-4.2c-0.4-0.2-0.8-0.4-0.9-0.9H19c-0.1,0.4-0.4,0.8-0.9,0.9v4.2C18.5,29.2,18.9,29.5,19,30z"/>
				<path class="st0" d="M24.9,29.2c-1.2,0-2.1-1.1-2.1-2.3s0.9-2.3,2.1-2.3S27,25.8,27,27C27.1,28.2,26,29.2,24.9,29.2z M24.9,25.6
					c-0.8,0-1.4,0.6-1.4,1.3s0.6,1.4,1.4,1.4s1.4-0.6,1.4-1.4S25.6,25.6,24.9,25.6z"/>
				<g>
					<g>
						<rect x="28.1" y="26.5" class="st0" width="2.8" height="0.8"/>
					</g>
					<g>
						<rect x="18.7" y="26.5" class="st0" width="2.8" height="0.8"/>
					</g>
				</g>
			</g>
		</g>
		<g>
			<g>
				<polygon class="st0" points="8.8,24.3 8.2,23.7 10.6,21.4 12.9,23.7 12.3,24.3 10.6,22.6 				"/>
			</g>
			<path class="st0" d="M14.4,27.6h-1.8c-1.4,0-2.4-1.1-2.4-2.4v-2.9h0.8v2.9c0,0.9,0.8,1.6,1.7,1.6h1.8V27.6z"/>
		</g>
		<g>
			<g>
				<polygon class="st0" points="30.4,20.2 28.1,17.8 28.8,17.2 30.4,19 32.2,17.2 32.8,17.8 				"/>
			</g>
			<path class="st0" d="M30.9,19.2h-0.8v-2.9c0-0.9-0.8-1.7-1.6-1.7h-1.8v-0.8h1.8c1.3,0,2.4,1.1,2.4,2.4V19.2z"/>
		</g>
	</g>
</g>
</svg>
