<?xml version="1.0" encoding="utf-8"?>
<!-- Generator: Adobe Illustrator 21.1.0, SVG Export Plug-In . SVG Version: 6.00 Build 0)  -->
<svg version="1.1" id="Layer_1" xmlns="http://www.w3.org/2000/svg" xmlns:xlink="http://www.w3.org/1999/xlink" x="0px" y="0px"
	 viewBox="0 0 40 40" style="enable-background:new 0 0 40 40;" xml:space="preserve">
<style type="text/css">
	.st0{fill:#5CD4CD;stroke:#5CD4CD;stroke-miterlimit:10;}
</style>
<g>
	<g>
		<g>
			<path class="st0" d="M27.8,21.1h-0.5c0-0.1,0-0.2,0-0.3h0.5C27.8,20.9,27.8,21,27.8,21.1z"/>
		</g>
		<path class="st0" d="M20.1,28.4c-4.2,0-7.7-3.4-7.7-7.5c0-3.6,2.6-6.7,6.1-7.4c0.5-0.1,0.7-0.2,1.2-0.2l0,0.5
			c-0.5,0-0.7,0.1-1.2,0.2c-3.2,0.7-5.5,3.5-5.5,6.9c0,3.9,3.2,7,7.1,7c3.9,0,7.1-3.2,7.1-7h0.5C27.8,25,24.3,28.4,20.1,28.4z"/>
		<polygon class="st0" points="18.2,16 17.9,15.6 19.8,13.8 17.9,11.9 18.2,11.6 20.5,13.8 		"/>
	</g>
</g>
</svg>
