<?xml version="1.0" encoding="utf-8"?>
<!-- Generator: Adobe Illustrator 21.1.0, SVG Export Plug-In . SVG Version: 6.00 Build 0)  -->
<svg version="1.1" id="Layer_1" xmlns="http://www.w3.org/2000/svg" xmlns:xlink="http://www.w3.org/1999/xlink" x="0px" y="0px"
	 viewBox="0 0 40 40" style="enable-background:new 0 0 40 40;" xml:space="preserve">
<style type="text/css">
	.st0{fill:#5CD4CD;}
</style>
<g>
	<path class="st0" d="M29.2,25.5l-10.5,1.9c-0.4-0.8-1.3-1.4-2.3-1.4c0,0-0.1,0-0.1,0L12.7,11c-0.1-0.5-0.5-1-0.9-1.3
		c-0.5-0.3-1-0.4-1.6-0.2l-2.6,0.7c-0.2,0-0.3,0.2-0.3,0.4c0,0.1,0,0.1,0,0.2l0.5,1.5c0.1,0.2,0.2,0.3,0.4,0.3c0,0,0.1,0,0.1,0
		l2.3-0.5c0.2,0,0.4-0.3,0.3-0.5c-0.1-0.2-0.3-0.4-0.5-0.3l-1.9,0.4l-0.2-0.8l2.2-0.6c0.3-0.1,0.6,0,0.9,0.1
		c0.3,0.2,0.5,0.4,0.5,0.7l3.5,14.9c-1,0.4-1.7,1.3-1.7,2.5c0,1.5,1.2,2.6,2.6,2.6S19,30,19,28.6c0-0.1,0-0.3,0-0.4l10.4-1.9
		c0.2,0,0.4-0.3,0.3-0.5C29.6,25.6,29.4,25.4,29.2,25.5z M16.3,30.4c-1,0-1.8-0.8-1.8-1.8c0-1,0.8-1.8,1.8-1.8s1.8,0.8,1.8,1.8
		C18.2,29.6,17.3,30.4,16.3,30.4z"/>
	<circle class="st0" cx="16.3" cy="28.6" r="0.6"/>
	<path class="st0" d="M17.8,24.6c0.1,0.6,0.6,1,1.2,1c0.1,0,0.2,0,0.2,0l7.9-1.5c0.3-0.1,0.6-0.2,0.8-0.5c0.2-0.3,0.2-0.6,0.2-0.9
		l-1.6-7.5c-0.1-0.7-0.8-1.1-1.5-1l-7.9,1.5c-0.3,0.1-0.6,0.2-0.8,0.5c-0.2,0.3-0.2,0.6-0.2,0.9L17.8,24.6z M22.8,16.9l-1.9,0.4
		l-0.3-1.4l2-0.4L22.8,16.9z M17.1,16.6c0.1-0.1,0.1-0.1,0.3-0.2l2.4-0.4l0.4,1.8c0,0.2,0.2,0.3,0.4,0.3c0,0,0.1,0,0.1,0l2.7-0.5
		c0.1,0,0.2-0.1,0.3-0.2c0.1-0.1,0.1-0.2,0.1-0.3l-0.4-1.8l2-0.4c0,0,0.1,0,0.1,0c0.2,0,0.4,0.1,0.4,0.3l1.6,7.5
		c0,0.1,0,0.2-0.1,0.3c-0.1,0.1-0.1,0.1-0.3,0.2l-7.9,1.5c-0.2,0-0.5-0.1-0.5-0.3l-1.6-7.5C17.1,16.8,17.1,16.7,17.1,16.6z"/>
</g>
</svg>
