<?xml version="1.0" encoding="utf-8"?>
<!-- Generator: Adobe Illustrator 21.1.0, SVG Export Plug-In . SVG Version: 6.00 Build 0)  -->
<svg version="1.1" id="Layer_1" xmlns="http://www.w3.org/2000/svg" xmlns:xlink="http://www.w3.org/1999/xlink" x="0px" y="0px"
	 viewBox="0 0 82.8 44.7" style="enable-background:new 0 0 82.8 44.7;" xml:space="preserve">
<style type="text/css">
	.st0{fill:#F6D818;}
	.st1{fill:#63D500;}
	.st2{fill:#004c69;} <!-- -->
	.st4{fill:#f9f9f9;}
	.st3{fill:none;stroke:#F6D818;stroke-width:5.8745;stroke-linecap:round;stroke-miterlimit:10;}
</style>
<g>
	<g>
		<path class="st0" d="M27.5,24.5c-1,0-1.7-0.8-1.7-1.7v-9.5c0-6.3,2.8-9.7,7.8-9.7c3.1,0,5.4,1.8,6.5,5.1c1-4.4,3.8-6.4,7.2-6.4
			c5.4,0,8.2,3.4,8.2,10.7v9.8c0,1-0.8,1.7-1.7,1.7H27.5z M39,13.1c0-3.8-2.1-6.3-5.3-6.3c-3.4,0-5.1,2.2-5.1,6.5v8.1H39V13.1z
			 M52.7,13c0-5.3-1.6-7.5-5.6-7.5c-3.5,0-5.3,2.5-5.3,7.4v8.5h10.9V13z"/>
		<path class="st1" d="M56.7,12.9v9.8c0,1.6-1.3,3-3,3H27.5c-1.6,0-3-1.3-3-3v-9.5c0-6.9,3.1-9.3,8.8-9.3c2.7,0,5-0.5,6.5,1.6
			C41.3,2.6,43.9,1,47.3,1C51.6,1,56.7,3.1,56.7,12.9z M51.5,20.1V13c0-5.3-1.6-6.3-4.3-6.3c-1.8,0-4.1,0.6-4.1,6.1v7.3H51.5z
			 M37.8,20.1v-7.1c0-3.2-1.6-5.1-4.1-5.1c-1.8,0-3.9,0.6-3.9,5.3v6.9H37.8z"/>
	</g>
	<path class="st1" d="M26.9,24.1c-1,0-1.7-0.8-1.7-1.7v-7.6c0-6.9,3.3-10.9,9-10.9c5.9,0,9.1,3.9,9.1,11.3V21h10.3
		c0.8,0,1.4,0.5,1.4,1.4v0.4c0,0.9-0.5,1.3-1.4,1.3H26.9z M40.6,14.8c0-5.2-2.2-7.8-6.3-7.8C30.1,7,28,9.6,28,14.7V21h12.6V14.8z"/>
	<path class="st0" d="M34.2,2.6c6.7,0,10.4,4.4,10.4,12.5v6.3h9.1c1.5,0,2.6-0.5,2.6,1v0.4c0,1.6-1,2.5-2.6,2.5H26.9
		c-1.6,0-3-1.3-3-3v-7.6C24,7.1,27.8,2.6,34.2,2.6"/>
	<path class="st0" d="M41.8,14.8v7.4h-15v-7.5c0-7.7,4.7-8.9,7.5-8.9C37.1,5.8,41.8,6.9,41.8,14.8z"/>
	<path class="st2" d="M39.4,20.9v-6.1c0-6.6-3.8-6.6-5.1-6.6c-2.2,0-5.1,0.7-5.1,6.5v6.3H39.4z"/>
	<line class="st3" x1="26.9" y1="22.9" x2="53.7" y2="22.9"/>
</g>
<g>
	<g>
		<g>
			<path class="st4" d="M1.6,34.7c0-0.3,0.3-0.6,0.6-0.6h2.4c2.2,0,3.5,1,3.5,2.9c0,1.9-1.2,2.9-3.6,2.9H2.6v3.3
				c0,0.3-0.1,0.5-0.4,0.5H2c-0.3,0-0.4-0.1-0.4-0.5V34.7z M4.5,39C6.2,39,7,38.3,7,37c0-1.3-0.8-2-2.5-2h-2v4H4.5z"/>
			<path class="st1" d="M2.1,44.1H2c-0.5,0-0.8-0.3-0.8-0.8v-8.6c0-0.5,0.4-0.9,0.9-0.9h2.4c2.4,0,3.9,1.2,3.9,3.3
				c0,2.1-1.4,3.3-4,3.3H3v2.9C3,43.7,2.6,44.1,2.1,44.1z M2,43.3C2,43.3,2,43.3,2,43.3l0.2,0c0,0,0,0,0,0c0,0,0,0,0-0.1v-3.7h2.3
				c2.1,0,3.2-0.9,3.2-2.5c0-2.2-1.9-2.5-3.1-2.5H2.1C2,34.5,2,34.6,2,34.7L2,43.3C2,43.3,2,43.3,2,43.3z M4.5,39.4H2.2v-4.8h2.4
				c2.5,0,2.8,1.5,2.8,2.4S7.1,39.4,4.5,39.4z M3,38.6h1.6c2.1,0,2.1-1.2,2.1-1.6c0-0.7-0.2-1.6-2.1-1.6H3V38.6z"/>
		</g>
		<g>
			<path class="st4" d="M10.6,34.7c0-0.3,0.3-0.6,0.6-0.6h2.6c2.2,0,3.4,0.9,3.4,2.8c0,1.7-1.1,2.7-3.2,2.8l3,3.6
				c0.1,0.1-0.2,0.5-0.6,0.5c-0.2,0-0.4-0.1-0.6-0.4l-3.1-3.7h-1.2v3.6c0,0.3-0.1,0.5-0.4,0.5h-0.1c-0.3,0-0.4-0.1-0.4-0.5V34.7z
				 M13.9,38.8c1.6,0,2.3-0.8,2.3-1.9c0-1.2-0.8-1.9-2.4-1.9h-2.2v3.8H13.9z"/>
			<path class="st1" d="M16.5,44.1c-0.3,0-0.6-0.2-0.9-0.5l-3-3.6H12v3.2c0,0.5-0.3,0.8-0.8,0.8h-0.1c-0.5,0-0.8-0.3-0.8-0.8v-8.6
				c0-0.5,0.4-0.9,0.9-0.9h2.6c2.5,0,3.8,1.1,3.8,3.1c0,1.7-1,2.8-2.8,3.1l2.6,3c0.1,0.1,0.2,0.3,0,0.5C17.3,43.8,17,44.1,16.5,44.1
				z M11.2,39.2H13l3.2,3.8c0.2,0.2,0.3,0.2,0.3,0.2c0.1,0,0.1,0,0.1,0l-3.4-4l0.8,0c1.3,0,2.8-0.4,2.8-2.4c0-1.6-1-2.4-3-2.4h-2.6
				c-0.1,0-0.2,0.1-0.2,0.2v8.6c0,0,0,0.1,0,0.1c0,0,0,0,0,0h0.1c0,0,0,0,0,0c0,0,0,0,0-0.1V39.2z M13.9,39.2h-2.7v-4.5h2.6
				c2.4,0,2.8,1.4,2.8,2.3C16.6,38.3,15.6,39.2,13.9,39.2z M12,38.4h1.9c1.3,0,1.9-0.5,1.9-1.5c0-0.6-0.2-1.5-2-1.5H12V38.4z"/>
		</g>
		<g>
			<path class="st4" d="M19.7,34.5c0-0.3,0.1-0.5,0.4-0.5h0.1c0.3,0,0.4,0.2,0.4,0.5v8.7c0,0.3-0.1,0.5-0.4,0.5h-0.1
				c-0.3,0-0.4-0.1-0.4-0.5V34.5z"/>
			<path class="st1" d="M20.2,44.1h-0.1c-0.5,0-0.8-0.3-0.8-0.8v-8.7c0-0.5,0.3-0.8,0.8-0.8h0.1c0.5,0,0.8,0.3,0.8,0.8v8.7
				C21.1,43.7,20.7,44.1,20.2,44.1z M20.1,43.3C20.1,43.3,20.1,43.3,20.1,43.3l0.2,0c0,0,0,0,0,0c0,0,0,0,0-0.1v-8.7
				c0,0,0-0.1,0-0.1c0,0,0,0,0,0h-0.1c0,0,0,0,0,0c0,0,0,0,0,0.1L20.1,43.3C20.1,43.3,20.1,43.3,20.1,43.3z"/>
		</g>
		<g>
			<path class="st4" d="M27.8,33.9c2.3,0,3.5,1.3,3.5,1.9c0,0.5-0.6,0.6-0.6,0.6c-0.6-1-1.8-1.6-3-1.6c-2.2,0-3.7,1.7-3.7,4.1
				c0,2.4,1.6,4.1,3.7,4.1c1.4,0,2.6-0.7,3.1-1.9c0-0.1,0.6,0.1,0.6,0.6c0,0.6-1.3,2.1-3.8,2.1c-2.8,0-4.7-2-4.7-4.9
				C23.1,36,25,33.9,27.8,33.9z"/>
			<path class="st1" d="M27.8,44.2c-3,0-5.1-2.2-5.1-5.3c0-3.1,2.1-5.3,5.2-5.3c2.5,0,3.9,1.5,3.9,2.3c0,0.5-0.4,0.9-0.7,1
				c-0.3,0.1-0.5,0-0.6-0.1l0,0c-0.5-0.9-1.6-1.4-2.6-1.4c-2,0-3.3,1.5-3.3,3.7c0,2.1,1.4,3.7,3.3,3.7c1.3,0,2.3-0.6,2.7-1.6l0,0
				c0.1-0.1,0.2-0.3,0.5-0.3c0.4,0,0.9,0.3,0.9,1C31.9,42.5,30.4,44.2,27.8,44.2z M27.8,34.3c-2.6,0-4.4,1.9-4.4,4.6
				c0,2.7,1.8,4.5,4.3,4.5c2.3,0,3.4-1.4,3.4-1.8c0,0,0-0.1,0-0.1c-0.6,1.1-1.8,1.8-3.3,1.8c-2.4,0-4.1-1.9-4.1-4.5
				C23.7,36.3,25.4,34.4,27.8,34.3c1.2,0.1,2.4,0.7,3.1,1.6c0,0,0-0.1,0-0.1C31,35.5,29.9,34.3,27.8,34.3z M31.3,41.2L31.3,41.2
				C31.3,41.2,31.3,41.2,31.3,41.2C31.3,41.2,31.3,41.2,31.3,41.2z"/>
		</g>
		<g>
			<path class="st4" d="M33.5,34.7c0-0.3,0.3-0.6,0.6-0.6h5.7c0.3,0,0.5,0.1,0.5,0.4v0.1c0,0.3-0.2,0.4-0.5,0.4h-5.3v3.3h4.2
				c0.3,0,0.5,0.1,0.5,0.4v0.1c0,0.3-0.2,0.4-0.5,0.4h-4.2v3.5h5.3c0.3,0,0.5,0.1,0.5,0.4v0.1c0,0.3-0.2,0.4-0.5,0.4h-5.8
				c-0.3,0-0.6-0.3-0.6-0.6V34.7z"/>
			<path class="st1" d="M39.9,44h-5.8c-0.5,0-0.9-0.4-0.9-0.9v-8.4c0-0.5,0.4-0.9,0.9-0.9h5.7c0.5,0,0.8,0.3,0.8,0.8v0.1
				c0,0.5-0.3,0.8-0.8,0.8h-4.9v2.5h3.8c0.5,0,0.8,0.3,0.8,0.8v0.1c0,0.5-0.3,0.8-0.8,0.8h-3.8v2.8h5c0.5,0,0.8,0.3,0.8,0.8v0.1
				C40.7,43.7,40.4,44,39.9,44z M34.1,34.5c-0.1,0-0.2,0.1-0.2,0.2v8.4c0,0.1,0.1,0.2,0.2,0.2h5.8c0,0,0.1,0,0.1,0c0,0,0,0,0,0v-0.1
				c0,0,0,0,0,0c0,0,0,0-0.1,0h-5.7v-4.3h4.6c0,0,0.1,0,0.1,0c0,0,0,0,0,0v-0.1c0,0,0,0,0,0c0,0,0,0-0.1,0h-4.6v-4.1h5.6
				c0,0,0.1,0,0.1,0c0,0,0,0,0,0v-0.1c0,0,0,0,0,0c0,0,0,0-0.1,0H34.1z M40,43.1L40,43.1L40,43.1z M38.8,38.8L38.8,38.8L38.8,38.8z
				 M39.9,34.6L39.9,34.6L39.9,34.6z"/>
		</g>
		<g>
			<path class="st4" d="M42.4,34.7c0-0.3,0.3-0.6,0.6-0.6h3c2,0,3.1,0.9,3.1,2.5c0,1-0.6,1.7-1.6,2.1c1.4,0.3,2.1,1.2,2.1,2.3
				c0,1.7-1.1,2.6-3.4,2.6h-3.1c-0.3,0-0.6-0.3-0.6-0.6V34.7z M46,38.4c1.2,0,2-0.7,2-1.7c0-1.1-0.7-1.6-2.1-1.6h-2.6v3.4H46z
				 M46.1,42.7c1.7,0,2.4-0.5,2.4-1.8c0-1.1-0.8-1.7-2.4-1.7h-2.7v3.5H46.1z"/>
			<path class="st0" d="M46.1,44h-3.1c-0.5,0-0.9-0.4-0.9-0.9v-8.4c0-0.5,0.4-0.9,0.9-0.9h3c2.2,0,3.5,1.1,3.5,2.9
				c0,0.9-0.4,1.5-1,2c0.9,0.5,1.4,1.3,1.4,2.4C49.9,42.4,49.2,44,46.1,44z M42.9,34.5c-0.1,0-0.2,0.1-0.2,0.2v8.4
				c0,0.1,0.1,0.2,0.2,0.2h3.1c2.7,0,3-1.3,3-2.2c0-0.8-0.4-1.4-1.2-1.8c0.8,0.4,1,1.2,1,1.7c0,1.9-1.6,2.2-2.8,2.2H43v-4.3h3.1
				c0.1,0,0.2,0,0.3,0L46,38.8l0,0h-3v-4.1h3c2.1,0,2.5,1.3,2.5,2c0,0.6-0.2,1-0.5,1.4c0.5-0.3,0.8-0.8,0.8-1.4
				c0-1.4-0.9-2.1-2.7-2.1H42.9z M43.8,42.3h2.3c1.7,0,2-0.5,2-1.4c0-0.6-0.2-1.3-2-1.3h-2.3V42.3z M43.8,38H46c1,0,1.6-0.5,1.6-1.3
				c0-0.6-0.2-1.3-1.7-1.3h-2.2V38z"/>
		</g>
		<g>
			<path class="st4" d="M55.8,33.9c2.8,0,4.7,2,4.7,4.9c0,2.9-2,4.9-4.8,4.9c-2.8,0-4.7-2-4.7-4.9S53,33.9,55.8,33.9z M55.8,42.9
				c2.2,0,3.7-1.7,3.7-4c0-2.4-1.6-4.1-3.7-4.1s-3.7,1.7-3.7,4.1C52.1,41.2,53.6,42.9,55.8,42.9z"/>
			<path class="st0" d="M55.8,44.2c-3,0-5.1-2.2-5.1-5.3c0-1.5,0.5-2.9,1.4-3.8c0.9-1,2.2-1.5,3.7-1.5c3,0,5.1,2.2,5.1,5.3
				C60.9,42,58.8,44.2,55.8,44.2z M55.8,34.3c-2.6,0-4.4,1.9-4.4,4.6c0,2.7,1.7,4.5,4.3,4.5c2.6,0,4.4-1.9,4.4-4.6
				C60.1,36.1,58.4,34.3,55.8,34.3z M55.8,43.3c-2.4,0-4.1-1.9-4.1-4.5c0-2.6,1.7-4.4,4.1-4.4c2.4,0,4.1,1.9,4.1,4.5
				C59.9,41.5,58.2,43.3,55.8,43.3z M55.8,35.2c-1.9,0-3.3,1.5-3.3,3.7c0,2.2,1.4,3.7,3.3,3.7c1.9,0,3.3-1.5,3.3-3.7
				C59.1,36.7,57.7,35.2,55.8,35.2z"/>
		</g>
		<g>
			<path class="st4" d="M67.1,33.9c2.8,0,4.7,2,4.7,4.9c0,2.9-2,4.9-4.8,4.9c-2.8,0-4.7-2-4.7-4.9S64.3,33.9,67.1,33.9z M67.1,42.9
				c2.2,0,3.7-1.7,3.7-4c0-2.4-1.6-4.1-3.7-4.1s-3.7,1.7-3.7,4.1C63.4,41.2,64.9,42.9,67.1,42.9z"/>
			<path class="st0" d="M67.1,44.2c-3,0-5.1-2.2-5.1-5.3c0-1.5,0.5-2.9,1.4-3.8c0.9-1,2.2-1.5,3.7-1.5c3,0,5.1,2.2,5.1,5.3
				C72.2,42,70.1,44.2,67.1,44.2z M67.1,34.3c-2.6,0-4.4,1.9-4.4,4.6c0,2.7,1.7,4.5,4.3,4.5c2.6,0,4.4-1.9,4.4-4.6
				C71.4,36.1,69.7,34.3,67.1,34.3z M67.1,43.3c-2.4,0-4.1-1.9-4.1-4.5c0-2.6,1.7-4.4,4.1-4.4c2.4,0,4.1,1.9,4.1,4.5
				C71.2,41.5,69.5,43.3,67.1,43.3z M67.1,35.2c-1.9,0-3.3,1.5-3.3,3.7c0,2.2,1.4,3.7,3.3,3.7c1.9,0,3.3-1.5,3.3-3.7
				C70.4,36.7,69,35.2,67.1,35.2z"/>
		</g>
		<g>
			<path class="st4" d="M74.1,34.5c0-0.3,0.1-0.5,0.4-0.5h0.1c0.3,0,0.4,0.2,0.4,0.5v4.1l4.4-4.3c0.3-0.3,0.4-0.3,0.6-0.3
				c0.5,0,0.5,0.5,0.5,0.5l-4.3,4.2l4.4,4.4c0,0,0,0.5-0.5,0.5c-0.2,0-0.4-0.1-0.5-0.2l-4.4-4.6v4.4c0,0.3-0.1,0.5-0.4,0.5h-0.1
				c-0.3,0-0.4-0.1-0.4-0.5V34.5z"/>
			<path class="st0" d="M80.1,44.1c-0.3,0-0.6-0.1-0.8-0.3l-3.8-3.9v3.4c0,0.5-0.3,0.8-0.8,0.8h-0.1c-0.5,0-0.8-0.3-0.8-0.8v-8.7
				c0-0.5,0.3-0.8,0.8-0.8h0.1c0.5,0,0.8,0.3,0.8,0.8v3.2l3.7-3.6c0.3-0.3,0.5-0.4,0.8-0.4c0.4,0,0.7,0.2,0.8,0.5
				c0,0.1,0.2,0.5,0,0.7l-4,3.9l4.1,4.1c0.2,0.2,0.1,0.5,0.1,0.6C80.8,43.9,80.5,44.1,80.1,44.1z M75.5,38.8l4.3,4.4
				c0.1,0.1,0.2,0.1,0.3,0.1c0,0,0.1,0,0.1,0l-4.5-4.5l4.5-4.3c0,0,0,0-0.1,0c-0.1,0-0.1,0-0.3,0.2L75.5,38.8z M74.5,43.3
				C74.5,43.3,74.5,43.3,74.5,43.3l0.2,0c0,0,0,0,0,0c0,0,0,0,0-0.1v-8.7c0,0,0-0.1,0-0.1c0,0,0,0,0,0h-0.1c0,0,0,0,0,0
				c0,0,0,0,0,0.1L74.5,43.3C74.5,43.3,74.5,43.3,74.5,43.3z"/>
		</g>
	</g>
</g>
</svg>
