<?xml version="1.0" encoding="utf-8"?>
<!-- Generator: Adobe Illustrator 21.1.0, SVG Export Plug-In . SVG Version: 6.00 Build 0)  -->
<svg version="1.1" id="Layer_1" xmlns="http://www.w3.org/2000/svg" xmlns:xlink="http://www.w3.org/1999/xlink" x="0px" y="0px"
	 viewBox="0 0 100 100" style="enable-background:new 0 0 100 100;" xml:space="preserve">
<style type="text/css">
	.st0{fill:#DBD6CC;}
</style>
<g>
	<g>
		<polygon class="st0" points="65.4,60.1 65.4,52.2 57.5,52.2 57.5,60.1 		"/>
	</g>
	<g>
		<polygon class="st0" points="65.4,69.9 65.4,62 57.5,62 57.5,69.9 		"/>
	</g>
	<g>
		<polygon class="st0" points="65.4,50.3 65.4,42.4 57.6,42.4 57.5,50.3 		"/>
	</g>
	<g>
		<polygon class="st0" points="72,66.8 72,83.6 88.9,66.8 		"/>
	</g>
	<g>
		<polygon class="st0" points="54.8,60.1 54.8,52.2 46.9,52.2 46.9,60.1 		"/>
	</g>
	<g>
		<polygon class="st0" points="76,60.1 76,52.2 68.1,52.2 68.1,60.1 		"/>
	</g>
	<g>
		<polygon class="st0" points="76,50.3 76,42.4 68.2,42.4 68.1,50.3 		"/>
	</g>
	<g>
		<polygon class="st0" points="25.8,42.4 25.8,50.2 33.6,50.2 33.6,42.4 		"/>
	</g>
	<g>
		<polygon class="st0" points="54.8,69.9 54.8,62 46.9,62 46.9,69.9 		"/>
	</g>
	<g>
		<polygon class="st0" points="44.2,50.2 44.2,42.4 36.4,42.4 36.3,50.2 		"/>
	</g>
	<g>
		<polygon class="st0" points="33.6,69.9 33.6,62 25.7,62 25.7,69.8 		"/>
	</g>
	<g>
		<polygon class="st0" points="33.6,60 33.6,52.2 25.8,52.2 25.8,60 		"/>
	</g>
	<g>
		<polygon class="st0" points="54.8,50.3 54.8,42.4 47,42.4 47,50.2 		"/>
	</g>
	<g>
		<polygon class="st0" points="44.2,60 44.2,52.2 36.4,52.2 36.3,60 		"/>
	</g>
	<g>
		<polygon class="st0" points="44.2,69.9 44.2,62 36.3,62 36.3,69.8 		"/>
	</g>
	<g>
		<path class="st0" d="M19,78.9l0.1-46.5l65.2,0.1l0,32.8l4.7,0l0-32.8l0.8,0l0-7.4c0-4.1-3.3-7.4-7.4-7.4l-60.9-0.1
			c-4.1,0-7.4,3.3-7.4,7.4l0,7.4l0.4,0l-0.1,51.2l55.7,0.1l0-4.7L19,78.9z"/>
	</g>
</g>
</svg>
