<?xml version="1.0" encoding="utf-8"?>
<!-- Generator: Adobe Illustrator 21.1.0, SVG Export Plug-In . SVG Version: 6.00 Build 0)  -->
<svg version="1.1" id="Layer_1" xmlns="http://www.w3.org/2000/svg" xmlns:xlink="http://www.w3.org/1999/xlink" x="0px" y="0px"
	 viewBox="0 0 21.5 20" style="enable-background:new 0 0 21.5 20;" xml:space="preserve">
<style type="text/css">
	.st0{fill:#5CD4CD;}
</style>
<g>
	<g>
		<path class="st0" d="M15.3,20l-6.3-5.5H5.7c-3,0-5.4-2.4-5.4-5.4V5.7c0-3,2.4-5.4,5.4-5.4h9.9c3,0,5.4,2.4,5.4,5.4v3.3
			c0,3-2.4,5.4-5.4,5.4h-0.3V20z M5.7,1.3c-2.4,0-4.4,2-4.4,4.4v3.3c0,2.4,2,4.4,4.4,4.4h3.6l5,4.3v-4.3h1.3c2.4,0,4.4-2,4.4-4.4
			V5.7c0-2.4-2-4.4-4.4-4.4H5.7z M14.9,7c-0.6,0-1,0.4-1,1s0.4,1,1,1s1-0.4,1-1S15.4,7,14.9,7z M10.1,7c-0.6,0-1,0.4-1,1
			c0,0.6,0.5,1,1,1c0.6,0,1-0.4,1-1S10.7,7,10.1,7z M5.7,7c-0.6,0-1,0.4-1,1s0.4,1,1,1s1-0.4,1-1S6.3,7,5.7,7z"/>
	</g>
</g>
</svg>
