<?xml version="1.0" encoding="utf-8"?>
<!-- Generator: Adobe Illustrator 21.1.0, SVG Export Plug-In . SVG Version: 6.00 Build 0)  -->
<svg version="1.1" id="Layer_1" xmlns="http://www.w3.org/2000/svg" xmlns:xlink="http://www.w3.org/1999/xlink" x="0px" y="0px"
	 viewBox="0 0 21.5 20" style="enable-background:new 0 0 21.5 20;" xml:space="preserve">
<style type="text/css">
	.st0{fill:#5CD4CD;}
</style>
<g>
	<path class="st0" d="M18.6,8l-2.8,1.9V6.1c0-0.2-0.2-0.4-0.4-0.4H5.8c-0.2,0-0.4,0.2-0.4,0.4v3.8L2.7,8C2.5,7.9,2.3,7.9,2.2,8.1
		C2.1,8.2,2.1,8.5,2.3,8.6l6.9,4.7c0.4,0.3,0.9,0.4,1.4,0.4c0.5,0,1-0.1,1.4-0.4L19,8.6c0.2-0.1,0.2-0.3,0.1-0.5
		C19,7.9,18.8,7.9,18.6,8z M11.7,12.7c-0.6,0.4-1.5,0.4-2,0l-3.5-2.4c0-0.1,0.1-0.1,0.1-0.2V6.4h8.9v3.7c0,0.1,0,0.1,0.1,0.2
		L11.7,12.7z"/>
	<path class="st0" d="M20.1,6.6l-8-6.2c-0.4-0.3-0.9-0.4-1.4-0.4c-0.5,0-1,0.2-1.4,0.4l-8,6.2C0.9,6.8,0.6,7.3,0.6,7.7v10.2
		c0,1,0.8,1.9,1.9,1.9h16.3c1,0,1.9-0.8,1.9-1.9V7.7C20.6,7.3,20.4,6.8,20.1,6.6z M19.9,17.9c0,0.6-0.5,1.1-1.1,1.1H2.5
		c-0.6,0-1.1-0.5-1.1-1.1V7.7c0-0.2,0.1-0.5,0.3-0.6l8-6.2c0.2-0.2,0.6-0.3,0.9-0.3c0.4,0,0.7,0.1,0.9,0.3l8,6.2
		c0.1,0.1,0.3,0.4,0.3,0.6V17.9z"/>
	<path class="st0" d="M13.2,7.9H8.1c-0.2,0-0.4,0.2-0.4,0.4s0.2,0.4,0.4,0.4h5.2c0.2,0,0.4-0.2,0.4-0.4S13.4,7.9,13.2,7.9z"/>
	<path class="st0" d="M13.2,9.4H8.1c-0.2,0-0.4,0.2-0.4,0.4s0.2,0.4,0.4,0.4h5.2c0.2,0,0.4-0.2,0.4-0.4S13.4,9.4,13.2,9.4z"/>
</g>
</svg>
