<?xml version="1.0" encoding="utf-8"?>
<!-- Generator: Adobe Illustrator 21.1.0, SVG Export Plug-In . SVG Version: 6.00 Build 0)  -->
<svg version="1.1" id="Layer_1" xmlns="http://www.w3.org/2000/svg" xmlns:xlink="http://www.w3.org/1999/xlink" x="0px" y="0px"
	 viewBox="0 0 280 280" style="enable-background:new 0 0 280 280;" xml:space="preserve">
<style type="text/css">
	.st0{fill:#FFD81A;}
	.st1{fill-rule:evenodd;clip-rule:evenodd;fill:#FF4E10;}
	.st2{fill:#009bd6 ;}
	.st3{opacity:0.3;fill:#FFFCF5;}
	.st4{fill:#FFFFFF;}
	.st5{fill:#009bd6 ;}
	.st6{fill:#FFFCF5;stroke:#FFFCF5;stroke-width:0.8759;}
</style>
<g>
	<polygon class="st0" points="48.7,227.6 13.3,227.6 19.1,210.7 1.5,193.7 37,193.7 	"/>
	<polygon class="st1" points="32.9,216.2 48.7,227.6 48.7,215.8 32.9,215.8 	"/>
	<polygon class="st0" points="231.3,227.6 266.7,227.6 260.9,210.7 278.5,193.7 243,193.7 	"/>
	<polygon class="st1" points="247.1,216.2 231.3,227.6 231.3,215.8 247.1,215.8 	"/>
	<path class="st2" d="M260.7,145.5c1,1.7,1.5,3.6,1.5,5.5c0,2.6-0.9,5.2-2.7,7.2c-1.8,2-2.7,4.6-2.7,7.2c0,1.2,0.2,2.4,0.6,3.6
		c0.4,1.2,0.6,2.4,0.6,3.6c0,3.3-1.5,6.6-4.3,8.6c-2.5,1.9-4,4.8-4.3,7.8c0,0.3,0,0.5,0,0.8c0,0.5,0,1,0.1,1.5
		c0.1,0.5,0.1,1,0.1,1.5c0,1.8-0.5,3.6-1.3,5.2c-1.1,1.9-2.7,3.6-4.8,4.6c-1.8,0.9-3.2,2.2-4.3,3.7c-1.1,1.6-1.7,3.4-1.8,5.4
		c-0.1,2.3-1,4.5-2.4,6.2c-1.4,1.7-3.4,3-5.6,3.6c-1.1,0.3-2.2,0.8-3.1,1.4c-0.7,0.4-1.3,0.9-1.8,1.5c-1.3,1.3-2.3,3-2.8,4.9
		c-0.2,0.9-0.6,1.8-1.1,2.6c-0.7,1.2-1.5,2.2-2.6,3c-1.7,1.4-3.9,2.3-6.2,2.4c-2,0.1-3.8,0.8-5.4,1.8c-1.6,1.1-2.9,2.5-3.7,4.3
		c-1.8,3.8-5.6,6.1-9.7,6.1c-0.5,0-1,0-1.5-0.1c-0.5-0.1-1-0.1-1.5-0.1c-3.4,0-6.6,1.6-8.6,4.3c-2.1,2.8-5.3,4.3-8.6,4.3
		c-1.2,0-2.4-0.2-3.6-0.6c-1.2-0.4-2.4-0.6-3.6-0.6c-2.6,0-5.2,0.9-7.2,2.7c-2,1.8-4.6,2.7-7.2,2.7c-1.9,0-3.8-0.5-5.5-1.5
		c-1.7-1-3.6-1.5-5.5-1.5c-1.9,0-3.8,0.5-5.5,1.5c-1.7,1-3.6,1.5-5.5,1.5c-2.6,0-5.2-0.9-7.2-2.7c-2-1.8-4.6-2.7-7.2-2.7
		c-1.2,0-2.4,0.2-3.6,0.6c-1.2,0.4-2.4,0.6-3.6,0.6c-3.3,0-6.6-1.5-8.6-4.3c-2.1-2.7-5.3-4.3-8.6-4.3c-0.5,0-1,0-1.5,0.1
		c-0.5,0.1-1,0.1-1.5,0.1c-4.1,0-7.9-2.3-9.7-6.1c-0.9-1.8-2.2-3.2-3.7-4.3c-1.6-1.1-3.4-1.7-5.4-1.8c-2.3-0.1-4.5-1-6.2-2.4
		c-1-0.8-1.9-1.9-2.6-3c-0.5-0.8-0.8-1.7-1.1-2.6c-0.5-1.9-1.5-3.6-2.8-4.9c-0.5-0.5-1.2-1-1.8-1.5c-1-0.6-2-1.1-3.1-1.4
		c-2.3-0.6-4.2-1.9-5.6-3.6c-1.4-1.7-2.3-3.9-2.4-6.2c-0.1-2-0.8-3.8-1.8-5.4c-1.1-1.6-2.5-2.9-4.3-3.7c-2.1-1-3.7-2.6-4.8-4.6
		c-0.9-1.6-1.3-3.3-1.3-5.2c0-0.5,0-1,0.1-1.5c0.1-0.5,0.1-1,0.1-1.5c0-0.3,0-0.5,0-0.8c-0.2-3.1-1.8-5.9-4.3-7.8
		c-2.8-2.1-4.3-5.3-4.3-8.6c0-1.2,0.2-2.4,0.6-3.6c0.4-1.2,0.6-2.4,0.6-3.6c0-2.6-0.9-5.2-2.7-7.2c-1.8-2-2.7-4.6-2.7-7.2
		c0-1.9,0.5-3.8,1.5-5.5c1-1.7,1.5-3.6,1.5-5.5c0-1.9-0.5-3.8-1.5-5.5c-1-1.7-1.5-3.6-1.5-5.5c0-2.6,0.9-5.2,2.7-7.2
		c1.8-2,2.7-4.6,2.7-7.2c0-1.2-0.2-2.4-0.6-3.6c-0.4-1.2-0.6-2.4-0.6-3.6c0-3.3,1.5-6.6,4.3-8.6c2.7-2.1,4.3-5.3,4.3-8.6
		c0-0.5,0-1-0.1-1.5c-0.1-0.5-0.1-1-0.1-1.5c0-4.1,2.3-7.9,6.1-9.7c1.8-0.9,3.2-2.2,4.3-3.7c1.1-1.6,1.7-3.4,1.8-5.4
		c0.1-2.3,1-4.5,2.4-6.2c1.4-1.7,3.4-3,5.6-3.6c1.9-0.5,3.6-1.5,4.9-2.8c1.3-1.3,2.3-3,2.8-4.9c0.6-2.3,1.9-4.2,3.6-5.6
		c1.7-1.4,3.9-2.3,6.2-2.4c2-0.1,3.8-0.8,5.4-1.8c1.6-1.1,2.9-2.5,3.7-4.3c1.8-3.8,5.6-6.1,9.7-6.1c0.5,0,1,0,1.5,0.1
		c0.5,0.1,1,0.1,1.5,0.1c3.4,0,6.6-1.6,8.6-4.3c2.1-2.8,5.3-4.3,8.6-4.3c1.2,0,2.4,0.2,3.6,0.6c1.2,0.4,2.4,0.6,3.6,0.6
		c2.6,0,5.2-0.9,7.2-2.7c2-1.8,4.6-2.7,7.2-2.7c1.9,0,3.8,0.5,5.5,1.5c1.7,1,3.6,1.5,5.5,1.5c1.9,0,3.8-0.5,5.5-1.5
		c4.1-2.4,9.2-1.9,12.7,1.2c2,1.8,4.6,2.7,7.2,2.7c1.2,0,2.4-0.2,3.6-0.6c1.2-0.4,2.4-0.6,3.6-0.6c3.3,0,6.5,1.5,8.6,4.3
		c2.1,2.7,5.3,4.3,8.6,4.3c0.5,0,1,0,1.5-0.1c0.5-0.1,1-0.1,1.5-0.1c4.1,0,7.9,2.3,9.7,6.1c0.9,1.8,2.2,3.2,3.7,4.3
		c1.6,1.1,3.4,1.7,5.4,1.8c2.3,0.1,4.5,1,6.2,2.4c1.7,1.4,3,3.4,3.6,5.6c0.5,1.9,1.5,3.6,2.8,4.9c1.3,1.3,3,2.3,4.9,2.8
		c2.3,0.6,4.2,1.9,5.6,3.6c1.4,1.7,2.3,3.9,2.4,6.2c0.1,2,0.8,3.8,1.8,5.4c1.1,1.6,2.5,2.9,4.3,3.7c3.8,1.8,6.1,5.6,6.1,9.7
		c0,0.5,0,1-0.1,1.5c-0.1,0.5-0.1,1-0.1,1.5c0,3.4,1.6,6.6,4.3,8.6c2.8,2.1,4.3,5.3,4.3,8.6c0,1.2-0.2,2.4-0.6,3.6
		c-0.4,1.2-0.6,2.4-0.6,3.6c0,2.6,0.9,5.2,2.7,7.2c1.8,2,2.7,4.6,2.7,7.2c0,1.9-0.5,3.8-1.5,5.5c-1,1.7-1.5,3.6-1.5,5.5
		C259.3,141.9,259.7,143.8,260.7,145.5z"/>
	<path class="st3" d="M150.5,251.8c-0.7,0-1.3-0.1-2-0.4c-0.2-0.1-0.3-0.3-0.2-0.5c0.1-0.2,0.3-0.3,0.5-0.2c0.5,0.2,1.1,0.3,1.7,0.3
		c0.2,0,0.4,0.2,0.4,0.4C150.9,251.6,150.7,251.8,150.5,251.8z M129,251.7C129,251.7,129,251.7,129,251.7c-0.7-0.1-1.4-0.3-2-0.6
		c-0.2-0.1-0.3-0.3-0.2-0.5c0.1-0.2,0.3-0.3,0.5-0.2c0.5,0.3,1.1,0.4,1.6,0.5c0.2,0,0.4,0.2,0.3,0.4
		C129.4,251.6,129.2,251.7,129,251.7z M130.9,251.5c-0.2,0-0.3-0.1-0.4-0.3c-0.1-0.2,0-0.4,0.2-0.5c0.3-0.1,0.6-0.2,0.9-0.4
		c0.2-0.1,0.5-0.3,0.7-0.4c0.2-0.1,0.4,0,0.5,0.2c0.1,0.2,0,0.4-0.2,0.5c-0.2,0.1-0.4,0.2-0.7,0.4c-0.3,0.2-0.7,0.4-1.1,0.5
		C131,251.5,130.9,251.5,130.9,251.5z M152.2,251.4c-0.2,0-0.3-0.1-0.3-0.2c-0.1-0.2,0-0.4,0.2-0.5c0.5-0.2,0.9-0.5,1.3-0.8l0.1-0.1
		c0.2-0.1,0.4-0.1,0.5,0c0.1,0.2,0.1,0.4,0,0.5l-0.1,0.1c-0.5,0.4-1,0.7-1.6,0.9C152.3,251.4,152.3,251.4,152.2,251.4z M147,250.5
		c-0.1,0-0.1,0-0.2,0c-0.5-0.3-1.1-0.5-1.7-0.7c-0.2-0.1-0.3-0.3-0.2-0.5c0.1-0.2,0.3-0.3,0.5-0.2c0.6,0.2,1.2,0.5,1.8,0.7
		c0.2,0.1,0.3,0.3,0.2,0.5C147.3,250.4,147.2,250.5,147,250.5z M125.8,250.1c-0.1,0-0.2,0-0.2-0.1c-0.5-0.4-1-0.7-1.5-1.1
		c-0.2-0.1-0.2-0.3-0.1-0.5c0.1-0.2,0.3-0.2,0.5-0.1c0.5,0.3,1.1,0.7,1.6,1.1c0.2,0.1,0.2,0.4,0.1,0.5
		C126,250,125.9,250.1,125.8,250.1z M134.3,250c-0.2,0-0.3-0.1-0.3-0.2c-0.1-0.2,0-0.4,0.2-0.5c0.6-0.2,1.2-0.4,1.8-0.6
		c0.2-0.1,0.4,0.1,0.5,0.3c0.1,0.2-0.1,0.4-0.3,0.5c-0.6,0.2-1.2,0.3-1.7,0.6C134.4,249.9,134.3,250,134.3,250z M155.3,249.3
		c-0.1,0-0.2-0.1-0.3-0.2c-0.1-0.2-0.1-0.4,0.1-0.5c0.5-0.4,1.1-0.7,1.6-1c0.2-0.1,0.4,0,0.5,0.2c0.1,0.2,0,0.4-0.2,0.5
		c-0.5,0.3-1.1,0.6-1.6,0.9C155.4,249.3,155.3,249.3,155.3,249.3z M143.5,249.3C143.5,249.3,143.4,249.3,143.5,249.3
		c-0.7-0.1-1.3-0.2-1.9-0.3c-0.2,0-0.4-0.2-0.3-0.4c0-0.2,0.2-0.4,0.4-0.3c0.6,0.1,1.3,0.2,1.9,0.3c0.2,0,0.3,0.2,0.3,0.4
		C143.8,249.2,143.7,249.3,143.5,249.3z M137.9,249c-0.2,0-0.3-0.1-0.4-0.3c0-0.2,0.1-0.4,0.3-0.4c0.6-0.1,1.3-0.1,1.9-0.1
		c0.2,0,0.4,0.2,0.4,0.4c0,0.2-0.2,0.4-0.4,0.4C139.2,248.9,138.6,248.9,137.9,249C137.9,249,137.9,249,137.9,249z M122.6,248.1
		c-0.1,0-0.1,0-0.2,0c-0.5-0.3-1.1-0.5-1.7-0.7c-0.2-0.1-0.3-0.3-0.2-0.5c0.1-0.2,0.3-0.3,0.5-0.2c0.6,0.2,1.2,0.4,1.8,0.7
		c0.2,0.1,0.3,0.3,0.2,0.5C122.9,248,122.7,248.1,122.6,248.1z M171.1,247.7c-0.5,0-1.1-0.1-1.6-0.3c-0.2-0.1-0.3-0.3-0.2-0.5
		s0.3-0.3,0.5-0.2c0.6,0.2,1.1,0.3,1.7,0.2c0.2,0,0.4,0.1,0.4,0.3c0,0.2-0.1,0.4-0.3,0.4C171.4,247.7,171.2,247.7,171.1,247.7z
		 M108,247.6C107.9,247.6,107.9,247.6,108,247.6c-0.7-0.1-1.4-0.4-1.9-0.8c-0.2-0.1-0.2-0.3-0.1-0.5c0.1-0.2,0.3-0.2,0.5-0.1
		c0.5,0.3,1,0.5,1.6,0.7c0.2,0,0.3,0.2,0.3,0.4C108.3,247.4,108.1,247.6,108,247.6z M109.8,247.6c-0.2,0-0.3-0.1-0.4-0.3
		c0-0.2,0.1-0.4,0.3-0.4c0.2,0,0.4-0.1,0.6-0.2c0.4-0.1,0.8-0.3,1.2-0.4c0.2-0.1,0.4,0.1,0.5,0.3c0.1,0.2-0.1,0.4-0.3,0.5
		c-0.4,0.1-0.8,0.2-1.1,0.3C110.4,247.4,110.1,247.5,109.8,247.6C109.9,247.6,109.9,247.6,109.8,247.6z M158.6,247.6
		c-0.2,0-0.3-0.1-0.4-0.2c-0.1-0.2,0-0.4,0.2-0.5c0.6-0.2,1.2-0.4,1.8-0.6c0.2-0.1,0.4,0.1,0.5,0.3c0.1,0.2-0.1,0.4-0.3,0.5
		c-0.6,0.1-1.2,0.3-1.7,0.6C158.7,247.5,158.6,247.6,158.6,247.6z M173.2,247.1c-0.1,0-0.3-0.1-0.3-0.2c-0.1-0.2,0-0.4,0.2-0.5
		c0.5-0.3,1-0.6,1.4-1.1c0.1-0.2,0.4-0.2,0.5,0c0.2,0.1,0.2,0.4,0,0.5c-0.4,0.5-1,0.9-1.6,1.2C173.4,247.1,173.3,247.1,173.2,247.1z
		 M167.8,246.9C167.8,246.9,167.7,246.9,167.8,246.9c-0.7-0.1-1.3-0.2-1.9-0.3c-0.2,0-0.4-0.2-0.3-0.4c0-0.2,0.2-0.4,0.4-0.3
		c0.6,0.1,1.3,0.2,1.9,0.3c0.2,0,0.3,0.2,0.3,0.4C168.1,246.8,168,246.9,167.8,246.9z M119.1,246.9C119,246.9,119,246.9,119.1,246.9
		c-0.7-0.1-1.3-0.2-1.9-0.3c-0.2,0-0.4-0.2-0.3-0.4c0-0.2,0.2-0.4,0.4-0.3c0.6,0.1,1.3,0.2,1.9,0.3c0.2,0,0.3,0.2,0.3,0.4
		C119.4,246.7,119.2,246.9,119.1,246.9z M113.5,246.7c-0.2,0-0.3-0.1-0.4-0.3c0-0.2,0.1-0.4,0.3-0.4c0.6-0.1,1.3-0.1,1.9-0.2
		c0.2,0,0.4,0.2,0.4,0.4c0,0.2-0.2,0.4-0.4,0.4C114.7,246.5,114.1,246.6,113.5,246.7C113.5,246.7,113.5,246.7,113.5,246.7z
		 M162.2,246.6c-0.2,0-0.3-0.1-0.4-0.3c0-0.2,0.1-0.4,0.3-0.4c0.6-0.1,1.3-0.1,1.9-0.1c0,0,0,0,0,0c0.2,0,0.4,0.2,0.4,0.4
		c0,0.2-0.2,0.4-0.4,0.4C163.5,246.5,162.9,246.6,162.2,246.6C162.2,246.6,162.2,246.6,162.2,246.6z M104.9,245.5
		c-0.1,0-0.2,0-0.3-0.1c-0.4-0.5-0.8-0.9-1.2-1.4c-0.1-0.1-0.1-0.4,0-0.5c0.1-0.1,0.4-0.1,0.5,0c0.5,0.5,0.9,0.9,1.3,1.4
		c0.1,0.2,0.1,0.4-0.1,0.5C105.1,245.5,105,245.5,104.9,245.5z M175.9,244.6c-0.1,0-0.2,0-0.3-0.1c-0.2-0.1-0.2-0.4,0-0.5
		c0.4-0.5,0.9-0.9,1.4-1.3c0.2-0.1,0.4-0.1,0.5,0c0.1,0.2,0.1,0.4,0,0.5c-0.5,0.4-0.9,0.8-1.3,1.3
		C176.1,244.5,176,244.6,175.9,244.6z M102.3,242.9c-0.1,0-0.2,0-0.2-0.1c-0.5-0.4-1-0.7-1.5-1.1c-0.2-0.1-0.2-0.3-0.1-0.5
		c0.1-0.2,0.3-0.2,0.5-0.1c0.5,0.3,1.1,0.7,1.6,1.1c0.2,0.1,0.2,0.4,0.1,0.5C102.5,242.8,102.4,242.9,102.3,242.9z M178.7,242.1
		c-0.1,0-0.2-0.1-0.3-0.2c-0.1-0.2-0.1-0.4,0.1-0.5c0.5-0.4,1.1-0.7,1.7-1c0.2-0.1,0.4,0,0.5,0.2c0.1,0.2,0,0.4-0.2,0.5
		c-0.5,0.3-1.1,0.6-1.6,0.9C178.9,242.1,178.8,242.1,178.7,242.1z M99.1,240.9c-0.1,0-0.1,0-0.2,0c-0.6-0.3-1.1-0.5-1.7-0.7
		c-0.2-0.1-0.3-0.3-0.2-0.5c0.1-0.2,0.3-0.3,0.5-0.2c0.6,0.2,1.2,0.4,1.8,0.7c0.2,0.1,0.3,0.3,0.2,0.5
		C99.4,240.8,99.2,240.9,99.1,240.9z M182.1,240.4c-0.2,0-0.3-0.1-0.4-0.2c-0.1-0.2,0-0.4,0.2-0.5c0.6-0.2,1.2-0.4,1.8-0.6
		c0.2,0,0.4,0.1,0.5,0.3c0,0.2-0.1,0.4-0.3,0.5c-0.6,0.1-1.2,0.3-1.7,0.5C182.2,240.4,182.1,240.4,182.1,240.4z M95.6,239.7
		C95.5,239.7,95.5,239.7,95.6,239.7c-0.7-0.1-1.3-0.2-1.9-0.3c-0.2,0-0.4-0.2-0.3-0.4c0-0.2,0.2-0.4,0.4-0.3
		c0.6,0.1,1.3,0.1,1.9,0.3c0.2,0,0.3,0.2,0.3,0.4C95.9,239.6,95.7,239.7,95.6,239.7z M190.5,239.6c-0.2,0-0.5,0-0.7-0.1
		c-0.1,0-0.3,0-0.4-0.1c-0.2,0-0.4-0.2-0.3-0.4c0-0.2,0.2-0.4,0.4-0.3c0.1,0,0.3,0,0.4,0.1c0.5,0.1,0.9,0.1,1.3,0
		c0.2,0,0.4,0.1,0.4,0.3c0,0.2-0.1,0.4-0.3,0.4C191.1,239.6,190.8,239.6,190.5,239.6z M90,239.6c-0.2,0-0.4-0.1-0.4-0.3
		c0-0.2,0.1-0.4,0.3-0.4c0.1,0,0.1,0,0.2,0c0.6-0.1,1.2-0.1,1.7-0.1c0.2,0,0.4,0.2,0.4,0.4c0,0.2-0.2,0.4-0.4,0.4
		c-0.5,0-1.1,0.1-1.7,0.1C90.1,239.6,90.1,239.6,90,239.6C90,239.6,90,239.6,90,239.6z M185.7,239.5c-0.2,0-0.3-0.1-0.4-0.3
		c0-0.2,0.1-0.4,0.3-0.4c0.6-0.1,1.3-0.1,1.9-0.1h0c0.2,0,0.4,0.2,0.4,0.4c0,0.2-0.2,0.4-0.4,0.4C187,239.4,186.4,239.5,185.7,239.5
		C185.7,239.5,185.7,239.5,185.7,239.5z M88.1,239.4c0,0-0.1,0-0.1,0c-0.6-0.2-1.2-0.5-1.8-1c-0.2-0.1-0.2-0.4-0.1-0.5
		c0.1-0.2,0.4-0.2,0.5-0.1c0.4,0.4,1,0.6,1.5,0.8c0.2,0.1,0.3,0.3,0.2,0.5C88.4,239.3,88.3,239.4,88.1,239.4z M193.1,238.9
		c-0.1,0-0.2-0.1-0.3-0.2c-0.1-0.2-0.1-0.4,0.1-0.5c0.5-0.3,0.9-0.7,1.2-1.2c0.1-0.2,0.4-0.2,0.5-0.1c0.2,0.1,0.2,0.4,0.1,0.5
		c-0.4,0.6-0.9,1-1.5,1.4C193.2,238.9,193.1,238.9,193.1,238.9z M85.3,237.1c-0.1,0-0.3-0.1-0.3-0.2c0-0.1-0.1-0.1-0.1-0.2
		c-0.2-0.5-0.5-1-0.8-1.5c-0.1-0.2-0.1-0.4,0.1-0.5c0.2-0.1,0.4-0.1,0.5,0.1c0.3,0.5,0.6,1,0.8,1.5c0,0,0,0.1,0.1,0.1
		c0.1,0.2,0,0.4-0.2,0.5C85.4,237.1,85.4,237.1,85.3,237.1z M195.3,235.9c-0.1,0-0.1,0-0.2,0c-0.2-0.1-0.2-0.3-0.1-0.5
		c0.3-0.6,0.7-1.1,1-1.6c0.1-0.2,0.4-0.2,0.5-0.1c0.2,0.1,0.2,0.4,0.1,0.5c-0.4,0.5-0.7,1-1,1.5
		C195.6,235.9,195.4,235.9,195.3,235.9z M83.3,233.9c-0.1,0-0.2,0-0.3-0.1c-0.4-0.5-0.8-0.9-1.2-1.4c-0.1-0.1-0.1-0.4,0-0.5
		c0.1-0.1,0.4-0.1,0.5,0c0.5,0.4,0.9,0.9,1.3,1.4c0.1,0.2,0.1,0.4-0.1,0.5C83.5,233.9,83.4,233.9,83.3,233.9z M197.5,232.9
		c-0.1,0-0.2,0-0.3-0.1c-0.2-0.1-0.2-0.4,0-0.5c0.4-0.5,0.9-0.9,1.4-1.3c0.2-0.1,0.4-0.1,0.5,0c0.1,0.2,0.1,0.4,0,0.5
		c-0.5,0.4-0.9,0.8-1.3,1.3C197.7,232.9,197.6,232.9,197.5,232.9z M80.7,231.3c-0.1,0-0.2,0-0.2-0.1c-0.3-0.2-0.6-0.5-0.9-0.7
		c-0.2-0.1-0.4-0.3-0.6-0.4c-0.2-0.1-0.2-0.3-0.1-0.5c0.1-0.2,0.3-0.2,0.5-0.1c0.2,0.1,0.4,0.3,0.6,0.4c0.3,0.2,0.7,0.5,1,0.7
		c0.2,0.1,0.2,0.4,0.1,0.5C80.9,231.2,80.8,231.3,80.7,231.3z M200.4,230.5c-0.1,0-0.2-0.1-0.3-0.2c-0.1-0.2-0.1-0.4,0.1-0.5
		c0.5-0.3,1.1-0.7,1.7-1c0.2-0.1,0.4,0,0.5,0.2c0.1,0.2,0,0.4-0.2,0.5c-0.5,0.3-1.1,0.6-1.6,0.9
		C200.5,230.5,200.5,230.5,200.4,230.5z M77.5,229.3c-0.1,0-0.1,0-0.2,0c-0.6-0.3-1.1-0.5-1.7-0.7c-0.2-0.1-0.3-0.3-0.2-0.5
		c0.1-0.2,0.3-0.3,0.5-0.2c0.6,0.2,1.2,0.4,1.8,0.7c0.2,0.1,0.3,0.3,0.2,0.5C77.7,229.3,77.6,229.3,77.5,229.3z M203.7,228.9
		c-0.2,0-0.3-0.1-0.4-0.2c-0.1-0.2,0-0.4,0.2-0.5c0.6-0.2,1.2-0.4,1.8-0.5c0.2,0,0.4,0.1,0.5,0.3c0,0.2-0.1,0.4-0.3,0.5
		c-0.6,0.1-1.2,0.3-1.8,0.5C203.8,228.9,203.8,228.9,203.7,228.9z M73.9,228.2C73.9,228.2,73.8,228.2,73.9,228.2
		c-0.7-0.1-1.3-0.2-1.9-0.3c-0.2,0-0.4-0.2-0.3-0.4c0-0.2,0.2-0.4,0.4-0.3c0.6,0,1.3,0.1,1.9,0.3c0.2,0,0.3,0.2,0.3,0.4
		C74.2,228.1,74.1,228.2,73.9,228.2z M207.4,228c-0.2,0-0.4-0.1-0.4-0.3c0-0.2,0.1-0.4,0.3-0.4c0.3,0,0.6-0.1,0.9-0.1
		c0.3,0,0.6-0.1,0.9-0.1c0.2-0.1,0.4,0.1,0.5,0.3c0.1,0.2-0.1,0.4-0.3,0.5c-0.3,0.1-0.7,0.2-1.1,0.2C208,228,207.7,228,207.4,228
		C207.4,228,207.4,228,207.4,228z M70.2,227.6c0,0-0.1,0-0.1,0c-0.5-0.2-0.9-0.4-1.3-0.8c-0.1-0.1-0.3-0.2-0.4-0.4
		c-0.1-0.1-0.1-0.4,0-0.5c0.1-0.1,0.4-0.1,0.5,0c0.1,0.1,0.2,0.2,0.3,0.3c0.3,0.3,0.7,0.5,1.1,0.7c0.2,0.1,0.3,0.3,0.2,0.5
		C70.5,227.5,70.4,227.6,70.2,227.6z M210.9,226.9c-0.1,0-0.2,0-0.3-0.1c-0.1-0.2-0.1-0.4,0.1-0.5l0.1-0.1c0.4-0.3,0.8-0.7,1-1.2
		c0,0,0,0,0,0c0.1-0.2,0.3-0.2,0.5-0.1c0.2,0.1,0.2,0.3,0.1,0.5l0,0c-0.3,0.5-0.7,1-1.2,1.4l-0.1,0.1
		C211.1,226.9,211,226.9,210.9,226.9z M67.6,225c-0.1,0-0.3-0.1-0.3-0.2c-0.1-0.2-0.2-0.4-0.2-0.6c-0.1-0.4-0.2-0.8-0.4-1.2
		c-0.1-0.2,0-0.4,0.2-0.5c0.2-0.1,0.4,0,0.5,0.2c0.1,0.4,0.3,0.8,0.4,1.2c0,0.2,0.1,0.4,0.2,0.5c0.1,0.2,0,0.4-0.2,0.5
		C67.7,225,67.7,225,67.6,225z M212.7,223.8c0,0-0.1,0-0.1,0c-0.2-0.1-0.3-0.3-0.3-0.5c0.2-0.6,0.4-1.2,0.7-1.8
		c0.1-0.2,0.3-0.3,0.5-0.2c0.2,0.1,0.3,0.3,0.2,0.5c-0.2,0.6-0.5,1.1-0.6,1.7C213.1,223.7,212.9,223.8,212.7,223.8z M66.4,221.5
		c-0.1,0-0.3-0.1-0.3-0.2c-0.3-0.5-0.6-1.1-0.9-1.6c-0.1-0.2-0.1-0.4,0.1-0.5c0.2-0.1,0.4-0.1,0.5,0.1c0.3,0.5,0.7,1.1,0.9,1.7
		c0.1,0.2,0,0.4-0.2,0.5C66.5,221.5,66.4,221.5,66.4,221.5z M214.2,220.3c-0.1,0-0.1,0-0.2-0.1c-0.2-0.1-0.2-0.3-0.1-0.5
		c0.3-0.6,0.7-1.1,1.1-1.6c0.1-0.2,0.4-0.2,0.5-0.1c0.2,0.1,0.2,0.4,0.1,0.5c-0.4,0.5-0.7,1-1,1.5
		C214.5,220.3,214.4,220.3,214.2,220.3z M64.4,218.3c-0.1,0-0.2,0-0.3-0.1c-0.3-0.4-0.7-0.8-1.1-1.2c-0.1-0.1-0.1-0.1-0.2-0.2
		c-0.1-0.1-0.2-0.4,0-0.5c0.1-0.1,0.4-0.2,0.5,0c0.1,0.1,0.1,0.1,0.2,0.2c0.4,0.4,0.8,0.8,1.1,1.2c0.1,0.2,0.1,0.4-0.1,0.5
		C64.5,218.3,64.4,218.3,64.4,218.3z M216.5,217.4c-0.1,0-0.2,0-0.3-0.1c-0.1-0.1-0.2-0.4,0-0.5c0.1-0.1,0.2-0.2,0.2-0.2
		c0.4-0.4,0.8-0.7,1.2-1.1c0.2-0.1,0.4-0.1,0.5,0.1c0.1,0.2,0.1,0.4-0.1,0.5c-0.4,0.3-0.8,0.7-1.1,1c-0.1,0.1-0.2,0.2-0.2,0.2
		C216.7,217.3,216.6,217.4,216.5,217.4z M61.7,215.7c-0.1,0-0.2,0-0.2-0.1c-0.3-0.3-0.7-0.5-1-0.7c-0.2-0.1-0.3-0.2-0.5-0.3
		c-0.2-0.1-0.2-0.3-0.1-0.5c0.1-0.2,0.3-0.2,0.5-0.1c0.2,0.1,0.3,0.2,0.5,0.3c0.4,0.2,0.7,0.5,1.1,0.8c0.2,0.1,0.2,0.4,0.1,0.5
		C61.9,215.7,61.8,215.7,61.7,215.7z M219.4,215c-0.1,0-0.3-0.1-0.3-0.2c-0.1-0.2,0-0.4,0.1-0.5c0.5-0.3,1.1-0.7,1.7-0.9
		c0.2-0.1,0.4,0,0.5,0.2c0.1,0.2,0,0.4-0.2,0.5c-0.5,0.3-1.1,0.6-1.6,0.9c0,0,0,0,0,0C219.5,215,219.4,215,219.4,215z M58.5,213.8
		c-0.1,0-0.1,0-0.2,0c-0.6-0.2-1.1-0.5-1.7-0.6c-0.2-0.1-0.3-0.3-0.2-0.5c0.1-0.2,0.3-0.3,0.5-0.2c0.6,0.2,1.2,0.4,1.8,0.7
		c0.2,0.1,0.3,0.3,0.2,0.5C58.7,213.7,58.6,213.8,58.5,213.8z M222.7,213.3c-0.2,0-0.3-0.1-0.4-0.3c-0.1-0.2,0-0.4,0.2-0.5
		c0.4-0.2,0.9-0.3,1.3-0.4c0.2,0,0.3-0.1,0.5-0.1c0.2-0.1,0.4,0,0.5,0.2c0.1,0.2,0,0.4-0.2,0.5c-0.2,0.1-0.4,0.1-0.5,0.2
		c-0.4,0.1-0.8,0.2-1.3,0.4C222.8,213.3,222.8,213.3,222.7,213.3z M54.9,212.5c-0.1,0-0.1,0-0.2,0c-0.6-0.3-1.1-0.7-1.5-1.3
		c-0.1-0.2-0.1-0.4,0-0.5c0.2-0.1,0.4-0.1,0.5,0c0.4,0.5,0.8,0.8,1.3,1.1c0.2,0.1,0.3,0.3,0.2,0.5C55.2,212.5,55.1,212.5,54.9,212.5
		z M226.1,211.8c-0.1,0-0.2,0-0.3-0.1c-0.1-0.1-0.1-0.4,0-0.5c0.1-0.1,0.2-0.3,0.4-0.4c0.3-0.3,0.5-0.7,0.6-1
		c0.1-0.2,0.3-0.3,0.5-0.2c0.2,0.1,0.3,0.3,0.2,0.5c-0.2,0.4-0.4,0.8-0.7,1.2c-0.1,0.2-0.3,0.3-0.4,0.5
		C226.3,211.7,226.2,211.8,226.1,211.8z M52.6,209.7c-0.2,0-0.3-0.1-0.4-0.3c-0.1-0.4-0.2-0.8-0.2-1.2c0-0.3,0-0.5-0.1-0.8
		c0-0.2,0.1-0.4,0.3-0.4c0.2,0,0.4,0.1,0.4,0.3c0,0.3,0.1,0.5,0.1,0.8c0,0.3,0.1,0.7,0.2,1c0.1,0.2-0.1,0.4-0.3,0.5
		C52.7,209.7,52.7,209.7,52.6,209.7z M227.6,208.4C227.6,208.4,227.6,208.4,227.6,208.4c-0.2,0-0.4-0.2-0.4-0.4
		c0-0.6,0.1-1.3,0.2-1.9c0-0.2,0.2-0.3,0.4-0.3c0.2,0,0.3,0.2,0.3,0.4c-0.1,0.6-0.2,1.2-0.2,1.8
		C227.9,208.3,227.8,208.4,227.6,208.4z M52.1,206c-0.2,0-0.3-0.1-0.4-0.3c-0.1-0.6-0.3-1.2-0.5-1.8c-0.1-0.2,0-0.4,0.2-0.5
		c0.2-0.1,0.4,0,0.5,0.2c0.2,0.6,0.4,1.2,0.5,1.8C52.5,205.7,52.4,205.9,52.1,206C52.1,206,52.1,206,52.1,206z M228.3,204.8
		c0,0-0.1,0-0.1,0c-0.2-0.1-0.3-0.3-0.2-0.5c0.2-0.6,0.4-1.2,0.7-1.8c0.1-0.2,0.3-0.3,0.5-0.2c0.2,0.1,0.3,0.3,0.2,0.5
		c-0.2,0.6-0.5,1.1-0.6,1.7C228.6,204.7,228.4,204.8,228.3,204.8z M50.8,202.5c-0.1,0-0.3-0.1-0.3-0.2c-0.3-0.5-0.6-1.1-0.9-1.6
		c-0.1-0.2-0.1-0.4,0.1-0.5c0.2-0.1,0.4-0.1,0.5,0.1c0.3,0.5,0.7,1.1,0.9,1.7c0.1,0.2,0,0.4-0.2,0.5
		C50.9,202.5,50.9,202.5,50.8,202.5z M229.8,201.3c-0.1,0-0.1,0-0.2-0.1c-0.2-0.1-0.2-0.3-0.1-0.5c0.1-0.2,0.3-0.5,0.4-0.7
		c0.2-0.3,0.4-0.6,0.6-0.9c0.1-0.2,0.4-0.2,0.5-0.1c0.2,0.1,0.2,0.4,0.1,0.5c-0.2,0.3-0.4,0.6-0.6,0.9c-0.1,0.2-0.3,0.4-0.4,0.7
		C230,201.3,229.9,201.3,229.8,201.3z M48.8,199.3c-0.1,0-0.2,0-0.3-0.1c-0.4-0.5-0.8-0.9-1.2-1.3c-0.2-0.1-0.2-0.4,0-0.5
		c0.1-0.1,0.4-0.2,0.5,0c0.5,0.4,0.9,0.9,1.3,1.4c0.1,0.2,0.1,0.4,0,0.5C48.9,199.3,48.9,199.3,48.8,199.3z M232.1,198.4
		c-0.1,0-0.2,0-0.3-0.1c-0.1-0.1-0.2-0.4,0-0.5c0.4-0.5,0.9-0.9,1.4-1.3c0.2-0.1,0.4-0.1,0.5,0.1c0.1,0.2,0.1,0.4-0.1,0.5
		c-0.5,0.4-0.9,0.8-1.4,1.2C232.3,198.3,232.2,198.4,232.1,198.4z M46.1,196.8c-0.1,0-0.2,0-0.2-0.1c-0.5-0.4-1-0.7-1.5-1
		c-0.2-0.1-0.2-0.3-0.1-0.5c0.1-0.2,0.3-0.2,0.5-0.1c0.6,0.3,1.1,0.7,1.6,1.1c0.2,0.1,0.2,0.4,0.1,0.5
		C46.3,196.7,46.2,196.8,46.1,196.8z M235,196c-0.1,0-0.2-0.1-0.3-0.2c-0.1-0.2-0.1-0.4,0.1-0.5c0.5-0.3,1.1-0.6,1.6-0.9l0.1,0
		c0.2-0.1,0.4,0,0.5,0.2c0.1,0.2,0,0.4-0.2,0.5l-0.1,0c-0.5,0.3-1.1,0.5-1.5,0.9C235.1,196,235.1,196,235,196z M42.9,194.8
		c-0.1,0-0.1,0-0.2-0.1c-0.6-0.4-1-0.9-1.4-1.4c-0.1-0.2-0.1-0.4,0.1-0.5c0.2-0.1,0.4-0.1,0.5,0.1c0.3,0.5,0.7,0.9,1.2,1.2
		c0.2,0.1,0.2,0.3,0.1,0.5C43.1,194.8,43,194.8,42.9,194.8z M238.1,194c-0.1,0-0.2,0-0.2-0.1c-0.2-0.1-0.2-0.4,0-0.5
		c0.2-0.2,0.4-0.5,0.5-0.8c0.1-0.2,0.2-0.5,0.3-0.7c0.1-0.2,0.3-0.3,0.5-0.2c0.2,0.1,0.3,0.3,0.2,0.5c-0.1,0.3-0.2,0.6-0.4,0.9
		c-0.2,0.3-0.4,0.6-0.6,0.9C238.3,193.9,238.2,194,238.1,194z M40.8,191.8c-0.2,0-0.3-0.1-0.4-0.3c-0.1-0.3-0.1-0.6-0.1-1
		c0-0.2,0-0.5,0.1-0.7c0-0.1,0-0.2,0-0.3c0-0.2,0.2-0.4,0.4-0.3c0.2,0,0.4,0.2,0.3,0.4c0,0.1,0,0.2,0,0.3c0,0.2,0,0.4,0,0.6
		c0,0.3,0,0.5,0.1,0.8C41.2,191.5,41.1,191.7,40.8,191.8C40.9,191.8,40.9,191.8,40.8,191.8z M239.2,190.5c-0.2,0-0.4-0.1-0.4-0.3
		c0-0.1,0-0.2,0-0.3c-0.1-0.5-0.1-1.1-0.1-1.6c0-0.2,0.2-0.4,0.4-0.4c0.2,0,0.4,0.2,0.4,0.4c0,0.5,0.1,1,0.1,1.6c0,0.1,0,0.2,0,0.3
		C239.6,190.3,239.5,190.5,239.2,190.5C239.2,190.5,239.2,190.5,239.2,190.5z M41,188c-0.2,0-0.4-0.2-0.4-0.4c0,0,0,0,0,0
		c0-0.4,0-0.7,0-1.2c0-0.2,0-0.4-0.1-0.6c0-0.2,0.1-0.4,0.3-0.4c0.2,0,0.4,0.1,0.4,0.3c0,0.2,0,0.4,0.1,0.7c0,0.4,0,0.8,0,1.2
		C41.3,187.8,41.2,188,41,188z M239.1,186.8C239.1,186.8,239.1,186.8,239.1,186.8c-0.2,0-0.4-0.2-0.4-0.4c0.1-0.6,0.1-1.3,0.3-1.9
		c0-0.2,0.2-0.3,0.4-0.3c0.2,0,0.3,0.2,0.3,0.4c-0.1,0.6-0.2,1.2-0.3,1.8C239.4,186.6,239.3,186.8,239.1,186.8z M40.5,184.3
		c-0.2,0-0.3-0.1-0.4-0.3c-0.1-0.6-0.3-1.2-0.5-1.8c-0.1-0.2,0-0.4,0.2-0.5c0.2-0.1,0.4,0,0.5,0.2c0.2,0.6,0.4,1.2,0.6,1.8
		C40.9,184.1,40.8,184.3,40.5,184.3C40.6,184.3,40.6,184.3,40.5,184.3z M239.8,183.1c0,0-0.1,0-0.1,0c-0.2-0.1-0.3-0.3-0.2-0.5
		c0.2-0.6,0.4-1.2,0.7-1.8c0.1-0.2,0.3-0.3,0.5-0.2c0.2,0.1,0.3,0.3,0.2,0.5c-0.3,0.6-0.5,1.1-0.7,1.7
		C240.1,183,240,183.1,239.8,183.1z M39.2,180.8c-0.1,0-0.3-0.1-0.3-0.2c-0.3-0.5-0.6-1.1-0.9-1.6c-0.1-0.2-0.1-0.4,0.1-0.5
		c0.2-0.1,0.4-0.1,0.5,0.1c0.4,0.5,0.7,1.1,1,1.7c0.1,0.2,0,0.4-0.2,0.5C39.4,180.8,39.3,180.8,39.2,180.8z M241.4,179.7
		c-0.1,0-0.1,0-0.2-0.1c-0.2-0.1-0.2-0.3-0.1-0.5c0.3-0.5,0.7-1.1,1.1-1.6c0.1-0.2,0.4-0.2,0.5-0.1c0.2,0.1,0.2,0.4,0.1,0.5
		c-0.4,0.5-0.7,1-1,1.5C241.6,179.6,241.5,179.7,241.4,179.7z M37.2,177.7c-0.1,0-0.2,0-0.3-0.1c-0.4-0.5-0.8-0.9-1.3-1.3
		c-0.2-0.1-0.2-0.4,0-0.5c0.1-0.2,0.4-0.2,0.5,0c0.5,0.4,0.9,0.9,1.3,1.4c0.1,0.2,0.1,0.4,0,0.5C37.4,177.7,37.3,177.7,37.2,177.7z
		 M243.7,176.8c-0.1,0-0.2,0-0.3-0.1c-0.1-0.1-0.1-0.4,0-0.5c0.4-0.5,0.9-0.9,1.4-1.3c0.2-0.1,0.4-0.1,0.5,0.1
		c0.1,0.2,0.1,0.4-0.1,0.5c-0.5,0.4-0.9,0.8-1.4,1.2C243.9,176.7,243.8,176.8,243.7,176.8z M34.5,175.1c-0.1,0-0.2,0-0.2-0.1
		c-0.5-0.4-1-1-1.3-1.6c-0.1-0.2,0-0.4,0.2-0.5c0.2-0.1,0.4,0,0.5,0.2c0.3,0.5,0.6,1,1.1,1.3c0.2,0.1,0.2,0.4,0.1,0.5
		C34.7,175.1,34.6,175.1,34.5,175.1z M246.4,174.2c-0.1,0-0.1,0-0.2-0.1c-0.2-0.1-0.2-0.4-0.1-0.5c0.3-0.5,0.6-1,0.7-1.6
		c0-0.2,0.2-0.3,0.4-0.3c0.2,0,0.3,0.2,0.3,0.4c-0.1,0.7-0.4,1.3-0.8,1.8C246.7,174.1,246.5,174.2,246.4,174.2z M32.7,171.9
		c-0.2,0-0.4-0.1-0.4-0.3c0-0.2,0-0.3,0-0.5c0-0.5,0.1-1,0.2-1.5c0.1-0.2,0.3-0.3,0.5-0.2c0.2,0.1,0.3,0.3,0.2,0.5
		c-0.1,0.4-0.2,0.9-0.2,1.3c0,0.1,0,0.3,0,0.4C33.1,171.7,33,171.9,32.7,171.9C32.8,171.9,32.7,171.9,32.7,171.9z M247.2,170.6
		c-0.2,0-0.3-0.1-0.4-0.3c0-0.2-0.1-0.4-0.2-0.6c-0.1-0.4-0.2-0.7-0.3-1.1c-0.1-0.2,0.1-0.4,0.3-0.5c0.2-0.1,0.4,0.1,0.5,0.3
		c0.1,0.4,0.2,0.7,0.3,1.1c0.1,0.2,0.2,0.5,0.2,0.8C247.6,170.4,247.5,170.6,247.2,170.6C247.3,170.6,247.2,170.6,247.2,170.6z
		 M33.5,168.3C33.4,168.3,33.4,168.3,33.5,168.3c-0.3-0.1-0.4-0.3-0.4-0.5c0.1-0.6,0.2-1.2,0.3-1.8c0-0.2,0.2-0.4,0.4-0.3
		c0.2,0,0.4,0.2,0.3,0.4c-0.1,0.6-0.2,1.3-0.3,1.9C33.8,168.1,33.6,168.3,33.5,168.3z M246.3,167c-0.2,0-0.3-0.1-0.4-0.3
		c-0.1-0.6-0.1-1.3-0.2-1.9c0-0.2,0.2-0.4,0.4-0.4c0.2,0,0.4,0.2,0.4,0.4c0,0.6,0.1,1.2,0.2,1.8C246.7,166.8,246.6,167,246.3,167
		C246.3,167,246.3,167,246.3,167z M33.9,164.5c-0.2,0-0.4-0.2-0.4-0.4c0-0.6,0-1.2-0.1-1.8c0-0.2,0.1-0.4,0.3-0.4
		c0.2,0,0.4,0.1,0.4,0.3c0.1,0.6,0.1,1.3,0.1,1.9C34.2,164.4,34.1,164.5,33.9,164.5C33.9,164.5,33.9,164.5,33.9,164.5z M246.2,163.3
		C246.2,163.3,246.2,163.3,246.2,163.3c-0.2,0-0.4-0.2-0.4-0.4c0.1-0.6,0.1-1.3,0.3-1.9c0-0.2,0.2-0.3,0.4-0.3
		c0.2,0,0.3,0.2,0.3,0.4c-0.1,0.6-0.2,1.2-0.3,1.8C246.5,163.1,246.4,163.3,246.2,163.3z M33.4,160.8c-0.2,0-0.3-0.1-0.4-0.3
		c-0.1-0.6-0.3-1.2-0.5-1.7c-0.1-0.2,0-0.4,0.2-0.5c0.2-0.1,0.4,0,0.5,0.2c0.2,0.6,0.4,1.2,0.6,1.8
		C33.8,160.6,33.7,160.8,33.4,160.8C33.5,160.8,33.4,160.8,33.4,160.8z M246.9,159.6c0,0-0.1,0-0.1,0c-0.2-0.1-0.3-0.3-0.2-0.5
		c0.2-0.6,0.4-1.2,0.7-1.8c0.1-0.2,0.3-0.3,0.5-0.2c0.2,0.1,0.3,0.3,0.2,0.5c-0.3,0.6-0.5,1.1-0.7,1.7
		C247.3,159.5,247.1,159.6,246.9,159.6z M32.1,157.3c-0.1,0-0.3-0.1-0.3-0.2c-0.3-0.5-0.6-1.1-0.9-1.6c-0.1-0.2-0.1-0.4,0.1-0.5
		c0.2-0.1,0.4-0.1,0.5,0.1c0.4,0.5,0.7,1.1,1,1.6c0.1,0.2,0,0.4-0.2,0.5C32.2,157.3,32.2,157.3,32.1,157.3z M248.5,156.2
		c-0.1,0-0.1,0-0.2-0.1c-0.2-0.1-0.2-0.3-0.1-0.5c0.3-0.5,0.7-1.1,1.1-1.6c0.1-0.2,0.4-0.2,0.5-0.1c0.2,0.1,0.2,0.4,0.1,0.5
		c-0.4,0.5-0.7,1-1.1,1.5C248.8,156.2,248.7,156.2,248.5,156.2z M30,154.2c-0.1,0-0.2,0-0.3-0.1c-0.1-0.1-0.1-0.1-0.2-0.2
		c-0.4-0.4-0.7-0.9-0.9-1.5c-0.1-0.2,0-0.4,0.2-0.5c0.2-0.1,0.4,0,0.5,0.2c0.2,0.5,0.5,0.9,0.8,1.2c0.1,0.1,0.1,0.1,0.2,0.2
		c0.1,0.2,0.1,0.4,0,0.5C30.2,154.2,30.1,154.2,30,154.2z M250.8,153.2c-0.1,0-0.1,0-0.2,0c-0.2-0.1-0.2-0.3-0.1-0.5
		c0.3-0.5,0.5-1.1,0.5-1.6c0-0.2,0.2-0.4,0.4-0.3c0.2,0,0.4,0.2,0.3,0.4c-0.1,0.7-0.3,1.3-0.6,1.9
		C251,153.1,250.9,153.2,250.8,153.2z M28.6,150.9C28.6,150.9,28.6,150.9,28.6,150.9c-0.2,0-0.4-0.2-0.4-0.4c0-0.7,0.1-1.3,0.4-2
		c0.1-0.2,0.3-0.3,0.5-0.2c0.2,0.1,0.3,0.3,0.2,0.5c-0.2,0.5-0.3,1.1-0.3,1.7C29,150.7,28.8,150.9,28.6,150.9z M251.2,149.6
		c-0.2,0-0.3-0.1-0.4-0.3c-0.1-0.4-0.2-0.7-0.4-1c-0.1-0.2-0.2-0.4-0.3-0.6c-0.1-0.2,0-0.4,0.2-0.5c0.2-0.1,0.4,0,0.5,0.2
		c0.1,0.2,0.2,0.4,0.3,0.6c0.2,0.4,0.4,0.8,0.5,1.2c0.1,0.2-0.1,0.4-0.3,0.5C251.3,149.6,251.2,149.6,251.2,149.6z M29.9,147.4
		c-0.1,0-0.1,0-0.2,0c-0.2-0.1-0.3-0.3-0.2-0.5c0.3-0.5,0.5-1.1,0.7-1.7c0.1-0.2,0.3-0.3,0.5-0.2c0.2,0.1,0.3,0.3,0.2,0.5
		c-0.2,0.6-0.5,1.2-0.7,1.8C30.1,147.3,30,147.4,29.9,147.4z M249.6,146.2c-0.1,0-0.3-0.1-0.3-0.2c-0.2-0.6-0.4-1.2-0.6-1.8
		c-0.1-0.2,0.1-0.4,0.3-0.5c0.2-0.1,0.4,0.1,0.5,0.3c0.2,0.6,0.3,1.2,0.6,1.7c0.1,0.2,0,0.4-0.2,0.5
		C249.7,146.2,249.7,146.2,249.6,146.2z M31.1,143.8C31.1,143.8,31,143.8,31.1,143.8c-0.3-0.1-0.4-0.3-0.4-0.5
		c0.1-0.6,0.2-1.2,0.3-1.8c0-0.2,0.2-0.4,0.4-0.3c0.2,0,0.4,0.2,0.3,0.4c-0.1,0.6-0.2,1.3-0.3,1.9C31.4,143.7,31.3,143.8,31.1,143.8
		z M248.7,142.6c-0.2,0-0.3-0.1-0.4-0.3c-0.1-0.6-0.1-1.3-0.2-1.9c0-0.2,0.2-0.4,0.4-0.4c0,0,0,0,0,0c0.2,0,0.4,0.2,0.4,0.4
		c0,0.6,0.1,1.2,0.1,1.8C249.1,142.4,248.9,142.5,248.7,142.6C248.7,142.6,248.7,142.6,248.7,142.6z M31.5,140.1
		c-0.2,0-0.4-0.2-0.4-0.4c0-0.6-0.1-1.2-0.1-1.8c0-0.2,0.1-0.4,0.3-0.4c0.2,0,0.4,0.1,0.4,0.3c0.1,0.6,0.1,1.3,0.1,1.9
		C31.9,139.9,31.7,140.1,31.5,140.1C31.5,140.1,31.5,140.1,31.5,140.1z M248.6,138.8C248.6,138.8,248.6,138.8,248.6,138.8
		c-0.2,0-0.4-0.2-0.4-0.4c0.1-0.6,0.2-1.3,0.3-1.9c0-0.2,0.2-0.3,0.4-0.3c0.2,0,0.3,0.2,0.3,0.4c-0.1,0.6-0.2,1.2-0.3,1.8
		C248.9,138.7,248.8,138.8,248.6,138.8z M31,136.4c-0.2,0-0.3-0.1-0.4-0.3c-0.2-0.6-0.3-1.2-0.6-1.7c-0.1-0.2,0-0.4,0.2-0.5
		c0.2-0.1,0.4,0,0.5,0.2c0.2,0.6,0.4,1.2,0.6,1.8C31.4,136.1,31.3,136.3,31,136.4C31,136.4,31,136.4,31,136.4z M249.4,135.2
		c0,0-0.1,0-0.1,0c-0.2-0.1-0.3-0.3-0.2-0.5c0.2-0.6,0.5-1.2,0.7-1.8c0.1-0.2,0.3-0.3,0.5-0.2c0.2,0.1,0.3,0.3,0.2,0.5
		c-0.3,0.5-0.5,1.1-0.7,1.7C249.7,135.1,249.5,135.2,249.4,135.2z M29.6,132.9c-0.1,0-0.3-0.1-0.3-0.2c-0.1-0.2-0.2-0.4-0.4-0.6
		c-0.2-0.4-0.4-0.7-0.5-1.1c-0.1-0.2,0.1-0.4,0.3-0.5c0.2-0.1,0.4,0.1,0.5,0.3c0.1,0.3,0.2,0.7,0.4,1c0.1,0.2,0.3,0.4,0.4,0.7
		c0.1,0.2,0,0.4-0.2,0.5C29.8,132.9,29.7,132.9,29.6,132.9z M251,131.8c-0.1,0-0.1,0-0.2,0c-0.2-0.1-0.3-0.3-0.2-0.5
		c0.2-0.5,0.4-1.1,0.4-1.7c0-0.2,0.2-0.4,0.4-0.4c0.2,0,0.4,0.2,0.4,0.4c0,0.7-0.2,1.3-0.4,2C251.3,131.7,251.1,131.8,251,131.8z
		 M28.6,129.4C28.6,129.4,28.6,129.4,28.6,129.4c-0.2,0-0.4-0.2-0.4-0.4c0.1-0.7,0.3-1.3,0.6-1.9c0.1-0.2,0.3-0.2,0.5-0.1
		c0.2,0.1,0.2,0.3,0.1,0.5c-0.3,0.5-0.5,1.1-0.5,1.6C29,129.2,28.8,129.4,28.6,129.4z M251,128.1c-0.1,0-0.3-0.1-0.3-0.2
		c-0.2-0.5-0.5-0.9-0.8-1.3l-0.1-0.2c-0.1-0.2-0.1-0.4,0-0.5c0.2-0.1,0.4-0.1,0.5,0l0.1,0.2c0.4,0.5,0.7,1,0.9,1.5
		c0.1,0.2,0,0.4-0.2,0.5C251.1,128.1,251.1,128.1,251,128.1z M30.3,126.1c-0.1,0-0.2,0-0.2-0.1c-0.2-0.1-0.2-0.4-0.1-0.5
		c0.4-0.5,0.7-1,1.1-1.5c0.1-0.2,0.3-0.2,0.5-0.1c0.2,0.1,0.2,0.3,0.1,0.5c-0.3,0.5-0.7,1.1-1.1,1.6
		C30.6,126.1,30.4,126.1,30.3,126.1z M248.9,125.1c-0.1,0-0.2-0.1-0.3-0.2c-0.4-0.5-0.7-1.1-1-1.6c-0.1-0.2,0-0.4,0.2-0.5
		c0.2-0.1,0.4,0,0.5,0.2c0.3,0.5,0.6,1.1,0.9,1.6c0.1,0.2,0.1,0.4-0.1,0.5C249,125.1,249,125.1,248.9,125.1z M32.3,122.9
		c-0.1,0-0.1,0-0.2,0c-0.2-0.1-0.3-0.3-0.2-0.5c0.3-0.5,0.5-1.1,0.7-1.7c0.1-0.2,0.3-0.3,0.5-0.2c0.2,0.1,0.3,0.3,0.2,0.5
		c-0.2,0.6-0.4,1.2-0.7,1.8C32.6,122.9,32.5,122.9,32.3,122.9z M247.2,121.8c-0.2,0-0.3-0.1-0.4-0.2c-0.2-0.6-0.4-1.2-0.6-1.8
		c-0.1-0.2,0.1-0.4,0.3-0.5c0.2,0,0.4,0.1,0.5,0.3c0.1,0.6,0.3,1.2,0.5,1.7c0.1,0.2,0,0.4-0.2,0.5
		C247.3,121.8,247.2,121.8,247.2,121.8z M33.5,119.4C33.5,119.4,33.5,119.4,33.5,119.4c-0.3-0.1-0.4-0.3-0.4-0.5
		c0.1-0.6,0.2-1.2,0.3-1.8c0-0.2,0.2-0.4,0.4-0.3c0.2,0,0.4,0.2,0.3,0.4c-0.1,0.6-0.2,1.3-0.3,1.9C33.9,119.3,33.7,119.4,33.5,119.4
		z M246.3,118.1c-0.2,0-0.3-0.1-0.4-0.3c-0.1-0.6-0.1-1.3-0.1-1.9c0-0.2,0.2-0.4,0.4-0.4c0.2,0,0.4,0.2,0.4,0.4
		c0,0.6,0.1,1.2,0.1,1.8C246.7,117.9,246.5,118.1,246.3,118.1C246.3,118.1,246.3,118.1,246.3,118.1z M33.9,115.7
		c-0.2,0-0.4-0.2-0.4-0.4c0-0.6-0.1-1.2-0.2-1.8c0-0.2,0.1-0.4,0.3-0.4c0.2,0,0.4,0.1,0.4,0.3c0.1,0.6,0.1,1.3,0.2,1.9
		C34.2,115.5,34.1,115.7,33.9,115.7C33.9,115.7,33.9,115.7,33.9,115.7z M246.2,114.4C246.2,114.4,246.2,114.4,246.2,114.4
		c-0.2,0-0.4-0.2-0.4-0.4c0.1-0.6,0.2-1.3,0.3-1.9c0-0.2,0.2-0.3,0.4-0.3c0.2,0,0.3,0.2,0.3,0.4c-0.1,0.6-0.2,1.2-0.3,1.8
		C246.6,114.3,246.4,114.4,246.2,114.4z M33.3,112c-0.2,0-0.3-0.1-0.4-0.3c-0.1-0.4-0.2-0.8-0.3-1.1c-0.1-0.2-0.1-0.5-0.2-0.7
		c0-0.2,0.1-0.4,0.3-0.4c0.2,0,0.4,0.1,0.4,0.3c0,0.2,0.1,0.4,0.2,0.6c0.1,0.4,0.3,0.8,0.4,1.2C33.8,111.7,33.6,111.9,33.3,112
		C33.4,112,33.4,112,33.3,112z M247,110.7c0,0-0.1,0-0.1,0c-0.2-0.1-0.3-0.3-0.2-0.5c0.1-0.4,0.2-0.9,0.2-1.4c0-0.1,0-0.2,0-0.3
		c0-0.2,0.1-0.4,0.3-0.4c0.2,0,0.4,0.1,0.4,0.3c0,0.1,0,0.3,0,0.4c0,0.5-0.1,1.1-0.3,1.6C247.3,110.6,247.2,110.7,247,110.7z
		 M32.8,108.3C32.8,108.3,32.8,108.3,32.8,108.3c-0.3,0-0.4-0.2-0.4-0.5c0.1-0.7,0.4-1.3,0.8-1.8c0.1-0.2,0.3-0.2,0.5-0.1
		c0.2,0.1,0.2,0.3,0.1,0.5c-0.3,0.5-0.6,1-0.7,1.6C33.1,108.2,33,108.3,32.8,108.3z M246.8,107.1c-0.1,0-0.3-0.1-0.3-0.2
		c-0.3-0.5-0.6-1-1.1-1.3c-0.2-0.1-0.2-0.4,0-0.5c0.1-0.2,0.4-0.2,0.5,0c0.5,0.4,0.9,1,1.2,1.6c0.1,0.2,0,0.4-0.2,0.5
		C246.9,107.1,246.8,107.1,246.8,107.1z M34.9,105.3c-0.1,0-0.2,0-0.3-0.1c-0.1-0.2-0.1-0.4,0.1-0.5c0.5-0.4,0.9-0.8,1.4-1.2
		c0.1-0.1,0.4-0.1,0.5,0c0.1,0.1,0.1,0.4,0,0.5c-0.5,0.5-0.9,0.9-1.4,1.3C35,105.3,34.9,105.3,34.9,105.3z M244.2,104.5
		c-0.1,0-0.2,0-0.3-0.1c-0.5-0.4-0.9-0.9-1.3-1.4c-0.1-0.2-0.1-0.4,0-0.5c0.2-0.1,0.4-0.1,0.5,0c0.4,0.5,0.8,0.9,1.3,1.3
		c0.2,0.1,0.2,0.4,0,0.5C244.4,104.4,244.3,104.5,244.2,104.5z M37.5,102.6c-0.1,0-0.2,0-0.2-0.1c-0.2-0.1-0.2-0.4-0.1-0.5
		c0.4-0.5,0.7-1,1-1.5c0.1-0.2,0.3-0.2,0.5-0.1c0.2,0.1,0.2,0.3,0.1,0.5c-0.3,0.5-0.7,1.1-1.1,1.6C37.7,102.6,37.6,102.6,37.5,102.6
		z M241.7,101.6c-0.1,0-0.2-0.1-0.3-0.2c-0.4-0.5-0.7-1.1-1-1.7c-0.1-0.2,0-0.4,0.2-0.5c0.2-0.1,0.4,0,0.5,0.2
		c0.3,0.5,0.6,1.1,0.9,1.6c0.1,0.2,0.1,0.4-0.1,0.5C241.9,101.6,241.8,101.6,241.7,101.6z M39.5,99.5c-0.1,0-0.1,0-0.2,0
		c-0.2-0.1-0.3-0.3-0.2-0.5c0.3-0.6,0.5-1.1,0.7-1.7c0.1-0.2,0.3-0.3,0.5-0.2c0.2,0.1,0.3,0.3,0.2,0.5c-0.2,0.6-0.4,1.2-0.7,1.8
		C39.7,99.4,39.6,99.5,39.5,99.5z M240,98.3c-0.2,0-0.3-0.1-0.4-0.2c-0.2-0.6-0.4-1.2-0.6-1.8c0-0.2,0.1-0.4,0.3-0.5
		c0.2-0.1,0.4,0.1,0.5,0.3c0.1,0.6,0.3,1.2,0.5,1.7c0.1,0.2,0,0.4-0.2,0.5C240.1,98.3,240.1,98.3,240,98.3z M40.6,95.9
		C40.6,95.9,40.6,95.9,40.6,95.9c-0.3,0-0.4-0.2-0.4-0.4c0.1-0.6,0.2-1.2,0.3-1.8c0-0.2,0.2-0.4,0.4-0.3c0.2,0,0.4,0.2,0.3,0.4
		c-0.1,0.6-0.1,1.3-0.3,1.9C41,95.8,40.8,95.9,40.6,95.9z M239.2,94.6c-0.2,0-0.3-0.1-0.4-0.3c-0.1-0.6-0.1-1.3-0.1-1.9
		c0-0.2,0.2-0.4,0.4-0.4c0,0,0,0,0,0c0.2,0,0.4,0.2,0.4,0.4c0,0.6,0,1.2,0.1,1.8C239.6,94.4,239.4,94.6,239.2,94.6
		C239.2,94.6,239.2,94.6,239.2,94.6z M40.9,92.2c-0.2,0-0.4-0.2-0.4-0.4c0-0.5-0.1-1.1-0.1-1.6c0-0.1,0-0.1,0-0.2
		c0-0.2,0.1-0.4,0.3-0.4c0.2,0,0.4,0.1,0.4,0.3c0,0.1,0,0.1,0,0.2c0.1,0.6,0.1,1.1,0.1,1.7C41.3,92,41.2,92.2,40.9,92.2
		C41,92.2,41,92.2,40.9,92.2z M239.1,90.9C239.1,90.9,239.1,90.9,239.1,90.9c-0.2,0-0.4-0.2-0.4-0.4c0-0.1,0-0.3,0-0.4
		c0-0.2,0-0.4,0-0.6c0-0.3,0-0.5-0.1-0.8c0-0.2,0.1-0.4,0.3-0.4c0.2,0,0.4,0.1,0.4,0.3c0.1,0.3,0.1,0.6,0.1,0.9c0,0.2,0,0.5-0.1,0.7
		c0,0.1,0,0.2,0,0.4C239.5,90.8,239.3,90.9,239.1,90.9z M41,88.5c0,0-0.1,0-0.1,0c-0.2-0.1-0.3-0.3-0.2-0.5c0.2-0.6,0.5-1.2,1-1.8
		c0.1-0.2,0.4-0.2,0.5,0c0.2,0.1,0.2,0.4,0,0.5c-0.4,0.4-0.6,1-0.8,1.5C41.3,88.4,41.1,88.5,41,88.5z M238.5,87.3
		c-0.1,0-0.2-0.1-0.3-0.2c-0.3-0.5-0.7-0.9-1.2-1.2c-0.2-0.1-0.2-0.4-0.1-0.5c0.1-0.2,0.4-0.2,0.5-0.1c0.6,0.4,1,0.9,1.4,1.4
		c0.1,0.2,0.1,0.4-0.1,0.5C238.6,87.3,238.6,87.3,238.5,87.3z M43.3,85.7c-0.1,0-0.3-0.1-0.3-0.2c-0.1-0.2,0-0.4,0.2-0.5l0.1-0.1
		c0.5-0.2,1-0.5,1.5-0.8c0.2-0.1,0.4-0.1,0.5,0.1c0.1,0.2,0.1,0.4-0.1,0.5c-0.5,0.3-1,0.6-1.6,0.9l-0.1,0.1
		C43.4,85.6,43.4,85.7,43.3,85.7z M235.5,85.1c-0.1,0-0.1,0-0.2,0c-0.6-0.3-1.1-0.7-1.6-1.1c-0.2-0.1-0.2-0.4-0.1-0.5
		c0.1-0.2,0.4-0.2,0.5-0.1c0.5,0.4,1,0.7,1.5,1c0.2,0.1,0.2,0.3,0.1,0.5C235.8,85,235.7,85.1,235.5,85.1z M46.5,83.7
		c-0.1,0-0.2,0-0.3-0.1c-0.1-0.2-0.1-0.4,0.1-0.5c0.5-0.4,0.9-0.8,1.4-1.2c0.1-0.1,0.4-0.1,0.5,0c0.1,0.1,0.1,0.4,0,0.5
		c-0.4,0.5-0.9,0.9-1.4,1.3C46.7,83.6,46.6,83.7,46.5,83.7z M232.5,82.8c-0.1,0-0.2,0-0.3-0.1c-0.5-0.4-0.9-0.9-1.3-1.4
		c-0.1-0.2-0.1-0.4,0-0.5c0.2-0.1,0.4-0.1,0.5,0c0.4,0.5,0.8,0.9,1.3,1.3c0.2,0.1,0.2,0.4,0,0.5C232.7,82.8,232.6,82.8,232.5,82.8z
		 M49.1,81c-0.1,0-0.2,0-0.2-0.1c-0.2-0.1-0.2-0.4-0.1-0.5c0.2-0.3,0.4-0.6,0.6-0.9c0.1-0.2,0.3-0.4,0.4-0.6
		c0.1-0.2,0.3-0.2,0.5-0.1c0.2,0.1,0.2,0.3,0.1,0.5c-0.1,0.2-0.3,0.4-0.4,0.6c-0.2,0.3-0.4,0.6-0.7,0.9C49.3,81,49.2,81,49.1,81z
		 M230.1,80c-0.1,0-0.2-0.1-0.3-0.2c-0.3-0.5-0.7-1.1-1-1.7c-0.1-0.2,0-0.4,0.2-0.5c0.2-0.1,0.4,0,0.5,0.2c0.3,0.5,0.6,1.1,0.9,1.6
		c0.1,0.2,0.1,0.4-0.1,0.5C230.3,79.9,230.2,80,230.1,80z M51,77.8c-0.1,0-0.1,0-0.2,0c-0.2-0.1-0.3-0.3-0.2-0.5
		c0.3-0.6,0.5-1.1,0.7-1.7c0.1-0.2,0.3-0.3,0.5-0.2c0.2,0.1,0.3,0.3,0.2,0.5c-0.2,0.6-0.4,1.2-0.7,1.8C51.3,77.7,51.2,77.8,51,77.8z
		 M228.5,76.6c-0.2,0-0.3-0.1-0.4-0.2c-0.2-0.6-0.4-1.2-0.5-1.8c0-0.2,0.1-0.4,0.3-0.4c0.2,0,0.4,0.1,0.4,0.3
		c0.1,0.6,0.3,1.2,0.5,1.8c0.1,0.2,0,0.4-0.2,0.5C228.6,76.6,228.5,76.6,228.5,76.6z M52.2,74.2C52.2,74.2,52.1,74.2,52.2,74.2
		c-0.3,0-0.4-0.2-0.4-0.4c0.1-0.6,0.2-1.2,0.2-1.8c0-0.2,0.2-0.4,0.4-0.3c0.2,0,0.4,0.2,0.3,0.4c0,0.6-0.1,1.3-0.3,1.9
		C52.5,74.1,52.4,74.2,52.2,74.2z M227.6,73c-0.2,0-0.4-0.1-0.4-0.3c0-0.3-0.1-0.6-0.1-0.9c0-0.3-0.1-0.6-0.2-0.9
		c-0.1-0.2,0.1-0.4,0.3-0.5c0.2-0.1,0.4,0.1,0.5,0.3c0.1,0.4,0.2,0.7,0.2,1.1c0,0.3,0,0.6,0.1,0.8C228,72.8,227.9,72.9,227.6,73
		C227.7,73,227.6,73,227.6,73z M52.8,70.6c0,0-0.1,0-0.1,0c-0.2-0.1-0.3-0.3-0.2-0.5c0.2-0.4,0.4-0.9,0.8-1.3
		c0.1-0.1,0.2-0.3,0.4-0.4c0.1-0.1,0.4-0.1,0.5,0c0.1,0.1,0.1,0.4,0,0.5c-0.1,0.1-0.2,0.2-0.3,0.3c-0.3,0.3-0.5,0.7-0.6,1.1
		C53.1,70.5,52.9,70.6,52.8,70.6z M226.5,69.5c-0.1,0-0.2,0-0.3-0.1l0-0.1c-0.4-0.4-0.8-0.8-1.3-1.1c-0.2-0.1-0.2-0.3-0.1-0.5
		c0.1-0.2,0.3-0.2,0.5-0.1c0.6,0.3,1.1,0.7,1.5,1.2l0.1,0.1c0.1,0.2,0.1,0.4-0.1,0.5C226.7,69.4,226.6,69.5,226.5,69.5z M55.4,68
		c-0.1,0-0.3-0.1-0.3-0.2c-0.1-0.2,0-0.4,0.2-0.5c0.2-0.1,0.4-0.1,0.6-0.2c0.4-0.1,0.8-0.2,1.2-0.4c0.2-0.1,0.4,0,0.5,0.2
		c0.1,0.2,0,0.4-0.2,0.5c-0.4,0.1-0.8,0.3-1.2,0.4c-0.2,0-0.4,0.1-0.5,0.2C55.5,68,55.5,68,55.4,68z M223.4,67.6c0,0-0.1,0-0.1,0
		c-0.6-0.2-1.2-0.4-1.8-0.7c-0.2-0.1-0.3-0.3-0.2-0.5c0.1-0.2,0.3-0.3,0.5-0.2c0.6,0.2,1.1,0.5,1.7,0.6c0.2,0.1,0.3,0.3,0.2,0.5
		C223.7,67.5,223.5,67.6,223.4,67.6z M58.9,66.7c-0.1,0-0.3-0.1-0.3-0.2c-0.1-0.2,0-0.4,0.2-0.5c0.5-0.3,1.1-0.6,1.6-0.9
		c0.2-0.1,0.4-0.1,0.5,0.1c0.1,0.2,0.1,0.4-0.1,0.5c-0.5,0.3-1.1,0.7-1.7,0.9C59,66.7,59,66.7,58.9,66.7z M219.9,66.1
		c-0.1,0-0.1,0-0.2-0.1c-0.5-0.3-1.1-0.7-1.6-1.1c-0.2-0.1-0.2-0.4-0.1-0.5c0.1-0.2,0.4-0.2,0.5-0.1c0.5,0.4,1,0.7,1.5,1
		c0.2,0.1,0.2,0.3,0.1,0.5C220.2,66.1,220.1,66.1,219.9,66.1z M62.1,64.7c-0.1,0-0.2,0-0.3-0.1c-0.1-0.2-0.1-0.4,0.1-0.5
		c0.4-0.3,0.8-0.7,1.2-1c0.1-0.1,0.1-0.1,0.2-0.2c0.1-0.1,0.4-0.2,0.5,0c0.1,0.1,0.2,0.4,0,0.5c-0.1,0.1-0.1,0.1-0.2,0.2
		c-0.4,0.4-0.8,0.7-1.2,1.1C62.2,64.7,62.2,64.7,62.1,64.7z M217,63.9c-0.1,0-0.2,0-0.3-0.1c-0.1-0.1-0.2-0.1-0.2-0.2
		c-0.4-0.4-0.7-0.8-1.1-1.2c-0.1-0.2-0.1-0.4,0.1-0.5c0.2-0.1,0.4-0.1,0.5,0.1c0.3,0.4,0.7,0.8,1,1.1c0.1,0.1,0.1,0.1,0.2,0.2
		c0.1,0.1,0.2,0.4,0,0.5C217.2,63.8,217.1,63.9,217,63.9z M64.7,62c-0.1,0-0.2,0-0.2-0.1c-0.2-0.1-0.2-0.4-0.1-0.5
		c0.4-0.5,0.7-1,1-1.5c0.1-0.2,0.3-0.2,0.5-0.1c0.2,0.1,0.2,0.3,0.1,0.5c-0.3,0.5-0.7,1.1-1.1,1.6C64.9,62,64.8,62,64.7,62z
		 M214.6,61c-0.1,0-0.2-0.1-0.3-0.2c-0.3-0.5-0.7-1.1-0.9-1.7c-0.1-0.2,0-0.4,0.2-0.5c0.2-0.1,0.4,0,0.5,0.2
		c0.3,0.5,0.6,1.1,0.9,1.6c0.1,0.2,0.1,0.4-0.1,0.5C214.7,60.9,214.7,61,214.6,61z M66.6,58.8c-0.1,0-0.1,0-0.2,0
		c-0.2-0.1-0.3-0.3-0.2-0.5c0.2-0.6,0.5-1.1,0.6-1.7c0.1-0.2,0.3-0.3,0.5-0.2c0.2,0.1,0.3,0.3,0.2,0.5c-0.2,0.6-0.4,1.2-0.7,1.8
		C66.9,58.7,66.7,58.8,66.6,58.8z M212.9,57.6c-0.2,0-0.3-0.1-0.4-0.3c-0.1-0.4-0.3-0.9-0.4-1.3c0-0.2-0.1-0.3-0.2-0.5
		c-0.1-0.2,0-0.4,0.2-0.5c0.2-0.1,0.4,0,0.5,0.2c0.1,0.2,0.1,0.4,0.2,0.6c0.1,0.4,0.2,0.8,0.4,1.2c0.1,0.2,0,0.4-0.2,0.5
		C213,57.6,213,57.6,212.9,57.6z M67.9,55.3c-0.1,0-0.1,0-0.2,0c-0.2-0.1-0.2-0.3-0.2-0.5c0.3-0.6,0.7-1.1,1.2-1.5l0,0
		c0.2-0.1,0.4-0.1,0.5,0.1c0.1,0.2,0.1,0.4-0.1,0.5l0,0c-0.4,0.4-0.8,0.8-1.1,1.3C68.1,55.2,68,55.3,67.9,55.3z M211.4,54.2
		c-0.1,0-0.2,0-0.3-0.1c-0.1-0.1-0.2-0.2-0.4-0.3c-0.3-0.3-0.7-0.5-1-0.6c-0.2-0.1-0.3-0.3-0.2-0.5c0.1-0.2,0.3-0.3,0.5-0.2
		c0.4,0.2,0.8,0.4,1.2,0.7c0.2,0.1,0.3,0.3,0.4,0.4c0.1,0.1,0.1,0.4,0,0.5C211.6,54.2,211.5,54.2,211.4,54.2z M70.7,53
		c-0.2,0-0.3-0.1-0.4-0.3c-0.1-0.2,0.1-0.4,0.3-0.5c0.4-0.1,0.7-0.2,1.1-0.2c0.3,0,0.5,0,0.8-0.1c0.2,0,0.4,0.1,0.4,0.3
		c0,0.2-0.1,0.4-0.3,0.4c-0.3,0-0.5,0.1-0.8,0.1c-0.3,0-0.7,0.1-1,0.2C70.8,53,70.7,53,70.7,53z M208,52.8
		C208,52.8,208,52.8,208,52.8c-0.7,0-1.3-0.1-1.9-0.2c-0.2,0-0.3-0.2-0.3-0.4c0-0.2,0.2-0.3,0.4-0.3c0.6,0.1,1.2,0.2,1.8,0.2
		c0.2,0,0.4,0.2,0.3,0.4C208.4,52.6,208.2,52.8,208,52.8z M74.4,52.4c-0.2,0-0.3-0.1-0.4-0.3c0-0.2,0.1-0.4,0.3-0.4
		c0.6-0.1,1.2-0.3,1.8-0.5c0.2-0.1,0.4,0,0.5,0.2c0.1,0.2,0,0.4-0.2,0.5C75.7,52.1,75.1,52.3,74.4,52.4
		C74.5,52.4,74.4,52.4,74.4,52.4z M204.4,52.1c0,0-0.1,0-0.1,0c-0.6-0.2-1.2-0.4-1.8-0.7c-0.2-0.1-0.3-0.3-0.2-0.5
		c0.1-0.2,0.3-0.3,0.5-0.2c0.6,0.2,1.1,0.5,1.7,0.7c0.2,0.1,0.3,0.3,0.2,0.5C204.7,52,204.5,52.1,204.4,52.1z M77.9,51.2
		c-0.1,0-0.3-0.1-0.3-0.2c-0.1-0.2,0-0.4,0.2-0.5c0.5-0.3,1.1-0.6,1.6-0.9c0.2-0.1,0.4-0.1,0.5,0.1c0.1,0.2,0.1,0.4-0.1,0.5
		c-0.5,0.3-1.1,0.7-1.7,0.9C78,51.2,78,51.2,77.9,51.2z M200.9,50.6c-0.1,0-0.1,0-0.2-0.1c-0.2-0.1-0.4-0.3-0.7-0.4
		c-0.3-0.2-0.6-0.4-0.9-0.7c-0.2-0.1-0.2-0.4-0.1-0.5c0.1-0.2,0.4-0.2,0.5-0.1c0.3,0.2,0.6,0.4,0.9,0.6c0.2,0.1,0.4,0.3,0.6,0.4
		c0.2,0.1,0.2,0.3,0.1,0.5C201.2,50.5,201.1,50.6,200.9,50.6z M81.1,49.1c-0.1,0-0.2,0-0.3-0.1c-0.1-0.2-0.1-0.4,0-0.5
		c0.5-0.4,0.9-0.8,1.3-1.3c0.1-0.1,0.4-0.2,0.5,0c0.2,0.1,0.2,0.4,0,0.5c-0.4,0.5-0.9,0.9-1.4,1.3C81.2,49.1,81.1,49.1,81.1,49.1z
		 M198,48.3c-0.1,0-0.2,0-0.3-0.1c-0.5-0.4-0.9-0.9-1.3-1.4c-0.1-0.2-0.1-0.4,0.1-0.5c0.2-0.1,0.4-0.1,0.5,0.1
		c0.4,0.5,0.8,0.9,1.2,1.4c0.1,0.1,0.2,0.4,0,0.5C198.2,48.2,198.1,48.3,198,48.3z M83.6,46.4c-0.1,0-0.2,0-0.2-0.1
		c-0.2-0.1-0.2-0.4-0.1-0.5c0.4-0.5,0.7-1,1-1.5c0.1-0.2,0.3-0.2,0.5-0.1c0.2,0.1,0.2,0.3,0.1,0.5c-0.3,0.6-0.7,1.1-1.1,1.6
		C83.9,46.4,83.7,46.4,83.6,46.4z M195.6,45.4c-0.1,0-0.2-0.1-0.3-0.2c-0.3-0.5-0.6-1.1-0.9-1.6l0-0.1c-0.1-0.2,0-0.4,0.2-0.5
		c0.2-0.1,0.4,0,0.5,0.2l0,0.1c0.3,0.5,0.5,1,0.8,1.5c0.1,0.2,0.1,0.4-0.1,0.5C195.8,45.3,195.7,45.4,195.6,45.4z M85.6,43.2
		c-0.1,0-0.1,0-0.2-0.1c-0.2-0.1-0.2-0.3-0.1-0.5c0.4-0.6,0.9-1,1.4-1.4c0.2-0.1,0.4-0.1,0.5,0.1c0.1,0.2,0.1,0.4-0.1,0.5
		c-0.5,0.3-0.9,0.7-1.2,1.2C85.8,43.2,85.7,43.2,85.6,43.2z M193.6,42.3c-0.1,0-0.2,0-0.2-0.1c-0.4-0.4-0.9-0.7-1.5-0.8
		c-0.2-0.1-0.3-0.3-0.2-0.5c0.1-0.2,0.3-0.3,0.5-0.2c0.6,0.2,1.2,0.5,1.8,1c0.2,0.1,0.2,0.4,0,0.5C193.8,42.2,193.7,42.3,193.6,42.3
		z M92.4,41.3c-0.2,0-0.4-0.2-0.4-0.4c0-0.2,0.2-0.4,0.4-0.4c0.6,0,1.2,0,1.8-0.1c0.2,0,0.4,0.1,0.4,0.3c0,0.2-0.1,0.4-0.3,0.4
		C93.6,41.3,93,41.3,92.4,41.3z M188.2,41.3c-0.2,0-0.4-0.2-0.4-0.4c0-0.2,0.2-0.4,0.4-0.4c0.5,0,1.1-0.1,1.6-0.1c0.1,0,0.2,0,0.3,0
		c0.2,0,0.4,0.1,0.4,0.3c0,0.2-0.1,0.4-0.3,0.4c-0.1,0-0.1,0-0.2,0C189.4,41.3,188.8,41.3,188.2,41.3
		C188.2,41.3,188.2,41.3,188.2,41.3z M186.4,41.3C186.3,41.3,186.3,41.3,186.4,41.3c-0.7-0.1-1.3-0.1-1.9-0.3
		c-0.2,0-0.3-0.2-0.3-0.4c0-0.2,0.2-0.3,0.4-0.3c0.6,0.1,1.2,0.2,1.8,0.3c0.2,0,0.4,0.2,0.3,0.4C186.7,41.1,186.6,41.3,186.4,41.3z
		 M90.5,41.2C90.5,41.2,90.5,41.2,90.5,41.2c-0.2,0-0.3,0-0.4,0c-0.5-0.1-0.9-0.1-1.4,0c-0.2,0-0.4-0.1-0.4-0.3
		c0-0.2,0.1-0.4,0.3-0.4c0.5-0.1,1.1-0.1,1.6,0c0.1,0,0.2,0,0.3,0c0.2,0,0.4,0.2,0.3,0.4C90.8,41.1,90.7,41.2,90.5,41.2z M96.1,40.9
		c-0.2,0-0.3-0.1-0.4-0.3c0-0.2,0.1-0.4,0.3-0.5c0.6-0.1,1.2-0.3,1.8-0.5c0.2-0.1,0.4,0,0.5,0.2s0,0.4-0.2,0.5
		C97.4,40.5,96.8,40.7,96.1,40.9C96.1,40.9,96.1,40.9,96.1,40.9z M182.7,40.5c0,0-0.1,0-0.1,0c-0.6-0.2-1.2-0.4-1.8-0.7
		c-0.2-0.1-0.3-0.3-0.2-0.5c0.1-0.2,0.3-0.3,0.5-0.2c0.6,0.3,1.1,0.5,1.7,0.7c0.2,0.1,0.3,0.3,0.2,0.5
		C183,40.4,182.9,40.5,182.7,40.5z M99.6,39.6c-0.1,0-0.3-0.1-0.3-0.2c-0.1-0.2,0-0.4,0.2-0.5c0.5-0.3,1.1-0.6,1.6-0.9
		c0.2-0.1,0.4-0.1,0.5,0.1c0.1,0.2,0.1,0.4-0.1,0.5c-0.5,0.4-1.1,0.7-1.7,1C99.7,39.6,99.6,39.6,99.6,39.6z M179.3,39
		c-0.1,0-0.1,0-0.2-0.1c-0.5-0.3-1.1-0.7-1.6-1.1c-0.2-0.1-0.2-0.4-0.1-0.5c0.1-0.2,0.4-0.2,0.5-0.1c0.5,0.4,1,0.7,1.5,1
		c0.2,0.1,0.2,0.3,0.1,0.5C179.5,38.9,179.4,39,179.3,39z M102.7,37.5c-0.1,0-0.2,0-0.3-0.1c-0.1-0.2-0.1-0.4,0-0.5
		c0.5-0.4,0.9-0.8,1.3-1.3c0.1-0.2,0.4-0.2,0.5,0c0.2,0.1,0.2,0.4,0,0.5c-0.4,0.5-0.9,0.9-1.4,1.3C102.9,37.5,102.8,37.5,102.7,37.5
		z M176.4,36.7c-0.1,0-0.2,0-0.3-0.1c-0.5-0.5-0.9-0.9-1.3-1.4c-0.1-0.2-0.1-0.4,0.1-0.5c0.2-0.1,0.4-0.1,0.5,0.1
		c0.4,0.5,0.8,0.9,1.2,1.4c0.1,0.1,0.1,0.4,0,0.5C176.5,36.6,176.5,36.7,176.4,36.7z M105.3,34.8c-0.1,0-0.2,0-0.2-0.1
		c-0.2-0.1-0.2-0.4,0-0.5c0.4-0.5,1-1,1.6-1.3c0.2-0.1,0.4,0,0.5,0.2c0.1,0.2,0,0.4-0.2,0.5c-0.5,0.3-1,0.6-1.3,1.1
		C105.5,34.8,105.4,34.8,105.3,34.8z M115.9,34.2c-0.2,0-0.4-0.2-0.4-0.4c0-0.2,0.2-0.4,0.4-0.4c0.6,0,1.2,0,1.8-0.1
		c0.2,0,0.4,0.1,0.4,0.3c0,0.2-0.1,0.4-0.3,0.4C117.1,34.2,116.5,34.2,115.9,34.2C115.9,34.2,115.9,34.2,115.9,34.2z M164.7,34.2
		c-0.2,0-0.4-0.2-0.4-0.4c0-0.2,0.2-0.4,0.4-0.4c0.6,0,1.2-0.1,1.8-0.2c0.2,0,0.4,0.1,0.4,0.3c0,0.2-0.1,0.4-0.3,0.4
		C166,34.2,165.4,34.2,164.7,34.2C164.7,34.2,164.7,34.2,164.7,34.2z M162.9,34.2C162.8,34.2,162.8,34.2,162.9,34.2
		c-0.7-0.1-1.3-0.2-1.9-0.3c-0.2,0-0.3-0.2-0.3-0.4c0-0.2,0.2-0.3,0.4-0.3c0.6,0.1,1.2,0.2,1.8,0.3c0.2,0,0.4,0.2,0.3,0.4
		C163.2,34,163,34.2,162.9,34.2z M114,34.2C114,34.2,114,34.2,114,34.2c-0.7-0.1-1.3-0.2-1.9-0.3c-0.2,0-0.3-0.2-0.3-0.4
		c0-0.2,0.2-0.3,0.4-0.3c0.6,0.1,1.2,0.2,1.8,0.3c0.2,0,0.4,0.2,0.3,0.4C114.3,34,114.2,34.2,114,34.2z M173.8,33.9
		c-0.1,0-0.1,0-0.2-0.1c-0.5-0.3-1-0.6-1.6-0.7c-0.2,0-0.3-0.2-0.3-0.4c0-0.2,0.2-0.3,0.4-0.3c0.7,0.1,1.3,0.4,1.8,0.8
		c0.2,0.1,0.2,0.4,0.1,0.5C174,33.9,173.9,33.9,173.8,33.9z M119.6,33.8c-0.2,0-0.3-0.1-0.4-0.3c0-0.2,0.1-0.4,0.3-0.5
		c0.6-0.1,1.2-0.3,1.7-0.5c0.2-0.1,0.4,0,0.5,0.2c0.1,0.2,0,0.4-0.2,0.5C120.9,33.4,120.3,33.6,119.6,33.8
		C119.6,33.8,119.6,33.8,119.6,33.8z M168.4,33.7c-0.2,0-0.3-0.1-0.4-0.3c-0.1-0.2,0.1-0.4,0.3-0.5c0.4-0.1,0.7-0.2,1.1-0.3
		c0.2-0.1,0.5-0.2,0.7-0.2c0.2,0,0.4,0.1,0.4,0.3c0,0.2-0.1,0.4-0.3,0.4c-0.2,0-0.4,0.1-0.6,0.2C169.3,33.5,168.9,33.6,168.4,33.7
		C168.5,33.7,168.5,33.7,168.4,33.7z M159.2,33.4c0,0-0.1,0-0.1,0c-0.6-0.2-1.2-0.4-1.8-0.7c-0.2-0.1-0.3-0.3-0.2-0.5
		c0.1-0.2,0.3-0.3,0.5-0.2c0.5,0.3,1.1,0.5,1.7,0.7c0.2,0.1,0.3,0.3,0.2,0.5C159.5,33.3,159.3,33.4,159.2,33.4z M110.3,33.3
		c0,0-0.1,0-0.1,0c-0.6-0.2-1.1-0.2-1.7-0.2c-0.2,0-0.4-0.1-0.4-0.3c0-0.2,0.1-0.4,0.3-0.4c0.7-0.1,1.4,0,2,0.2
		c0.2,0.1,0.3,0.3,0.2,0.5C110.6,33.2,110.5,33.3,110.3,33.3z M123.1,32.5c-0.1,0-0.3-0.1-0.3-0.2c-0.1-0.2,0-0.4,0.2-0.5
		c0.5-0.3,1.1-0.6,1.6-0.9c0.2-0.1,0.4-0.1,0.5,0.1c0.1,0.2,0.1,0.4-0.1,0.5c-0.5,0.4-1.1,0.7-1.6,1
		C123.2,32.4,123.1,32.5,123.1,32.5z M140.3,31.9c-0.2,0-0.4-0.2-0.4-0.4c0-0.2,0.2-0.4,0.4-0.4c0.6,0,1.2-0.1,1.8-0.1
		c0.2,0,0.4,0.1,0.4,0.3c0,0.2-0.1,0.4-0.3,0.4C141.6,31.8,140.9,31.8,140.3,31.9C140.3,31.9,140.3,31.9,140.3,31.9z M155.8,31.8
		c-0.1,0-0.1,0-0.2-0.1c-0.5-0.3-1.1-0.7-1.6-1.1c-0.2-0.1-0.2-0.4-0.1-0.5c0.1-0.2,0.4-0.2,0.5-0.1c0.5,0.4,1,0.7,1.5,1.1
		c0.2,0.1,0.2,0.3,0.1,0.5C156.1,31.8,155.9,31.8,155.8,31.8z M138.4,31.8C138.4,31.8,138.4,31.8,138.4,31.8
		c-0.7-0.1-1.3-0.2-1.9-0.3c-0.2,0-0.3-0.2-0.3-0.4c0-0.2,0.2-0.3,0.4-0.3c0.6,0.1,1.2,0.2,1.8,0.3c0.2,0,0.4,0.2,0.3,0.4
		C138.8,31.6,138.6,31.8,138.4,31.8z M144,31.3c-0.2,0-0.3-0.1-0.4-0.3c-0.1-0.2,0.1-0.4,0.3-0.5c0.6-0.2,1.2-0.3,1.7-0.6
		c0.2-0.1,0.4,0,0.5,0.2c0.1,0.2,0,0.4-0.2,0.5C145.3,31,144.7,31.2,144,31.3C144.1,31.3,144,31.3,144,31.3z M134.8,31
		c0,0-0.1,0-0.1,0c-0.6-0.2-1.2-0.5-1.8-0.7c-0.2-0.1-0.3-0.3-0.2-0.5c0.1-0.2,0.3-0.3,0.5-0.2c0.5,0.3,1.1,0.5,1.7,0.7
		c0.2,0.1,0.3,0.3,0.2,0.5C135.1,30.9,134.9,31,134.8,31z M126.2,30.4c-0.1,0-0.2,0-0.3-0.1c-0.1-0.2-0.1-0.4,0-0.5
		c0.1-0.1,0.1-0.1,0.2-0.2c0.4-0.4,0.9-0.7,1.5-0.9c0.2-0.1,0.4,0,0.5,0.2c0.1,0.2,0,0.4-0.2,0.5c-0.5,0.2-0.9,0.5-1.3,0.8
		c-0.1,0.1-0.1,0.1-0.2,0.2C126.3,30.3,126.3,30.4,126.2,30.4z M147.5,30c-0.1,0-0.3-0.1-0.3-0.2c-0.1-0.2,0-0.4,0.2-0.5
		c0.2-0.1,0.4-0.2,0.6-0.3c0.4-0.2,0.8-0.4,1.2-0.5c0.2-0.1,0.4,0.1,0.5,0.3c0.1,0.2-0.1,0.4-0.3,0.5c-0.3,0.1-0.7,0.2-1,0.4
		c-0.2,0.1-0.4,0.2-0.6,0.3C147.6,30,147.5,30,147.5,30z M152.8,29.6c-0.1,0-0.1,0-0.2,0c-0.5-0.3-1.1-0.5-1.6-0.5
		c-0.2,0-0.4-0.2-0.3-0.4c0-0.2,0.2-0.4,0.4-0.3c0.7,0.1,1.3,0.3,1.9,0.6c0.2,0.1,0.2,0.3,0.1,0.5C153.1,29.5,152.9,29.6,152.8,29.6
		z M131.4,29.4c0,0-0.1,0-0.1,0c-0.5-0.2-1.1-0.4-1.7-0.4c-0.2,0-0.4-0.2-0.4-0.4c0-0.2,0.2-0.4,0.4-0.4c0,0,0,0,0,0
		c0.7,0,1.3,0.2,2,0.4c0.2,0.1,0.3,0.3,0.2,0.5C131.7,29.3,131.5,29.4,131.4,29.4z"/>
	<g>
		<polygon class="st4" points="141.8,61.3 140,54.7 138.2,61.3 131.4,60.9 137.1,64.7 134.7,71.1 140,66.8 145.3,71.1 142.9,64.7
			148.6,60.9 		"/>
		<polygon class="st4" points="169.9,65.6 165.7,65.8 164.7,61.8 163.6,65.8 159.5,65.6 162.9,67.9 161.4,71.8 164.7,69.1
			167.9,71.8 166.4,67.9 		"/>
		<polygon class="st4" points="116.4,65.8 115.3,61.8 114.3,65.8 110.1,65.6 113.6,67.9 112.1,71.8 115.3,69.1 118.6,71.8
			117.1,67.9 120.5,65.6 		"/>
	</g>
	<path class="st5" d="M31.8,198c1.1,1.9,2.7,3.6,4.8,4.6c1.8,0.9,3.2,2.2,4.3,3.7c1.1,1.6,1.7,3.4,1.8,5.4c0.1,2.3,1,4.5,2.4,6.2
		c1.4,1.7,3.4,3,5.6,3.6c1.1,0.3,2.2,0.8,3.1,1.4c0.7,0.4,1.3,0.9,1.8,1.5c1.3,1.3,2.3,3,2.8,4.9c0.2,0.9,0.6,1.8,1.1,2.6h160.9
		c0.5-0.8,0.8-1.7,1.1-2.6c0.5-1.9,1.5-3.6,2.8-4.9c0.5-0.5,1.2-1,1.8-1.5c1-0.6,2-1.1,3.1-1.4c2.3-0.6,4.2-1.9,5.6-3.6
		c1.4-1.7,2.3-3.9,2.4-6.2c0.1-2,0.8-3.8,1.8-5.4c1.1-1.6,2.5-2.9,4.3-3.7c2.1-1,3.7-2.6,4.8-4.6H31.8z M63.5,221.5l-4.8-3.9
		l-4.8,3.9l2.2-5.8l-5.2-3.4l6.2,0.3l1.6-6l1.6,6l6.2-0.3l-5.2,3.4L63.5,221.5z M226.2,221.5l-4.8-3.9l-4.8,3.9l2.2-5.8l-5.2-3.4
		l6.2,0.3l1.6-6l1.6,6l6.2-0.3l-5.2,3.4L226.2,221.5z"/>
	<path class="st0" d="M21.1,182.3l11.8,33.9h214.2l11.8-33.9H21.1z"/>
	<g>
		<g>
			<path class="st5" d="M82.9,91.3h14.4v4.4h-9.4v5.8H97v4.4h-9.1v6.2h9.4v4.4H82.9V91.3z"/>
			<path class="st5" d="M101.1,91.3h9.3c5.2,0,7.8,3.7,7.8,8c0,4.3-2.6,8-7.8,8h-4.2v9.1h-5.1V91.3z M109.8,95.7h-3.6v7.3h3.6
				c1.9,0,3.2-1.5,3.2-3.6C113,97.1,111.7,95.7,109.8,95.7z"/>
			<path class="st5" d="M121,91.3h14.4v4.4H126v5.8h9.1v4.4H126v6.2h9.4v4.4H121V91.3z"/>
			<path class="st5" d="M144.6,106.1l-7.8-14.8h5.6l4.7,10.1l4.7-10.1h5.6l-7.8,14.8v10.4h-5.1V106.1z"/>
			<path class="st5" d="M164.3,100.4v16.1h-5V91.3h5.1l8.3,15.4V91.3h5.1v25.2h-4.8L164.3,100.4z"/>
			<path class="st5" d="M194.2,112H186l-1.2,4.5h-5.3l7.5-25.2h6.1l7.5,25.2h-5.3L194.2,112z M187,107.6h6.2l-3.1-11.8L187,107.6z"
				/>
		</g>
		<g>
			<path class="st4" d="M81.4,89.1h14.4v4.4h-9.4v5.8h9.1v4.4h-9.1v6.2h9.4v4.4H81.4V89.1z"/>
			<path class="st4" d="M99.6,89.1h9.3c5.2,0,7.8,3.7,7.8,8c0,4.3-2.6,8-7.8,8h-4.2v9.1h-5.1V89.1z M108.3,93.5h-3.6v7.3h3.6
				c1.9,0,3.2-1.5,3.2-3.6C111.5,94.9,110.2,93.5,108.3,93.5z"/>
			<path class="st4" d="M119.5,89.1h14.4v4.4h-9.4v5.8h9.1v4.4h-9.1v6.2h9.4v4.4h-14.4V89.1z"/>
			<path class="st4" d="M143.1,103.9l-7.8-14.8h5.6l4.7,10.1l4.7-10.1h5.6l-7.8,14.8v10.4h-5.1V103.9z"/>
			<path class="st4" d="M162.8,98.2v16.1h-5V89.1h5.1l8.3,15.4V89.1h5.1v25.2h-4.8L162.8,98.2z"/>
			<path class="st4" d="M192.7,109.8h-8.2l-1.2,4.5H178l7.5-25.2h6.1l7.5,25.2h-5.3L192.7,109.8z M185.5,105.4h6.2l-3.1-11.8
				L185.5,105.4z"/>
		</g>
	</g>
	<g>
		<g>
			<path class="st5" d="M81.3,158.4H69.7l-1.7,6.3h-7.4l10.5-35.5h8.6l10.5,35.5h-7.4L81.3,158.4z M71.1,152.2h8.7l-4.4-16.6
				L71.1,152.2z"/>
			<path class="st5" d="M92.9,129.2h20.3v6.3h-13.2v29.2h-7.1V129.2z"/>
			<path class="st5" d="M129.1,128.6c9.3,0,14.9,7.8,14.9,18.4c0,10.6-5.5,18.4-14.9,18.4c-9.3,0-14.8-7.8-14.8-18.4
				C114.3,136.4,119.9,128.6,129.1,128.6z M129.1,135c-4.8,0-7.5,5.2-7.5,12c0,6.8,2.6,12,7.5,12c4.9,0,7.6-5.3,7.6-12
				C136.7,140.1,134,135,129.1,135z"/>
			<path class="st5" d="M148.5,129.2h13.1c7.3,0,11,5.3,11,11.3c0,6.1-3.7,11.3-11,11.3h-6v12.9h-7.1V129.2z M160.7,135.4h-5.1v10.2
				h5.1c2.7,0,4.5-2.1,4.5-5.1C165.2,137.5,163.4,135.4,160.7,135.4z"/>
			<path class="st5" d="M191.1,158.4h-11.6l-1.7,6.3h-7.4l10.5-35.5h8.6l10.5,35.5h-7.4L191.1,158.4z M180.9,152.2h8.7l-4.4-16.6
				L180.9,152.2z"/>
			<path class="st5" d="M222.9,158.4v6.3h-21.1v-6.4l8.4-11.8l-8.4-11v-6.3h21.1v6.3H210l8.3,11l-8.5,11.9H222.9z"/>
		</g>
		<g>
			<path class="st4" d="M79.8,156.2H68.2l-1.7,6.3h-7.4L69.6,127h8.6l10.5,35.5h-7.4L79.8,156.2z M69.6,149.9h8.7L74,133.3
				L69.6,149.9z"/>
			<path class="st4" d="M91.4,127h20.3v6.3H98.6v29.2h-7.1V127z"/>
			<path class="st4" d="M127.6,126.4c9.3,0,14.9,7.8,14.9,18.4c0,10.6-5.5,18.4-14.9,18.4c-9.3,0-14.8-7.8-14.8-18.4
				C112.8,134.2,118.4,126.4,127.6,126.4z M127.6,132.7c-4.8,0-7.5,5.2-7.5,12c0,6.8,2.6,12,7.5,12c4.9,0,7.6-5.3,7.6-12
				C135.2,137.9,132.5,132.7,127.6,132.7z"/>
			<path class="st4" d="M147,127h13.1c7.3,0,11,5.3,11,11.3c0,6.1-3.7,11.3-11,11.3h-6v12.9H147V127z M159.2,133.2h-5.1v10.2h5.1
				c2.7,0,4.5-2.1,4.5-5.1C163.7,135.2,161.9,133.2,159.2,133.2z"/>
			<path class="st4" d="M189.6,156.2H178l-1.7,6.3h-7.4l10.5-35.5h8.6l10.5,35.5h-7.4L189.6,156.2z M179.4,149.9h8.7l-4.4-16.6
				L179.4,149.9z"/>
			<path class="st4" d="M221.4,156.2v6.3h-21.1v-6.4l8.4-11.8l-8.4-11V127h21.1v6.3h-12.9l8.3,11l-8.5,11.9H221.4z"/>
		</g>
	</g>
	<g>
		<path class="st2" d="M84.2,193.1h-4.5v11.2H77v-13.6h10v13.6h-2.8V193.1z"/>
		<path class="st2" d="M89.2,190.7h2.7v13.6h-2.7V190.7z"/>
		<path class="st2" d="M101.9,201.9v2.4h-8.1v-2.4l3.2-4.5l-3.2-4.2v-2.4h8.1v2.4h-4.9l3.2,4.2l-3.3,4.6H101.9z"/>
		<path class="st2" d="M105.9,193.1h-3v-2.4h8.8v2.4h-3v11.2h-2.7V193.1z"/>
		<path class="st2" d="M117.9,190.5c3.6,0,5.7,3,5.7,7c0,4.1-2.1,7-5.7,7c-3.5,0-5.7-3-5.7-7C112.3,193.5,114.4,190.5,117.9,190.5z
			 M117.9,192.9c-1.9,0-2.9,2-2.9,4.6c0,2.6,1,4.6,2.9,4.6c1.9,0,2.9-2,2.9-4.6C120.8,194.9,119.8,192.9,117.9,192.9z"/>
		<path class="st2" d="M132.6,193.1h-4.5v11.2h-2.7v-13.6h10v13.6h-2.8V193.1z"/>
		<path class="st2" d="M142.7,190.5c3.6,0,5.7,3,5.7,7c0,4.1-2.1,7-5.7,7c-3.5,0-5.7-3-5.7-7C137,193.5,139.2,190.5,142.7,190.5z
			 M142.7,192.9c-1.9,0-2.9,2-2.9,4.6c0,2.6,1,4.6,2.9,4.6c1.9,0,2.9-2,2.9-4.6C145.6,194.9,144.6,192.9,142.7,192.9z"/>
		<path class="st2" d="M150.1,190.7h2.7v13.6h-2.7V190.7z"/>
		<path class="st2" d="M162.3,198.6h-4.5v5.8h-2.7v-13.6h2.7v5.4h4.5v-5.4h2.8v13.6h-2.8V198.6z"/>
		<path class="st2" d="M169.6,193.1h-3v-2.4h8.8v2.4h-3v11.2h-2.7V193.1z"/>
		<path class="st2" d="M176.8,190.7h2.7v13.6h-2.7V190.7z"/>
		<path class="st2" d="M185.5,199l-1,1.5v3.8h-2.7v-13.6h2.7v6.2l3.8-6.2h3.2l-4.3,6.4l4.7,7.2h-3.2L185.5,199z"/>
		<path class="st2" d="M197.4,190.5c3.6,0,5.7,3,5.7,7c0,4.1-2.1,7-5.7,7c-3.5,0-5.7-3-5.7-7C191.7,193.5,193.8,190.5,197.4,190.5z
			 M197.4,192.9c-1.9,0-2.9,2-2.9,4.6c0,2.6,1,4.6,2.9,4.6c1.9,0,2.9-2,2.9-4.6C200.3,194.9,199.2,192.9,197.4,192.9z"/>
	</g>
	<g>
		<g>
			<path class="st6" d="M123.3,238.3c4.7-4.2,7.1-6.1,7.1-8c0-1-0.8-1.7-1.9-1.7c-1.1,0-1.9,0.4-2.6,1.3l-0.8-1
				c0.9-1,2.1-1.6,3.4-1.6c1.8,0,3.4,1,3.4,2.8c0,2.4-2.5,4.6-6.7,8.3h4.9l-0.3,1.3H123L123.3,238.3z"/>
			<path class="st6" d="M138.1,227.3c2,0,3.2,1.4,3.2,4.1c0,3.7-2,8.6-5.1,8.6c-2,0-3.2-1.4-3.2-4.1
				C133,232.2,135,227.3,138.1,227.3z M138,228.6c-2.2,0-3.6,4.8-3.6,7.5c0,1.5,0.5,2.6,1.9,2.6c2.2,0,3.6-4.8,3.6-7.5
				C139.8,229.7,139.3,228.6,138,228.6z"/>
			<path class="st6" d="M146.1,229.5l-2.3,2l-0.7-0.9l3.6-3h1.3l-2.7,12.3h-1.5L146.1,229.5z"/>
			<path class="st6" d="M155,229h-5.1l0.3-1.3h6.8l-0.2,1l-6.4,11.3h-1.6L155,229z"/>
		</g>
	</g>
</g>
</svg>
