<?xml version="1.0" encoding="utf-8"?>
<!-- Generator: Adobe Illustrator 21.1.0, SVG Export Plug-In . SVG Version: 6.00 Build 0)  -->
<svg version="1.1" id="Layer_1" xmlns="http://www.w3.org/2000/svg" xmlns:xlink="http://www.w3.org/1999/xlink" x="0px" y="0px"
	 viewBox="0 0 25 25" style="enable-background:new 0 0 25 25;" xml:space="preserve">
<style type="text/css">
	.st0{fill:#00465B;}
</style>
<path class="st0" d="M20.8,9.6c-0.5,0-1,0.2-1.4,0.5c-0.2-1-1.1-1.8-2.2-1.8c-0.6,0-1.2,0.3-1.6,0.7c-0.4-0.7-1.1-1.2-1.9-1.2
	c-0.5,0-1,0.2-1.3,0.5V2.5c0-1.2-1-2.2-2.2-2.2c-1.2,0-2.2,1-2.2,2.2v12.3l-3.3-3c-0.9-0.8-2.3-0.9-3-0.1c-0.8,0.8-0.8,2.2-0.1,3.1
	l4,5.2c0.6,0.8,1.7,2,2.4,2.7l0.2,0.2c0.8,0.8,2.2,1.4,3.3,1.4h2.2c0.2,0,0.4-0.2,0.4-0.4s-0.2-0.4-0.4-0.4h-2.2
	c-0.9,0-2.1-0.5-2.7-1.1l-0.2-0.2c-0.7-0.7-1.7-1.9-2.3-2.6l-4-5.2c-0.5-0.6-0.5-1.5,0-1.9c0.4-0.4,1.3-0.4,1.8,0.1L7.9,16v0.2
	c0,0.2,0.2,0.4,0.4,0.4c0.2,0,0.4-0.2,0.4-0.4V2.5c0-0.7,0.6-1.3,1.3-1.3c0.7,0,1.3,0.6,1.3,1.3V10v1.3v1.3c0,0.2,0.2,0.4,0.4,0.4
	c0.2,0,0.4-0.2,0.4-0.4v-1.3V10c0-0.7,0.6-1.3,1.3-1.3c0.7,0,1.3,0.6,1.3,1.3v0.4v1.3v1.3c0,0.2,0.2,0.4,0.4,0.4
	c0.2,0,0.4-0.2,0.4-0.4v-1.3v-1.3c0-0.7,0.6-1.3,1.3-1.3c0.7,0,1.3,0.6,1.3,1.3v1.3v0.9v0.9c0,0.2,0.2,0.4,0.4,0.4
	c0.2,0,0.4-0.2,0.4-0.4v-0.9v-0.9c0-0.7,0.6-1.3,1.3-1.3c0.7,0,1.3,0.6,1.3,1.3v4.4v0.4v4c0,1.5-1.1,2.7-2.4,2.7h-2.9
	c-0.2,0-0.4,0.2-0.4,0.4s0.2,0.4,0.4,0.4h2.9c1.8,0,3.3-1.6,3.3-3.6v-4v-0.4v-4.4C23,10.6,22,9.6,20.8,9.6z"/>
</svg>
