<?xml version="1.0" encoding="utf-8"?>
<!-- Generator: Adobe Illustrator 21.1.0, SVG Export Plug-In . SVG Version: 6.00 Build 0)  -->
<svg version="1.1" id="Layer_1" xmlns="http://www.w3.org/2000/svg" xmlns:xlink="http://www.w3.org/1999/xlink" x="0px" y="0px"
	 viewBox="0 0 16.2 9.2" style="enable-background:new 0 0 16.2 9.2;" xml:space="preserve">
<style type="text/css">
	.st0{fill:#424242;}
</style>
<path class="st0" d="M15.9,3.7h-1.2l-1.4-3.1c-0.1-0.1-0.2-0.2-0.3-0.2c0,0,0,0,0,0c-0.1,0-0.3,0.1-0.3,0.2L10.6,5l-0.4-0.8
	c-0.1-0.1-0.2-0.2-0.3-0.2c-0.1,0-0.3,0.1-0.3,0.2l-1,2.6L7,0.3C6.9,0.1,6.8,0,6.6,0C6.4,0,6.3,0.1,6.2,0.3L4.6,5.5l-1-1.3
	C3.5,4.1,3.4,4.1,3.3,4.1c-0.1,0-0.2,0-0.3,0.1L2.4,4.8H1C0.8,4.8,0.7,5,0.7,5.2c0,0.2,0.2,0.4,0.4,0.4h1.5c0.1,0,0.2,0,0.3-0.1
	L3.2,5l1.2,1.5c0.1,0.1,0.2,0.2,0.4,0.1c0.1,0,0.2-0.1,0.3-0.3l1.4-4.6l1.5,6.5c0,0.2,0.2,0.3,0.3,0.3c0,0,0,0,0,0
	c0.2,0,0.3-0.1,0.3-0.2L10,5.3l0.4,0.7c0.1,0.1,0.2,0.2,0.3,0.2c0.1,0,0.3-0.1,0.3-0.2l1.9-4.4L14,4.2c0.1,0.1,0.2,0.2,0.3,0.2h1.5
	c0.2,0,0.4-0.2,0.4-0.4C16.2,3.9,16.1,3.7,15.9,3.7z"/>
</svg>
