<?xml version="1.0" encoding="utf-8"?>
<!-- Generator: Adobe Illustrator 21.1.0, SVG Export Plug-In . SVG Version: 6.00 Build 0)  -->
<svg version="1.1" id="Layer_1" xmlns="http://www.w3.org/2000/svg" xmlns:xlink="http://www.w3.org/1999/xlink" x="0px" y="0px"
	 viewBox="0 0 564 59" style="enable-background:new 0 0 564 59;" xml:space="preserve">
<style type="text/css">
	.st0{fill:#FFFFFF;}
	.st1{fill:none;stroke:#FFD81A;stroke-width:1.0877;stroke-linecap:round;stroke-linejoin:round;stroke-miterlimit:10;}
	.st2{fill:none;stroke:#FFD81A;stroke-width:0.8847;stroke-linecap:round;stroke-linejoin:round;stroke-miterlimit:10;}
	.st3{clip-path:url(#SVGID_2_);}
	.st4{fill:#FFD81A;}
</style>
<g>
	<g>
		<path class="st0" d="M253.8,32.8l-3.2-4.8h1.4l2.4,3.7l2.4-3.7h1.4l-3.2,4.8v3.4h-1.2V32.8z"/>
		<path class="st0" d="M263.3,31.3h-2.9v5h-1.1v-5h-1v-1h7.1v1h-1v5h-1.1V31.3z"/>
		<path class="st0" d="M270.4,32.5c0-1-0.5-1.3-1.3-1.3c-0.7,0-1.3,0.4-1.6,0.9v4.2h-1.1v-5.9h1.1v0.8c0.4-0.5,1.2-1,2.1-1
			c1.3,0,1.9,0.7,1.9,1.9v6.4h-1.1V32.5z"/>
		<path class="st0" d="M274.4,38.5h-1.1v-5.2c0-1.7,1.1-3.1,2.8-3.1c1.8,0,2.9,1.4,2.9,3.1c0,1.9-1.1,3.1-2.6,3.1
			c-0.8,0-1.5-0.4-1.9-1V38.5z M276.1,31.2c-1.1,0-1.7,1-1.7,2.1v1.3c0.3,0.5,1,0.9,1.6,0.9c1.1,0,1.8-0.9,1.8-2.1
			C277.8,32.2,277.2,31.2,276.1,31.2z"/>
		<path class="st0" d="M280,34.6c0-1,1-1.4,1.6-1.4c-0.7-0.1-1.5-0.6-1.5-1.4c0-1,1-1.6,2.6-1.6c1,0,1.8,0.4,2.3,1l-0.6,0.7
			c-0.5-0.5-1-0.7-1.8-0.7c-0.8,0-1.4,0.3-1.4,0.8c0,0.6,0.6,0.9,1.4,0.9h1v0.9h-1c-0.9,0-1.5,0.2-1.5,0.9c0,0.6,0.5,0.9,1.4,0.9
			c0.8,0,1.4-0.3,1.9-0.8l0.6,0.8c-0.6,0.6-1.4,1-2.5,1C280.9,36.4,280,35.7,280,34.6z"/>
		<path class="st0" d="M285.9,33.3c0-1.6,1.2-3,3.1-3h3.1v1h-1.3c0.6,0.5,1,1.2,1,2.2c0,1.6-1.1,2.9-2.9,2.9
			C287.1,36.4,285.9,35,285.9,33.3z M289,31.3c-1.3,0-2,1-2,2c0,1.1,0.7,2.1,1.8,2.1c1.2,0,1.8-1,1.8-2.1c0-1-0.5-1.7-1.1-2H289z"/>
		<path class="st0" d="M293.3,30.3h1.1v4.4c0,0.4,0.2,0.7,0.5,0.7c0.1,0,0.2,0,0.2,0l0.1,0.9c-0.1,0-0.4,0.1-0.6,0.1
			c-0.9,0-1.4-0.5-1.4-1.5V30.3z M293.8,26.7h1l-0.7,2.5h-0.5L293.8,26.7z"/>
		<path class="st0" d="M295.9,34.6c0-1,1-1.4,1.6-1.4c-0.7-0.1-1.5-0.6-1.5-1.4c0-1,1-1.6,2.6-1.6c1,0,1.8,0.4,2.3,1l-0.6,0.7
			c-0.5-0.5-1-0.7-1.8-0.7c-0.8,0-1.4,0.3-1.4,0.8c0,0.6,0.6,0.9,1.4,0.9h1v0.9h-1c-0.9,0-1.5,0.2-1.5,0.9c0,0.6,0.5,0.9,1.4,0.9
			c0.8,0,1.4-0.3,1.9-0.8l0.6,0.8c-0.6,0.6-1.4,1-2.5,1C296.9,36.4,295.9,35.7,295.9,34.6z"/>
		<path class="st0" d="M304.9,30.2c1.1,0,1.8,0.5,2.2,1l-0.7,0.7c-0.4-0.5-0.8-0.7-1.4-0.7c-1.2,0-1.9,0.9-1.9,2.1
			c0,1.4,0.9,2,2.2,2c1.2,0,1.7,0.3,1.7,1.1c0,0.5-0.2,1.1-0.6,1.8h-1.1c0.3-0.4,0.6-1.2,0.6-1.5c0-0.3-0.2-0.4-0.6-0.4
			c-2,0-3.3-1-3.3-3C301.9,31.5,303.1,30.2,304.9,30.2z"/>
	</g>
</g>
<g>
	<g>
		<path class="st0" d="M442.1,28.1h6.3v1.1h-6.3V28.1z M442.1,35.2h6.3v1.1h-6.3V35.2z M442.2,31.5h6.1v1.1h-6.1V31.5z"/>
		<path class="st0" d="M449.6,34.6c0-1,1-1.4,1.6-1.4c-0.7-0.1-1.5-0.6-1.5-1.4c0-1,1-1.6,2.6-1.6c1,0,1.8,0.4,2.3,1l-0.6,0.7
			c-0.5-0.5-1-0.7-1.8-0.7c-0.8,0-1.4,0.3-1.4,0.8c0,0.6,0.6,0.9,1.4,0.9h1v0.9h-1c-0.9,0-1.5,0.2-1.5,0.9c0,0.6,0.5,0.9,1.4,0.9
			c0.8,0,1.4-0.3,1.9-0.8l0.6,0.8c-0.6,0.6-1.4,1-2.5,1C450.5,36.4,449.6,35.7,449.6,34.6z"/>
		<path class="st0" d="M455,30.3h1.2l1.9,4.8c1-1.4,1.6-3.2,1.6-4.8h1.1c0,1.9-0.9,4.3-2.2,5.9h-1.1L455,30.3z"/>
		<path class="st0" d="M461.6,33.3c0-1.7,1.2-3.1,3-3.1c1.9,0,3,1.4,3,3.1c0,1.7-1.1,3.1-3,3.1C462.8,36.4,461.6,35,461.6,33.3z
			 M466.4,33.3c0-1.1-0.6-2.1-1.8-2.1c-1.2,0-1.8,1-1.8,2.1c0,1.1,0.7,2.1,1.8,2.1C465.8,35.4,466.4,34.4,466.4,33.3z"/>
		<path class="st0" d="M474.6,33.5c0,1.5-1.1,2.9-2.9,2.9c-1.9,0-3.1-1.4-3.1-2.9c0-1.2,0.7-2.1,1.6-2.5c-0.5-0.3-0.9-0.6-0.9-1.3
			c0-0.9,0.8-1.8,2.3-1.8c1,0,1.7,0.4,2.2,0.8l-0.5,0.8c-0.4-0.4-1-0.7-1.8-0.7c-0.7,0-1.2,0.3-1.2,0.8c0,0.5,0.6,0.6,1.3,0.9
			C473,30.9,474.6,31.4,474.6,33.5z M473.5,33.5c0-1.4-1.1-1.8-2.1-2.1c-1.1,0.4-1.6,1.1-1.6,2.1c0,0.9,0.7,1.9,1.9,1.9
			C472.9,35.4,473.5,34.4,473.5,33.5z"/>
		<path class="st0" d="M475.6,33.3c0-1.7,1.2-3.1,3-3.1c1.9,0,3,1.4,3,3.1c0,1.7-1.1,3.1-3,3.1C476.8,36.4,475.6,35,475.6,33.3z
			 M480.5,33.3c0-1.1-0.6-2.1-1.8-2.1c-1.2,0-1.8,1-1.8,2.1c0,1.1,0.7,2.1,1.8,2.1C479.8,35.4,480.5,34.4,480.5,33.3z"/>
		<path class="st0" d="M485.2,35.3l-1.7,3.2h-1.2l2.2-4.2l-2.1-4h1.2l1.6,2.9l1.5-2.9h1.2l-2.1,4l2.2,4.2h-1.2L485.2,35.3z"/>
		<path class="st0" d="M488.7,34.6c0-1,1-1.4,1.6-1.4c-0.7-0.1-1.5-0.6-1.5-1.4c0-1,1-1.6,2.6-1.6c1,0,1.8,0.4,2.3,1l-0.6,0.7
			c-0.5-0.5-1-0.7-1.8-0.7c-0.8,0-1.4,0.3-1.4,0.8c0,0.6,0.6,0.9,1.4,0.9h1v0.9h-1c-0.9,0-1.5,0.2-1.5,0.9c0,0.6,0.5,0.9,1.4,0.9
			c0.8,0,1.4-0.3,1.9-0.8l0.6,0.8c-0.6,0.6-1.4,1-2.5,1C489.6,36.4,488.7,35.7,488.7,34.6z"/>
		<path class="st0" d="M495,30.3h1.1v4.4c0,0.4,0.2,0.7,0.5,0.7c0.1,0,0.2,0,0.2,0l0.1,0.9c-0.1,0-0.4,0.1-0.6,0.1
			c-0.9,0-1.4-0.5-1.4-1.5V30.3z M495.5,26.7h1l-0.7,2.5h-0.5L495.5,26.7z"/>
		<path class="st0" d="M503.6,36.4c-0.8,0-1.2-0.4-1.4-1.1c-0.4,0.6-1.2,1.1-2,1.1c-1.5,0-2.6-1.2-2.6-3.1c0-1.9,1.1-3.1,2.6-3.1
			c0.8,0,1.5,0.4,1.9,1v-0.9h1.1v4.4c0,0.4,0.2,0.7,0.6,0.7c0.1,0,0.2,0,0.2,0l0.1,0.9C504,36.4,503.8,36.4,503.6,36.4z M502.2,32
			c-0.3-0.5-1-0.9-1.6-0.9c-1.1,0-1.8,0.9-1.8,2.1c0,1.2,0.7,2.1,1.8,2.1c0.7,0,1.3-0.4,1.6-0.9V32z"/>
	</g>
</g>
<g>
	<g>
		<path class="st0" d="M85.8,29.1h-4.5v7.1H80v-8.2h7v8.2h-1.2V29.1z"/>
		<path class="st0" d="M89.9,38.5h-1.1v-5.2c0-1.7,1.1-3.1,2.8-3.1c1.8,0,2.9,1.4,2.9,3.1c0,1.9-1.1,3.1-2.6,3.1
			c-0.8,0-1.5-0.4-1.9-1V38.5z M91.6,31.2c-1.1,0-1.7,1-1.7,2.1v1.3c0.3,0.5,1,0.9,1.6,0.9c1.1,0,1.8-0.9,1.8-2.1
			C93.3,32.2,92.7,31.2,91.6,31.2z"/>
		<path class="st0" d="M95.5,33.3c0-1.7,1.2-3.1,3-3.1c1.9,0,3,1.4,3,3.1c0,1.7-1.1,3.1-3,3.1C96.6,36.4,95.5,35,95.5,33.3z
			 M100.3,33.3c0-1.1-0.6-2.1-1.8-2.1c-1.2,0-1.8,1-1.8,2.1c0,1.1,0.7,2.1,1.8,2.1C99.7,35.4,100.3,34.4,100.3,33.3z"/>
		<path class="st0" d="M101.5,28.7c0-0.4,0.3-0.6,0.6-0.6s0.6,0.3,0.6,0.6s-0.3,0.6-0.6,0.6S101.5,29,101.5,28.7z M102.9,30.3h1.1
			v4.4c0,0.4,0.2,0.7,0.5,0.7c0.1,0,0.2,0,0.2,0l0.1,0.9c-0.1,0-0.4,0.1-0.6,0.1c-0.9,0-1.4-0.5-1.4-1.5V30.3z M104,28.7
			c0-0.4,0.3-0.6,0.6-0.6c0.3,0,0.6,0.3,0.6,0.6s-0.3,0.6-0.6,0.6C104.3,29.3,104,29,104,28.7z"/>
		<path class="st0" d="M105.5,33.3c0-1.7,1.2-3.1,3-3.1c1.9,0,3,1.4,3,3.1c0,1.7-1.1,3.1-3,3.1C106.7,36.4,105.5,35,105.5,33.3z
			 M110.4,33.3c0-1.1-0.6-2.1-1.8-2.1c-1.2,0-1.8,1-1.8,2.1c0,1.1,0.7,2.1,1.8,2.1C109.7,35.4,110.4,34.4,110.4,33.3z M108.5,26.7h1
			l-0.7,2.5h-0.5L108.5,26.7z"/>
		<path class="st0" d="M112,30.3h1.2l1.9,4.8c1-1.4,1.6-3.2,1.6-4.8h1.1c0,1.9-0.9,4.3-2.2,5.9h-1.1L112,30.3z"/>
		<path class="st0" d="M120.3,31.3h-1.9v-1h5.1v1h-2v3.4c0,0.4,0.2,0.7,0.6,0.7c0.3,0,0.5-0.1,0.6-0.2l0.3,0.8
			c-0.2,0.2-0.6,0.4-1.2,0.4c-0.9,0-1.4-0.5-1.4-1.5V31.3z"/>
		<path class="st0" d="M130.3,36.4c-0.8,0-1.2-0.4-1.4-1.1c-0.4,0.6-1.2,1.1-2,1.1c-1.5,0-2.6-1.2-2.6-3.1c0-1.9,1.1-3.1,2.6-3.1
			c0.8,0,1.5,0.4,1.9,1v-0.9h1.1v4.4c0,0.4,0.2,0.7,0.6,0.7c0.1,0,0.2,0,0.2,0l0.1,0.9C130.7,36.4,130.5,36.4,130.3,36.4z M128.9,32
			c-0.3-0.5-1-0.9-1.6-0.9c-1.1,0-1.8,0.9-1.8,2.1c0,1.2,0.7,2.1,1.8,2.1c0.7,0,1.3-0.4,1.6-0.9V32z"/>
	</g>
</g>
<g>
	<line class="st1" x1="43.8" y1="24.7" x2="43.8" y2="44.1"/>
	<line class="st1" x1="52.6" y1="22.2" x2="52.6" y2="41.6"/>
	<polygon class="st1" points="61.4,44.1 52.6,41.6 43.8,44.1 34.8,41.6 34.8,22.2 43.8,24.7 52.6,22.2 61.4,24.7 	"/>
	<line class="st1" x1="39.3" y1="14" x2="39.3" y2="30.4"/>
	<polygon class="st1" points="49.4,20.3 39.3,20.3 39.3,14 49.4,14 46.7,17.1 	"/>
</g>
<g>
	<path class="st2" d="M220.5,19.5v20.4c0,2.5-2.1,4.6-4.6,4.6h-13.3c-2.5,0-4.6-2.1-4.6-4.6V19.5c0-2.5,2.1-4.6,4.6-4.6H216
		C218.5,14.9,220.5,17,220.5,19.5z"/>
	<g>
		<defs>
			<path id="SVGID_1_" d="M220.5,19.5v20.4c0,2.5-2.1,4.6-4.6,4.6h-13.3c-2.5,0-4.6-2.1-4.6-4.6V19.5c0-2.5,2.1-4.6,4.6-4.6H216
				C218.5,14.9,220.5,17,220.5,19.5z"/>
		</defs>
		<clipPath id="SVGID_2_">
			<use xlink:href="#SVGID_1_"  style="overflow:visible;"/>
		</clipPath>
		<g class="st3">
			<polyline class="st2" points="196.9,21.9 203.6,24.6 209.2,11.1 			"/>
			<line class="st2" x1="206.6" y1="32.8" x2="201.5" y2="45.2"/>
			<line class="st2" x1="214.6" y1="13.3" x2="208.6" y2="27.8"/>
			<line class="st2" x1="195.5" y1="25.3" x2="205.5" y2="29.4"/>
			<polyline class="st2" points="219.9,15.4 217.5,21.2 212.2,19.1 			"/>
			<polyline class="st2" points="209.6,25.4 219.2,29.3 224.1,17.2 			"/>
			<polyline class="st2" points="193.2,31 205.3,35.9 210.6,38.1 206.8,47.4 			"/>
			<polyline class="st2" points="211,49.1 217.2,34.2 223.1,36.6 			"/>
		</g>
		
			<use xlink:href="#SVGID_1_"  style="overflow:visible;fill:none;stroke:#FFD81A;stroke-width:0.8847;stroke-linecap:round;stroke-linejoin:round;stroke-miterlimit:10;"/>
	</g>
	<polygon class="st2" points="209.6,33.9 203.6,31.4 208.8,27.4 	"/>
</g>
<path class="st4" d="M392,43.2c-0.9,0-1.6,0.7-1.6,1.6c0,0.9,0.7,1.6,1.6,1.6s1.6-0.7,1.6-1.6C393.6,43.9,392.9,43.2,392,43.2
	L392,43.2z M410.3,43.2c-0.9,0-1.6,0.7-1.6,1.6c0,0.9,0.7,1.6,1.6,1.6c0.9,0,1.6-0.7,1.6-1.6C411.9,43.9,411.2,43.2,410.3,43.2
	L410.3,43.2z M414.1,41.6v-12c0-7.1-5.8-12.9-12.9-12.9c-7.1,0-12.9,5.8-12.9,12.9v12H414.1L414.1,41.6z M400.5,15.5V12
	c0-0.3,0.3-0.6,0.6-0.6c0.3,0,0.6,0.3,0.6,0.6v3.5c7.5,0.3,13.5,6.5,13.5,14.1v12.6c0,0.3-0.3,0.6-0.6,0.6h-2.4
	c0.5,0.5,0.8,1.2,0.8,2c0,1.6-1.3,2.8-2.8,2.8c-1.6,0-2.8-1.3-2.8-2.8c0-0.8,0.3-1.5,0.8-2H394c0.5,0.5,0.8,1.2,0.8,2
	c0,1.6-1.3,2.8-2.8,2.8c-1.6,0-2.8-1.3-2.8-2.8c0-0.8,0.3-1.5,0.8-2h-2.4c-0.3,0-0.6-0.3-0.6-0.6V29.6C387,22,393,15.8,400.5,15.5
	L400.5,15.5z M394.7,38.3V26.7h-2.4c-0.4,0-0.8,0.4-0.8,0.8v9.9c0,0.4,0.4,0.8,0.8,0.8H394.7L394.7,38.3z M407.7,26.7l0,11.5h2.3
	c0.4,0,0.8-0.4,0.8-0.8v-9.9c0-0.4-0.4-0.8-0.8-0.8H407.7L407.7,26.7z M406.4,38.3l0-11.5h-10.5v11.5H406.4L406.4,38.3z M397.8,25.5
	v-1.4c0-0.8,0.7-1.5,1.5-1.5h3.7c0.8,0,1.5,0.7,1.5,1.5v1.4h5.5c1.1,0,2,0.9,2,2v9.9c0,1.1-0.9,2-2,2h-17.7c-1.1,0-2-0.9-2-2v-9.9
	c0-1.1,0.9-2,2-2H397.8L397.8,25.5z M403.2,25.5v-1.4c0-0.1-0.1-0.2-0.2-0.2h-3.7c-0.1,0-0.2,0.1-0.2,0.2v1.4H403.2L403.2,25.5z"/>
</svg>
