<?xml version="1.0" encoding="utf-8"?>
<!-- Generator: Adobe Illustrator 21.1.0, SVG Export Plug-In . SVG Version: 6.00 Build 0)  -->
<svg version="1.1" id="Layer_1" xmlns="http://www.w3.org/2000/svg" xmlns:xlink="http://www.w3.org/1999/xlink" x="0px" y="0px"
	 viewBox="0 0 421.2 227.4" style="enable-background:new 0 0 421.2 227.4;" xml:space="preserve">
<style type="text/css">
	.st0{fill:#271441;}
	.st1{fill:#EB4D5C;}
</style>
<path class="st0" d="M231.8,14.4c-13.4,0-24,5.5-31,15.5c6.6,4.8,11.4,11.8,14.6,20.7c3.6-9.1,10.2-10.6,15.9-10.6
	c12.2,0,20,5,20,29v31l9.6,0.2c7.3,0,13.4-0.2,13.4-0.2V68C274.2,23.7,251.2,14.4,231.8,14.4z"/>
<g>
	<path class="st0" d="M329,205.1c-13,0-22.5-9.6-22.5-22.9c0-13.2,9.5-22.7,22.5-22.7c13,0,22.4,9.6,22.4,22.9
		C351.4,195.5,342,205.1,329,205.1z M329,168.7c-7.3,0-12.5,5.7-12.5,13.5c0,7.9,5.3,13.7,12.5,13.7c7.2,0,12.4-5.7,12.4-13.5
		C341.4,174.5,336.2,168.7,329,168.7z"/>
	<path class="st0" d="M282.8,205.1c-13,0-22.5-9.6-22.5-22.9c0-13.2,9.5-22.7,22.5-22.7c13,0,22.4,9.6,22.4,22.9
		C305.2,195.5,295.8,205.1,282.8,205.1z M282.8,168.7c-7.3,0-12.5,5.7-12.5,13.5c0,7.9,5.3,13.7,12.5,13.7c7.2,0,12.4-5.7,12.4-13.5
		C295.3,174.5,290,168.7,282.8,168.7z"/>
	<g>
		<path class="st0" d="M384.6,204.4c-1.9,0-3.4-1.1-5.1-2.7l-14.4-14.3v12.2c0,3-1.8,4.8-4.6,4.8H360c-2.9,0-4.6-1.8-4.6-4.8v-53.2
			c0-2.1,2.4-2.8,4.1-2.8c2.2,0,5.8,1,5.8,7.4v24l11.9-12.1c1.3-1.4,3-2.8,5.2-2.8c2.4,0,4,1.6,4.6,3.2c0.8,1.8,0.1,2.9-0.4,3.3
			L372,181.1l17.1,16.6c0.5,0.5,1.1,1.5,0.4,3.3C388.8,202.6,387.2,204.4,384.6,204.4z"/>
	</g>
</g>
<path class="st1" d="M274.2,100h-55V78c0-36.7-16.4-56.4-46.7-56.4c-29,0-45.8,20-46.3,54.4v38c0.1,7.3,5.9,12.8,13.2,12.8h121.4
	c7.3,0,13.3-6,13.3-13.3C274.1,106.2,274.2,100,274.2,100z"/>
<path class="st0" d="M196,104.5V76.9C196,47,178.8,47,172.9,47c-10,0-23.1,3.2-23.1,29.4v28.5H196V104.5z"/>
<path class="st1" d="M42.5,205h-0.7c-2.9,0-5.6-2.4-5.6-5.4v-47.8c0-3,3.4-5.4,6.3-5.4h13.6c13.7,0,21.8,6.9,21.8,18.4
	c0,12-8,18.6-22.5,18.6h-8.3v16.2C47.3,202.4,45.3,205,42.5,205z M47.3,174H56c11.7,0,11.7-6.8,11.7-9c0-3.9-1.2-9-11.5-9h-9V174z"
	/>
<path class="st1" d="M86,205h-0.6c-2.9,0-3.2-2.4-3.2-5.4V163c0-2.1,1.4-2.8,3-2.8c1.5,0,3.2,0.5,4.4,2.8c2.3-2.3,4.9-3.9,8.6-3.9
	c5.8,0,8.4,3.7,8.4,6.7c0,2.5-1.4,4.3-2.7,4.9l-1.4,0.6l-1.2-1.1c-0.5-0.5-1.4-1-3.2-1c-6.1,0-7.4,8.2-7.4,15.1v15.4
	C90.6,202.6,88.8,205,86,205z M104,166.6c0.1,0.1,0.2,0.2,0.3,0.2C104.2,166.8,104.1,166.7,104,166.6z"/>
<path class="st1" d="M114.3,205h-0.6c-2.9,0-4.5-2.7-4.5-5.7v-34.7c0-3,1.7-5.7,4.5-5.7h0.6c2.9,0,4.9,2.7,4.9,5.7v34.7
	C119.2,202.3,117.2,205,114.3,205z M114,155c-3.5,0-5.7-2.3-5.7-5.8c0-3.6,2.2-5.8,5.9-5.8c3.6,0,5.7,2.2,5.7,5.8S117.7,155,114,155
	z"/>
<path class="st1" d="M145.4,205.1c-12.8,0-22.4-9.8-22.4-22.9c0-13,9.6-22.7,22.4-22.7c12.7,0,19.1,8.4,19.1,13.1
	c0,2.3-1.7,4.1-4.2,4.7c-2.3,0.6-3.3-0.5-3.6-1.2c-2.2-5.1-5.7-7.4-11.3-7.4c-7.2,0-12.4,5.6-12.4,13.4c0,7.9,5.2,13.6,12.4,13.6
	c5.6,0,9.1-2.3,11.2-7.2c0.4-0.8,1.3-1.9,3.7-1.3c2.6,0.6,4.2,2.5,4.2,4.8C164.6,196.7,158.2,205.1,145.4,205.1z"/>
<path class="st1" d="M189,205.1c-13.2,0-22.5-9.3-22.5-22.6c0-13.1,9.5-23,22-23c12.3,0,20.5,8.8,20.5,22v0.5c0,2.7-1.5,4.1-4.5,4.1
	h-27.8c1.2,5.9,5.9,9.8,12.3,9.8c6.8,0,9.6-2.8,11.5-5.9c0.4-0.7,1.4-1.5,3.3-0.9c1.8,0.6,4,2.3,4,5.1
	C207.7,198.6,200.4,205.1,189,205.1z M177.1,176.9h21.3c-1.1-5.2-4.7-8.2-10-8.2C183.2,168.7,178.9,171.9,177.1,176.9z"/>
<path class="st0" d="M236.2,204.1h-17.5c-3,0-5.4-2.4-5.4-5.4v-46.9c0-3,2.4-5.4,5.4-5.4h17c12.5,0,19.6,5.9,19.6,16.2
	c0,4.7-2,8.6-5.7,11.2c5.1,2.7,8,7.3,8,13.2C257.6,194.9,253.9,204.1,236.2,204.1z M223.4,194.6h12.7c9.4,0,11.2-2.8,11.2-7.7
	c0-2,0-7.3-10.9-7.3h-13V194.6z M223.4,170.2h12.5c5.6,0,9.1-2.8,9.1-7.3c0-3.2-1.1-6.9-9.3-6.9h-12.3V170.2z"/>
</svg>
