<?xml version="1.0" encoding="utf-8"?>
<!-- Generator: Adobe Illustrator 22.0.1, SVG Export Plug-In . SVG Version: 6.00 Build 0)  -->
<svg version="1.1" id="Layer_1" xmlns="http://www.w3.org/2000/svg" xmlns:xlink="http://www.w3.org/1999/xlink" x="0px" y="0px"
	 viewBox="0 0 158.2 125.4" style="enable-background:new 0 0 158.2 125.4;" xml:space="preserve">
<style type="text/css">
	.st0{fill:#009bd6;}
	.st1{fill:#F6D818;}
</style>
<path class="st0" d="M112.8,6.4c-13.4,0-24,5.5-31,15.5c6.6,4.8,11.4,11.8,14.6,20.7C100,33.5,106.6,32,112.3,32c12.2,0,20,5,20,29
	v31l9.6,0.2c7.3,0,13.4-0.2,13.4-0.2V60C155.2,15.7,132.2,6.4,112.8,6.4z"/>
<path class="st1" d="M155.2,92h-55V70c0-36.7-16.4-56.4-46.7-56.4c-29,0-45.8,20-46.3,54.4v38c0.1,7.3,5.9,12.8,13.2,12.8h121.4
	c7.3,0,13.3-6,13.3-13.3S155.2,92,155.2,92z"/>
<path class="st0" d="M77,96.5V68.9C77,39,59.8,39,53.9,39c-10,0-23.1,3.2-23.1,29.4v28.5H77V96.5z"/>
</svg>
