<?xml version="1.0" encoding="utf-8"?>
<!-- Generator: Adobe Illustrator 21.1.0, SVG Export Plug-In . SVG Version: 6.00 Build 0)  -->
<svg version="1.1" id="Layer_1" xmlns="http://www.w3.org/2000/svg" xmlns:xlink="http://www.w3.org/1999/xlink" x="0px" y="0px"
	 viewBox="0 0 57.9 43.6" style="enable-background:new 0 0 57.9 43.6;" xml:space="preserve">
<style type="text/css">
	.st0{fill:#271441;}
	.st1{fill:#EB4D5C;}
</style>
<path class="st0" d="M38,4.5c-4.1,0-7.4,1.7-9.6,4.8c2,1.5,3.5,3.6,4.5,6.4c1.1-2.8,3.1-3.3,4.9-3.3c3.8,0,6.2,1.5,6.2,8.9v9.5
	l2.9,0.1c2.3,0,4.1-0.1,4.1-0.1V21C51,7.3,44,4.5,38,4.5z"/>
<path class="st1" d="M51,30.9H34.1v-6.8c0-11.3-5.1-17.4-14.4-17.4c-8.9,0-14.1,6.2-14.2,16.8v11.7c0,2.2,1.8,3.9,4.1,3.9h37.4
	c2.3,0,4.1-1.8,4.1-4.1C51,32.8,51,30.9,51,30.9z"/>
<path class="st0" d="M27,32.2v-8.5c0-9.2-5.3-9.2-7.1-9.2c-3.1,0-7.1,1-7.1,9.1v8.8H27V32.2z"/>
</svg>
