<?xml version="1.0" encoding="utf-8"?>
<!-- Generator: Adobe Illustrator 21.1.0, SVG Export Plug-In . SVG Version: 6.00 Build 0)  -->
<svg version="1.1" xmlns="http://www.w3.org/2000/svg" xmlns:xlink="http://www.w3.org/1999/xlink" x="0px" y="0px"
	 viewBox="0 0 80.3 80.3" style="enable-background:new 0 0 80.3 80.3;" xml:space="preserve">
<style type="text/css">
	.st0{fill:#474747;}
	.st1{fill:#FFFFFF;}
	.st2{display:none;}
	.st3{display:inline;fill:none;stroke:#474747;stroke-width:0.8368;stroke-miterlimit:10;}
</style>
<g id="Layer_1">
	<g>
		<g>
			<polygon class="st0" points="9.4,6.1 9.4,12.4 10.7,12.4 10.7,6.1 12.2,7.6 13.1,6.7 10,3.6 7,6.7 7.9,7.6 			"/>
		</g>
		<g>
			<path class="st0" d="M12.5,12.4c-0.3,1.1-1.3,2-2.5,2c-1.2,0-2.2-0.8-2.5-2h-4v4.6h13v-4.6H12.5z"/>
		</g>
	</g>
	<g>
		<g>
			<g>
				<path class="st0" d="M71.2,6h2.9c0.1,0,0.1-0.1,0.1-0.1c0-0.1-0.1-0.1-0.1-0.1h-2.9c-0.1,0-0.1,0.1-0.1,0.1
					C71.1,5.9,71.2,6,71.2,6z"/>
			</g>
			<g>
				<path class="st0" d="M71.2,5.1h4.5c0.1,0,0.1-0.1,0.1-0.1c0-0.1-0.1-0.1-0.1-0.1h-4.5c-0.1,0-0.1,0.1-0.1,0.1
					C71.1,5.1,71.2,5.1,71.2,5.1z"/>
			</g>
			<g>
				<path class="st0" d="M76.2,3.8c-0.7-0.4-1.7-0.6-3-0.6c-1,0-1.7,0.1-2.3,0.2C70.2,3.6,69.6,4,69,4.5c-0.1,0.1-0.1,0.3,0,0.4
					c0.1,0.1,0.3,0.1,0.4,0c1.1-1,2.5-1.2,3.9-1.2c2.3,0,3.6,0.7,3.6,1.9c0,1.9-3.8,1.9-3.8,1.9h-0.2l-0.1,0c0,0.6-0.3,1.4-0.6,1.8
					C72.5,9.1,73,8.6,73.3,8c0.3,0,1.1-0.1,1.9-0.3c1.8-0.5,2.2-1.4,2.2-2.1C77.4,4.8,77,4.2,76.2,3.8z"/>
			</g>
		</g>
		<g>
			<g>
				<path class="st1" d="M68.7,11.7c0.8,0,2.1-1.2,2.1-2.6c0-0.1,0-0.1,0-0.2c-1.1,0-2.6-0.3-3-0.9c-0.4-0.6-0.6-0.3-0.8,0
					c-0.1,0.1-0.2,0.2-0.2,0.3c-0.1,0.2-0.1,0.5-0.1,0.7C66.6,10.5,67.9,11.7,68.7,11.7z"/>
			</g>
			<g>
				<path class="st0" d="M71.6,12.3c0,0-0.6-0.1-1.3-0.1c0,2.3-0.4,3.7-1.2,4.1v-2.4c0.2,0,0.3-0.2,0.3-0.4v-0.4
					c0-0.2-0.2-0.4-0.4-0.4h-0.8c-0.2,0-0.4,0.2-0.4,0.4v0.4c0,0.2,0.1,0.3,0.3,0.4v2.4c-0.8-0.4-1.1-1.8-1.2-4.1
					c-0.7,0-1.3,0.1-1.3,0.1c-0.8,0-1.5,0.7-1.5,1.5v1.9c0,0.8,2.3,1.2,4.4,1.2c2.1,0,4.3-0.4,4.3-1.2v-1.9
					C73.1,12.9,72.4,12.3,71.6,12.3z"/>
			</g>
			<g>
				<path class="st0" d="M68.7,12.3c1,0,2.7-1.4,2.7-3.2c0-1.8-1.2-3.2-2.7-3.2c-1.5,0-2.7,1.4-2.7,3.2C66,10.9,67.6,12.3,68.7,12.3
					z M66.7,8.4c0.1-0.1,0.1-0.2,0.2-0.3c0.2-0.3,0.4-0.6,0.8,0c0.4,0.5,1.9,0.9,3,0.9c0,0.1,0,0.1,0,0.2c0,1.4-1.3,2.6-2.1,2.6
					c-0.8,0-2.1-1.2-2.1-2.6C66.6,8.8,66.6,8.6,66.7,8.4z"/>
			</g>
		</g>
	</g>
	<g>
		<g>
			<circle class="st0" cx="55.6" cy="15.9" r="0.7"/>
		</g>
		<g>
			<circle class="st0" cx="44.9" cy="15.9" r="0.7"/>
		</g>
		<g>
			<path class="st0" d="M43.5,11.2c0,0.7,0.6,1.3,1.3,1.3h4.7v2.7h-3.3v1.3h8v-1.3h-3.3v-2.7h4.7c0.7,0,1.3-0.6,1.3-1.3V8.5H43.5
				V11.2z M54.2,9.9c0.4,0,0.7,0.3,0.7,0.7c0,0.4-0.3,0.7-0.7,0.7c-0.4,0-0.7-0.3-0.7-0.7C53.5,10.2,53.8,9.9,54.2,9.9z M52.2,9.9
				c0.4,0,0.7,0.3,0.7,0.7c0,0.4-0.3,0.7-0.7,0.7c-0.4,0-0.7-0.3-0.7-0.7C51.5,10.2,51.8,9.9,52.2,9.9z M45.5,9.9h3.3v1.3h-3.3V9.9z
				"/>
		</g>
		<g>
			<path class="st0" d="M55.6,3.2H44.9c-0.7,0-1.3,0.6-1.3,1.3v2.7h13.4V4.5C56.9,3.8,56.3,3.2,55.6,3.2z M48.9,5.9h-3.3V4.5h3.3
				V5.9z M52.2,5.9c-0.4,0-0.7-0.3-0.7-0.7c0-0.4,0.3-0.7,0.7-0.7c0.4,0,0.7,0.3,0.7,0.7C52.9,5.6,52.6,5.9,52.2,5.9z M54.2,5.9
				c-0.4,0-0.7-0.3-0.7-0.7c0-0.4,0.3-0.7,0.7-0.7c0.4,0,0.7,0.3,0.7,0.7C54.9,5.6,54.6,5.9,54.2,5.9z"/>
		</g>
	</g>
	<g>
		<g>
			<g>
				<path class="st0" d="M33.4,11.8c-0.3,1.1-1.3,2-2.5,2c-1.2,0-2.2-0.8-2.5-2h-4v4.5h13v-4.5H33.4z"/>
			</g>
			<g>
				<polygon class="st0" points="34,8.4 33,7.5 31.5,8.9 31.5,3.4 30.2,3.4 30.2,8.9 28.8,7.5 27.8,8.4 30.9,11.4 				"/>
			</g>
		</g>
	</g>
</g>
<g id="Layer_2" class="st2">
	<rect class="st3" width="20.1" height="20.1"/>
	<rect x="20.1" class="st3" width="20.1" height="20.1"/>
	<rect x="40.2" class="st3" width="20.1" height="20.1"/>
	<rect x="60.3" class="st3" width="20.1" height="20.1"/>
	<rect y="20.1" class="st3" width="20.1" height="20.1"/>
	<rect x="20.1" y="20.1" class="st3" width="20.1" height="20.1"/>
	<rect x="40.2" y="20.1" class="st3" width="20.1" height="20.1"/>
	<rect x="60.3" y="20.1" class="st3" width="20.1" height="20.1"/>
	<rect y="40.2" class="st3" width="20.1" height="20.1"/>
	<rect x="20.1" y="40.2" class="st3" width="20.1" height="20.1"/>
	<rect x="40.2" y="40.2" class="st3" width="20.1" height="20.1"/>
	<rect x="60.3" y="40.2" class="st3" width="20.1" height="20.1"/>
	<rect y="60.3" class="st3" width="20.1" height="20.1"/>
	<rect x="20.1" y="60.3" class="st3" width="20.1" height="20.1"/>
	<rect x="40.2" y="60.3" class="st3" width="20.1" height="20.1"/>
	<rect x="60.3" y="60.3" class="st3" width="20.1" height="20.1"/>
</g>
</svg>
