<?xml version="1.0" encoding="utf-8"?>
<!-- Generator: Adobe Illustrator 21.1.0, SVG Export Plug-In . SVG Version: 6.00 Build 0)  -->
<svg version="1.1" id="Layer_1" xmlns="http://www.w3.org/2000/svg" xmlns:xlink="http://www.w3.org/1999/xlink" x="0px" y="0px"
	 viewBox="0 0 20 21.2" style="enable-background:new 0 0 20 21.2;" xml:space="preserve">
<style type="text/css">
	.st0{fill:#424242;}
</style>
<g>
	<g>
		<path class="st0" d="M17.4,4.8H2.6C1.1,4.8,0,5.9,0,7.2v7.9c0,1.4,1.1,2.5,2.6,2.5h14.9c1.4,0,2.6-1.1,2.6-2.5V7.2
			C20,5.9,18.9,4.8,17.4,4.8z M18.8,15.2c0,0.7-0.6,1.3-1.4,1.3H2.6c-0.8,0-1.4-0.6-1.4-1.3V7.2C1.2,6.5,1.8,6,2.6,6h14.9
			c0.8,0,1.4,0.6,1.4,1.3V15.2z"/>
	</g>
	<g>
		<path class="st0" d="M8.3,12.1c0,0-0.4,0-1-0.1c0,1.7-0.3,2.8-0.9,3.1v-1.8c0.1,0,0.2-0.1,0.2-0.3v-0.3c0-0.2-0.1-0.3-0.3-0.3H5.7
			c-0.2,0-0.3,0.1-0.3,0.3v0.3c0,0.1,0.1,0.2,0.2,0.3v1.8c-0.6-0.3-0.9-1.4-0.9-3.1c-0.6,0-1,0.1-1,0.1c-0.6,0-1.1,0.5-1.1,1.1v1.4
			c0,0.6,1.7,0.9,3.4,0.9c1.6,0,3.3-0.3,3.3-0.9v-1.4C9.4,12.6,8.9,12.1,8.3,12.1z"/>
	</g>
	<g>
		<path class="st0" d="M6,12.1c0.8,0,2-1,2-2.4c0-1.3-0.9-2.4-2-2.4S4,8.3,4,9.7C4,11.1,5.2,12.1,6,12.1z M4.5,9.1
			C4.6,9,4.6,9,4.7,8.9c0.2-0.2,0.3-0.4,0.6,0c0.3,0.4,1.5,0.6,2.3,0.7c0,0,0,0.1,0,0.1c0,1.1-1,2-1.6,2s-1.6-0.9-1.6-2
			C4.5,9.5,4.5,9.3,4.5,9.1z"/>
	</g>
	<g>
		<rect x="11.1" y="11.6" class="st0" width="5.6" height="1"/>
	</g>
	<g>
		<rect x="14.3" y="9.8" class="st0" width="2.4" height="1"/>
	</g>
	<g>
		<rect x="12.2" y="8.1" class="st0" width="4.5" height="1"/>
	</g>
	<g>
		<rect x="14.3" y="13.4" class="st0" width="2.5" height="1"/>
	</g>
	<g>
		<rect x="12" y="13.4" class="st0" width="1.2" height="1"/>
	</g>
</g>
</svg>
