<?xml version="1.0" encoding="utf-8"?>
<!-- Generator: Adobe Illustrator 21.1.0, SVG Export Plug-In . SVG Version: 6.00 Build 0)  -->
<svg version="1.1" id="Layer_1" xmlns="http://www.w3.org/2000/svg" xmlns:xlink="http://www.w3.org/1999/xlink" x="0px" y="0px"
	 viewBox="0 0 20 21.2" style="enable-background:new 0 0 20 21.2;" xml:space="preserve">
<style type="text/css">
	.st0{fill:#424242;}
</style>
<g>
	<path class="st0" d="M17.9,8.7l-2.8,1.9V6.8c0-0.2-0.2-0.4-0.4-0.4H5.2C5,6.4,4.8,6.6,4.8,6.8v3.8L2.1,8.7C1.9,8.6,1.7,8.7,1.5,8.8
		C1.4,9,1.5,9.2,1.6,9.3l6.9,4.7c0.4,0.3,0.9,0.4,1.4,0.4c0.5,0,1-0.1,1.4-0.4l6.9-4.7c0.2-0.1,0.2-0.3,0.1-0.5
		C18.3,8.7,18.1,8.6,17.9,8.7z M11,13.5c-0.6,0.4-1.5,0.4-2,0l-3.5-2.4c0-0.1,0.1-0.1,0.1-0.2V7.2h8.9v3.7c0,0.1,0,0.1,0.1,0.2
		L11,13.5z"/>
	<path class="st0" d="M19.4,7.3l-8-6.2C11,0.8,10.5,0.7,10,0.7c-0.5,0-1,0.2-1.4,0.4l-8,6.2C0.2,7.6,0,8.1,0,8.5v10.2
		c0,1,0.8,1.9,1.9,1.9h16.3c1,0,1.9-0.8,1.9-1.9V8.5C20,8.1,19.8,7.6,19.4,7.3z M19.3,18.7c0,0.6-0.5,1.1-1.1,1.1H1.9
		c-0.6,0-1.1-0.5-1.1-1.1V8.5C0.7,8.3,0.9,8,1,7.9l8-6.2C9.3,1.5,9.6,1.4,10,1.4c0.4,0,0.7,0.1,0.9,0.3l8,6.2
		c0.1,0.1,0.3,0.4,0.3,0.6V18.7z"/>
	<path class="st0" d="M12.6,8.7H7.4C7.2,8.7,7,8.8,7,9c0,0.2,0.2,0.4,0.4,0.4h5.2C12.8,9.4,13,9.2,13,9C13,8.8,12.8,8.7,12.6,8.7z"
		/>
	<path class="st0" d="M12.6,10.1H7.4c-0.2,0-0.4,0.2-0.4,0.4c0,0.2,0.2,0.4,0.4,0.4h5.2c0.2,0,0.4-0.2,0.4-0.4
		C13,10.3,12.8,10.1,12.6,10.1z"/>
</g>
</svg>
