<?xml version="1.0" encoding="utf-8"?>
<!-- Generator: Adobe Illustrator 21.1.0, SVG Export Plug-In . SVG Version: 6.00 Build 0)  -->
<svg version="1.1" id="Layer_1" xmlns="http://www.w3.org/2000/svg" xmlns:xlink="http://www.w3.org/1999/xlink" x="0px" y="0px"
	 viewBox="0 0 20 21.2" style="enable-background:new 0 0 20 21.2;" xml:space="preserve">
<style type="text/css">
	.st0{fill:#474747;}
</style>
<g>
	<path class="st0" d="M18.1,1H3c-1,0-1.9,0.8-1.9,1.9v1.9h0.7V2.9c0-0.6,0.5-1.1,1.1-1.1h3v18.5H3c-0.6,0-1.1-0.5-1.1-1.1v-2.2h0.7
		c0.2,0,0.4-0.2,0.4-0.4c0-0.2-0.2-0.4-0.4-0.4H0.4c-0.2,0-0.4,0.2-0.4,0.4c0,0.2,0.2,0.4,0.4,0.4h0.7v2.2c0,1,0.8,1.9,1.9,1.9h15.2
		c1,0,1.9-0.8,1.9-1.9V2.9C20,1.8,19.2,1,18.1,1z M12.6,1.7h3.7v5.9l-1.6-1.3c-0.1-0.1-0.3-0.1-0.5,0l-1.6,1.3V1.7z M19.3,19.1
		c0,0.6-0.5,1.1-1.1,1.1H6.7V1.7h5.2v6.7c0,0.1,0.1,0.3,0.2,0.3c0.1,0.1,0.3,0,0.4-0.1l2-1.7l2,1.7c0.1,0.1,0.2,0.1,0.2,0.1
		c0.1,0,0.1,0,0.2,0C17,8.7,17,8.6,17,8.4V1.7h1.1c0.6,0,1.1,0.5,1.1,1.1V19.1z"/>
	<path class="st0" d="M0.4,6.2h0.7v9.3h0.7V6.2h0.7C2.8,6.2,3,6,3,5.8c0-0.2-0.2-0.4-0.4-0.4H0.4C0.2,5.4,0,5.6,0,5.8
		C0,6,0.2,6.2,0.4,6.2z"/>
</g>
</svg>
