<?xml version="1.0" encoding="utf-8"?>
<!-- Generator: Adobe Illustrator 21.1.0, SVG Export Plug-In . SVG Version: 6.00 Build 0)  -->
<svg version="1.1" id="Layer_1" xmlns="http://www.w3.org/2000/svg" xmlns:xlink="http://www.w3.org/1999/xlink" x="0px" y="0px"
	 viewBox="0 0 20 21.2" style="enable-background:new 0 0 20 21.2;" xml:space="preserve">
<style type="text/css">
	.st0{fill:#424242;}
</style>
<path class="st0" d="M18.5,2.2c-0.2-0.9-0.9-1.5-1.8-1.5h-5.2c-0.6,0-1.1,0.3-1.5,0.8C9.7,1,9.1,0.7,8.5,0.7H3.3
	c-0.9,0-1.7,0.7-1.8,1.5C0.7,2.4,0,3.1,0,4v13.3c0,1,0.8,1.9,1.9,1.9h6.3c0.6,0,1.1,0.6,1.1,1.1c0,0.2,0.2,0.4,0.4,0.4h0.7
	c0.2,0,0.4-0.2,0.4-0.4c0-0.5,0.5-1.1,1.1-1.1h6.3c1,0,1.9-0.8,1.9-1.9V4C20,3.1,19.3,2.4,18.5,2.2z M11.5,1.5h5.2
	c0.6,0,1.1,0.5,1.1,1.1v13.3c0,0.6-0.5,1.1-1.1,1.1h-5.2c-0.4,0-0.8,0.1-1.1,0.4V2.6C10.4,2,10.9,1.5,11.5,1.5z M2.2,2.6
	c0-0.6,0.5-1.1,1.1-1.1h5.2c0.6,0,1.1,0.5,1.1,1.1v14.8C9.3,17.2,8.9,17,8.5,17H3.3c-0.6,0-1.1-0.5-1.1-1.1V2.6z M9.6,19.3
	c-0.3-0.5-0.9-0.8-1.5-0.8H1.9c-0.6,0-1.1-0.5-1.1-1.1V4c0-0.5,0.3-0.9,0.7-1v12.9c0,1,0.8,1.9,1.9,1.9h5.2c0.6,0,1.1,0.6,1.1,1.1
	V19.3z M19.3,17.4c0,0.6-0.5,1.1-1.1,1.1h-6.3c-0.6,0-1.1,0.3-1.5,0.8v-0.4c0-0.5,0.5-1.1,1.1-1.1h5.2c1,0,1.9-0.8,1.9-1.9V3
	c0.4,0.2,0.7,0.6,0.7,1V17.4z"/>
</svg>
