<?xml version="1.0" encoding="utf-8"?>
<!-- Generator: Adobe Illustrator 21.1.0, SVG Export Plug-In . SVG Version: 6.00 Build 0)  -->
<svg version="1.1" id="Layer_1" xmlns="http://www.w3.org/2000/svg" xmlns:xlink="http://www.w3.org/1999/xlink" x="0px" y="0px"
	 viewBox="0 0 20 21.2" style="enable-background:new 0 0 20 21.2;" xml:space="preserve">
<style type="text/css">
	.st0{fill:#424242;}
</style>
<g>
	<path class="st0" d="M6.7,14.3c-0.2,0.1-0.3,0.5-0.2,0.7c0.1,0.1,0.1,0.2,0.2,0.2c0.2,0.1,0.3,0.1,0.5,0c1.8-1,3.9-1.1,5.7-0.1
		c0.3,0.1,0.6,0,0.7-0.2c0.1-0.3,0-0.6-0.2-0.7C11.3,13.1,8.8,13.1,6.7,14.3z"/>
	<circle class="st0" cx="6.7" cy="8.5" r="0.6"/>
	<circle class="st0" cx="13" cy="8.5" r="0.9"/>
	<circle class="st0" cx="6.8" cy="8.5" r="0.9"/>
	<path class="st0" d="M10,21.2c-5.5,0-10-4.5-10-10s4.5-10,10-10c5.5,0,10,4.5,10,10S15.5,21.2,10,21.2z M10,2.2c-4.9,0-9,4-9,9
		s4,9,9,9c4.9,0,9-4,9-9S14.9,2.2,10,2.2z"/>
</g>
</svg>
