<?xml version="1.0" encoding="utf-8"?>
<!-- Generator: Adobe Illustrator 21.1.0, SVG Export Plug-In . SVG Version: 6.00 Build 0)  -->
<svg version="1.1" id="Layer_1" xmlns="http://www.w3.org/2000/svg" xmlns:xlink="http://www.w3.org/1999/xlink" x="0px" y="0px"
	 viewBox="0 0 20 21.2" style="enable-background:new 0 0 20 21.2;" xml:space="preserve">
<style type="text/css">
	.st0{fill:#424242;}
</style>
<g>
	<path class="st0" d="M19.6,16l-9.4,1.7C9.7,17,9,16.5,8,16.5c0,0-0.1,0-0.1,0L4.8,3C4.7,2.5,4.4,2.1,4,1.9C3.5,1.6,3.1,1.6,2.6,1.7
		L0.3,2.3C0.1,2.4,0,2.5,0,2.7c0,0.1,0,0.1,0,0.2l0.4,1.3c0.1,0.2,0.2,0.3,0.4,0.3c0,0,0.1,0,0.1,0L2.9,4c0.2,0,0.3-0.2,0.3-0.4
		c0-0.2-0.2-0.3-0.4-0.3L1,3.6L0.8,2.9l2-0.5c0.3-0.1,0.6,0,0.8,0.1C3.8,2.7,4,2.9,4.1,3.2l3.1,13.4c-0.9,0.3-1.5,1.2-1.5,2.2
		c0,1.3,1.1,2.4,2.4,2.4s2.4-1.1,2.4-2.4c0-0.1,0-0.3,0-0.4l9.3-1.7c0.2,0,0.3-0.2,0.3-0.4C20,16.1,19.8,16,19.6,16z M8,20.5
		c-0.9,0-1.6-0.7-1.6-1.6c0-0.9,0.7-1.6,1.6-1.6s1.6,0.7,1.6,1.6C9.7,19.7,8.9,20.5,8,20.5z"/>
	<circle class="st0" cx="8" cy="18.8" r="0.5"/>
	<path class="st0" d="M9.4,15.3c0.1,0.5,0.6,0.9,1.1,0.9c0.1,0,0.1,0,0.2,0l7.1-1.3c0.3-0.1,0.5-0.2,0.7-0.5
		c0.2-0.2,0.2-0.5,0.2-0.8l-1.4-6.8c-0.1-0.6-0.7-1-1.3-0.9L8.8,7.2C8.5,7.3,8.3,7.4,8.1,7.7C8,7.9,7.9,8.2,8,8.5L9.4,15.3z
		 M13.9,8.3l-1.7,0.3l-0.3-1.3l1.8-0.3L13.9,8.3z M8.7,8.1C8.8,8,8.9,7.9,9,7.9l2.2-0.4l0.4,1.6c0,0.2,0.2,0.3,0.4,0.3
		c0,0,0,0,0.1,0L14.4,9c0.1,0,0.2-0.1,0.2-0.2c0.1-0.1,0.1-0.2,0.1-0.3l-0.3-1.6l1.8-0.3c0,0,0,0,0.1,0c0.2,0,0.3,0.1,0.4,0.3
		l1.4,6.8c0,0.1,0,0.2-0.1,0.3c-0.1,0.1-0.1,0.1-0.2,0.2l-7.1,1.3c-0.2,0-0.4-0.1-0.4-0.3L8.7,8.3C8.7,8.3,8.7,8.2,8.7,8.1z"/>
</g>
</svg>
