<?xml version="1.0" encoding="utf-8"?>
<!-- Generator: Adobe Illustrator 21.1.0, SVG Export Plug-In . SVG Version: 6.00 Build 0)  -->
<svg version="1.1" id="Layer_1" xmlns="http://www.w3.org/2000/svg" xmlns:xlink="http://www.w3.org/1999/xlink" x="0px" y="0px"
	 viewBox="0 0 20 21.2" style="enable-background:new 0 0 20 21.2;" xml:space="preserve">
<style type="text/css">
	.st0{fill:#424242;}
</style>
<g>
	<path class="st0" d="M18.1,0.6H1.9C0.8,0.6,0,1.4,0,2.5v16.3c0,1,0.8,1.9,1.9,1.9h16.3c1,0,1.9-0.8,1.9-1.9V2.5
		C20,1.4,19.2,0.6,18.1,0.6z M1.9,1.3h16.3c0.6,0,1.1,0.5,1.1,1.1V5H0.7V2.5C0.7,1.8,1.2,1.3,1.9,1.3z M18.1,19.9H1.9
		c-0.6,0-1.1-0.5-1.1-1.1v-13h18.5v13C19.3,19.4,18.8,19.9,18.1,19.9z"/>
	<path class="st0" d="M2.2,3.6h3.7c0.2,0,0.4-0.2,0.4-0.4c0-0.2-0.2-0.4-0.4-0.4H2.2C2,2.8,1.9,3,1.9,3.2C1.9,3.4,2,3.6,2.2,3.6z"/>
	<path class="st0" d="M16.7,3.6h1.1c0.2,0,0.4-0.2,0.4-0.4c0-0.2-0.2-0.4-0.4-0.4h-1.1c-0.2,0-0.4,0.2-0.4,0.4
		C16.3,3.4,16.5,3.6,16.7,3.6z"/>
	<path class="st0" d="M17.4,12.5h-1.2l-1.4-3.1c-0.1-0.1-0.2-0.2-0.3-0.2c0,0,0,0,0,0c-0.1,0-0.3,0.1-0.3,0.2l-1.9,4.5L11.8,13
		c-0.1-0.1-0.2-0.2-0.3-0.2c-0.1,0-0.3,0.1-0.3,0.2l-1,2.6L8.5,9c0-0.2-0.2-0.3-0.3-0.3C8,8.7,7.8,8.8,7.8,9l-1.6,5.3l-1-1.3
		c-0.1-0.1-0.2-0.1-0.3-0.1c-0.1,0-0.2,0-0.3,0.1l-0.6,0.6H2.6c-0.2,0-0.4,0.2-0.4,0.4c0,0.2,0.2,0.4,0.4,0.4h1.5
		c0.1,0,0.2,0,0.3-0.1l0.4-0.4L6,15.3c0.1,0.1,0.2,0.2,0.4,0.1c0.1,0,0.2-0.1,0.3-0.3l1.5-4.6L9.6,17c0,0.2,0.2,0.3,0.3,0.3
		c0,0,0,0,0,0c0.2,0,0.3-0.1,0.3-0.2l1.2-2.9l0.4,0.7C12,15,12.1,15,12.2,15c0.1,0,0.3-0.1,0.3-0.2l1.9-4.4l1.1,2.6
		c0.1,0.1,0.2,0.2,0.3,0.2h1.5c0.2,0,0.4-0.2,0.4-0.4S17.6,12.5,17.4,12.5z"/>
</g>
</svg>
